<?xml version="1.0" encoding="utf-8"?>
<!-- Generator: Adobe Illustrator 16.0.4, SVG Export Plug-In . SVG Version: 6.00 Build 0)  -->
<!DOCTYPE svg PUBLIC "-//W3C//DTD SVG 1.1//EN" "http://www.w3.org/Graphics/SVG/1.1/DTD/svg11.dtd">
<svg version="1.1" id="totem" xmlns:sketch="http://www.bohemiancoding.com/sketch/ns"
	 xmlns="http://www.w3.org/2000/svg" xmlns:xlink="http://www.w3.org/1999/xlink" x="0px" y="0px" width="285.316px"
	 height="420.283px" viewBox="0 0 285.316 420.283" enable-background="new 0 0 285.316 420.283" xml:space="preserve">
<path sketch:type="MSShapeGroup" fill="#75399E" stroke="#FFFFFF" d="M149.739,0.979l28.343,118.682l87.031,140.101l-25.264-142.688
	L149.739,0.979z M271.003,227.833l-4.323,34.573l16.859,84.341L271.003,227.833z"/>
<polygon fill="#75399E" stroke="#FFFFFF" points="102.878,273.915 265.203,261.952 177.634,120.985 "/>
<polygon fill="#75399E" stroke="#FFFFFF" points="148.408,0 75.764,117.758 102.23,272.714 177.006,119.742 148.408,0 "/>
<polygon fill="#75399E" stroke="#FFFFFF" points="74.906,119.224 0.702,240.744 101.298,273.729 "/>
<polygon fill="#75399E" stroke="#FFFFFF" points="242.665,126.784 266.041,258.809 270.498,223.158 "/>
<polygon fill="#75399E" stroke="#FFFFFF" points="57.37,111.416 3.601,233.923 74.737,117.43 143.866,5.372 "/>
<polygon fill="#75399E" stroke="#FFFFFF" points="0.614,241.852 33.95,396.687 101.192,274.831 "/>
<polygon fill="#75399E" stroke="#FFFFFF" points="102.02,275.568 34.581,397.776 195.443,418.361 "/>
<polygon fill="#75399E" stroke="#FFFFFF" points="265.274,263.031 102.934,274.992 196.444,417.919 "/>
<polygon fill="#75399E" stroke="#FFFFFF" points="197.802,417.523 284.703,358.076 265.937,264.197 "/>
<polygon fill="#75399E" stroke="#FFFFFF" points="28.22,385.166 9.858,289.923 32.196,393.664 "/>
</svg>
