<?xml version="1.0" encoding="utf-8"?>
<!-- Generator: Adobe Illustrator 16.0.1, SVG Export Plug-In . SVG Version: 6.00 Build 0)  -->
<!DOCTYPE svg PUBLIC "-//W3C//DTD SVG 1.1//EN" "http://www.w3.org/Graphics/SVG/1.1/DTD/svg11.dtd">
<svg version="1.1" id="Layer_1" xmlns="http://www.w3.org/2000/svg" xmlns:xlink="http://www.w3.org/1999/xlink" x="0px" y="0px"
	 width="900.902px" height="406.588px" viewBox="0 0 900.902 406.588" enable-background="new 0 0 900.902 406.588"
	 xml:space="preserve">
<g>
	<g>
		<path fill="#ECF0F1" d="M136.939,204.234c-3.069-3.042-6.637-5.577-10.651-7.527c-1.58-0.753-4.019,0.25-5.465,2.247
			c-1.457,1.987-1.369,4.215,0.208,4.975l-0.015,0.012c3.582,1.72,6.771,3.992,9.489,6.728c2.761,2.738,5.027,5.981,6.791,9.606
			c0.752,1.575,2.998,1.642,5.006,0.186c0.283-0.206,0.542-0.433,0.785-0.673c1.453-1.455,2.096-3.455,1.453-4.799
			C142.561,210.937,140.008,207.334,136.939,204.234z"/>
		<path fill="#ECF0F1" d="M191.936,207.57c-2.769-15.674-9.477-28.881-19.443-38.845c-9.952-9.957-23.156-16.659-38.838-19.438
			c-1.847-0.329-4.225,1.138-5.308,3.238c-1.101,2.107-0.495,4.08,1.339,4.405l-0.018,0.014
			c14.714,2.591,27.041,8.891,36.376,18.227c9.343,9.339,15.648,21.676,18.234,36.384c0.322,1.84,2.299,2.439,4.43,1.331
			c0.577-0.308,1.1-0.702,1.547-1.149C191.467,210.526,192.164,208.908,191.936,207.57z"/>
		<path fill="#ECF0F1" d="M154.515,186.629c-5.879-5.877-13.176-10.342-21.652-13.021c-1.715-0.545-4.138,0.696-5.41,2.753
			c-1.286,2.049-0.943,4.171,0.767,4.717c7.75,2.47,14.46,6.561,19.875,11.976c5.438,5.439,9.54,12.224,12.056,20.039
			c0.545,1.705,2.669,2.05,4.729,0.755c0.432-0.266,0.821-0.579,1.164-0.924c1.338-1.337,2.03-3.151,1.599-4.514
			C164.879,199.928,160.433,192.548,154.515,186.629z"/>
	</g>
	<g>
		<path fill="#ECF0F1" d="M534.901,53.146c-1.225,0-2.445,0.068-3.658,0.187c-4.044-13.22-16.336-22.623-30.595-22.623
			c-1.664,0-3.964,0.141-6.037,0.399c-8.127-6.877-16.676-10.1-26.713-10.1c-21.385,0-38.77,15.371-42.301,36.933
			c-9.334,5.788-15.432,15.57-15.432,25.114c0,16.488,13.701,29.902,30.54,29.902h94.196c17.382,0,32.065-13.697,32.065-29.902
			C566.967,66.846,552.283,53.146,534.901,53.146z M534.901,102.185h-94.196c-12.21,0-19.768-9.932-19.768-19.127
			c0-6.336,4.974-13.305,12.092-16.94l2.604-1.333l0.303-2.903c1.839-17.439,15.283-30.099,31.961-30.099
			c8.09,0,14.686,2.782,21.39,9.008l2.112,1.963l2.803-0.667c1.444-0.342,4.594-0.598,6.445-0.598
			c10.739,0,19.8,8.037,21.065,18.697l0.732,6.161l5.998-1.587c2.092-0.555,4.264-0.835,6.457-0.835
			c11.344,0,21.287,8.94,21.287,19.133C556.188,93.247,546.245,102.185,534.901,102.185z"/>
		<g>
			<path fill="#ECF0F1" d="M588.35,138.414c1.71-2.901,2.938-6.082,3.641-9.486c0.267-1.337-0.959-2.985-2.744-3.695
				c-1.78-0.718-3.445-0.224-3.717,1.112l-0.011-0.007c-0.613,3.034-1.715,5.878-3.261,8.454c-1.538,2.609-3.551,4.943-5.947,6.971
				c-1.048,0.871-0.666,2.578,0.82,3.814c0.209,0.175,0.43,0.327,0.66,0.464c1.377,0.819,3.009,0.92,3.9,0.175
				C584.367,143.944,586.599,141.325,588.35,138.414z"/>
			<path fill="#ECF0F1" d="M596.387,180.576c11.301-5.099,19.985-12.698,25.597-22.133c5.606-9.426,8.135-20.681,7.224-33.053
				c-0.109-1.458-1.672-2.971-3.466-3.386c-1.8-0.427-3.173,0.41-3.068,1.855l-0.016-0.011c0.87,11.606-1.521,22.123-6.776,30.962
				c-5.259,8.846-13.364,15.974-23.972,20.749c-1.326,0.596-1.401,2.204-0.154,3.6c0.342,0.375,0.739,0.696,1.162,0.946
				C594.065,180.79,595.421,181.005,596.387,180.576z"/>
			<path fill="#ECF0F1" d="M605.017,148.305c3.308-5.565,5.28-11.933,5.676-18.845c0.081-1.399-1.321-2.991-3.117-3.558
				c-1.794-0.576-3.331,0.09-3.413,1.485c-0.38,6.326-2.179,12.176-5.227,17.303c-3.066,5.15-7.4,9.548-12.815,12.948
				c-1.185,0.739-1.038,2.409,0.338,3.716c0.282,0.274,0.591,0.508,0.918,0.701c1.269,0.754,2.77,0.927,3.715,0.34
				C596.965,158.683,601.682,153.909,605.017,148.305z"/>
		</g>
	</g>
	<g>
		<path fill="#ECF0F1" d="M94.229,243.038H55.384c-4.857,0-8.831,3.976-8.831,8.829v88.302c0,4.857,3.974,8.829,8.831,8.829h38.845
			c4.855,0,8.829-3.972,8.829-8.829v-88.302C103.058,247.014,99.084,243.038,94.229,243.038z M69.509,250.103h10.597
			c0.974,0,1.768,0.788,1.768,1.763c0,0.977-0.794,1.768-1.768,1.768H69.509c-0.972,0-1.764-0.792-1.764-1.768
			C67.746,250.891,68.538,250.103,69.509,250.103z M74.805,345.466c-2.929,0-5.3-2.37-5.3-5.297c0-2.926,2.371-5.299,5.3-5.299
			c2.93,0,5.302,2.373,5.302,5.299C80.106,343.096,77.734,345.466,74.805,345.466z M99.534,331.337H50.086v-70.639h49.447V331.337z"
			/>
	</g>
	<g>
		<g>
			<path fill="#ECF0F1" d="M830.6,285.035c0.117,0.641,0.225,1.28,0.316,1.926c0.468-0.096,0.92-0.252,1.311-0.528l17.664-12.428
				c0.77-0.533,1.279-1.341,1.438-2.26c0.155-0.92-0.051-1.846-0.585-2.604c-1.065-1.525-3.348-1.93-4.875-0.853l-16.518,11.615
				c0.204,0.667,0.395,1.336,0.569,2.014C830.186,282.943,830.405,283.987,830.6,285.035z"/>
			<path fill="#ECF0F1" d="M853.711,301.896c-0.535-0.764-1.341-1.274-2.262-1.437l-20.179-3.511
				c-0.043,0.655-0.097,1.312-0.167,1.968c-0.107,1.01-0.244,2.021-0.41,3.03c-0.106,0.652-0.222,1.296-0.351,1.948l19.905,3.461
				c0.205,0.034,0.405,0.051,0.608,0.051c1.7,0,3.149-1.218,3.439-2.895C854.458,303.585,854.252,302.66,853.711,301.896z"/>
			<path fill="#ECF0F1" d="M829.734,313.312c-0.411-0.583-1.008-0.998-1.662-1.234c-0.223,0.618-0.456,1.229-0.695,1.835
				c-0.395,1.003-0.809,2.003-1.262,2.99c-0.312,0.684-0.638,1.363-0.975,2.031l11.297,16.062c0.536,0.764,1.341,1.274,2.263,1.437
				c0.199,0.039,0.402,0.056,0.603,0.056c0.73,0,1.427-0.229,2.007-0.64c0.765-0.538,1.279-1.341,1.439-2.266
				c0.156-0.92-0.052-1.851-0.589-2.609L829.734,313.312z"/>
		</g>
		<g>
			<path fill="#ECF0F1" d="M717.434,274.004l17.658,12.422c0.216,0.152,0.455,0.247,0.689,0.342c0.098-0.679,0.22-1.351,0.346-2.024
				c0.211-1.083,0.447-2.16,0.727-3.215c0.179-0.679,0.371-1.341,0.578-2.009l-15.973-11.233c-1.532-1.077-3.813-0.672-4.875,0.843
				c-0.536,0.769-0.748,1.694-0.585,2.614C716.156,272.664,716.667,273.472,717.434,274.004z"/>
			<path fill="#ECF0F1" d="M736.019,302.053c-0.169-1.01-0.314-2.015-0.425-3.024c-0.075-0.657-0.129-1.319-0.175-1.968
				l-19.546,3.399c-0.923,0.163-1.726,0.673-2.264,1.442c-0.536,0.764-0.743,1.689-0.583,2.603c0.295,1.684,1.74,2.901,3.444,2.901
				c0.202,0,0.404-0.017,0.602-0.051l19.305-3.36C736.247,303.349,736.127,302.704,736.019,302.053z"/>
			<path fill="#ECF0F1" d="M739.456,314.206c-0.252-0.629-0.493-1.257-0.718-1.891c-0.448,0.242-0.848,0.573-1.146,0.998
				l-12.427,17.657c-0.536,0.764-0.747,1.694-0.587,2.62c0.162,0.92,0.673,1.729,1.42,2.25c0.594,0.421,1.291,0.65,2.02,0.65
				c0.207,0,0.41-0.018,0.604-0.056c0.927-0.163,1.729-0.668,2.261-1.437l10.947-15.551c-0.342-0.674-0.672-1.348-0.99-2.026
				C740.349,316.36,739.89,315.283,739.456,314.206z"/>
		</g>
	</g>
	<path fill="#ECF0F1" d="M783.333,253.998c-22.149,0-40.17,17.763-40.17,39.605c0,11.142,4.663,23.284,12.495,32.586
		c0.081,0.119,0.171,0.236,0.263,0.354c2.383,2.939,9.186,12.758,9.186,19.131c0,2.722,2.207,4.926,4.928,4.926h26.604
		c0.042,0,0.085,0,0.129,0c0.651,0,1.305-0.122,1.927-0.393c1.823-0.773,3.002-2.559,3.002-4.533c0-5.661,5.633-14.744,9.186-19.131
		c0.214-0.264,0.393-0.551,0.544-0.853c7.582-9.229,12.086-21.141,12.086-32.087C823.511,271.76,805.487,253.998,783.333,253.998z
		 M803.203,320.153c-0.287,0.331-0.52,0.7-0.698,1.087c-2.193,2.856-8.15,11.17-10.065,19.503h-18.072
		c-2.029-8.814-8.579-17.605-10.414-19.941c-0.131-0.212-0.282-0.415-0.448-0.605c-6.468-7.508-10.481-17.697-10.481-26.595
		c0-16.405,13.602-29.753,30.31-29.753c16.719,0,30.315,13.348,30.315,29.753C813.648,302.485,809.646,312.656,803.203,320.153z"/>
	<path fill="#ECF0F1" d="M794.455,358.815h-22.234c-2.18,0-3.948,1.762-3.948,3.944v15.256c0,2.177,1.769,3.943,3.948,3.943h3.759
		l1.958,2.256c0.746,0.863,1.836,1.363,2.98,1.363h4.838c1.145,0,2.233-0.5,2.979-1.363l1.958-2.256h3.763
		c2.178,0,3.941-1.767,3.941-3.943V362.76C798.396,360.577,796.633,358.815,794.455,358.815z"/>
</g>
</svg>
