<?xml version="1.0" standalone="no"?>
<!DOCTYPE svg PUBLIC "-//W3C//DTD SVG 1.1//EN" "http://www.w3.org/Graphics/SVG/1.1/DTD/svg11.dtd" >
<svg xmlns="http://www.w3.org/2000/svg">
<metadata></metadata>
<defs>
<font id="mathlete_skinny_slantregular" horiz-adv-x="565" >
<font-face units-per-em="2048" ascent="1638" descent="-410" />
<missing-glyph horiz-adv-x="614" />
<glyph horiz-adv-x="0" />
<glyph horiz-adv-x="0" />
<glyph horiz-adv-x="682" />
<glyph unicode="&#xd;" horiz-adv-x="681" />
<glyph unicode=" "  horiz-adv-x="614" />
<glyph unicode="&#x09;" horiz-adv-x="614" />
<glyph unicode="&#xa0;" horiz-adv-x="614" />
<glyph unicode="!" horiz-adv-x="286" d="M6 55q-3 -18 7 -31.5t28 -13.5q26 -1 44.5 10t26 27t10.5 26.5t3 16.5q1 12 -8.5 20.5t-20.5 6.5q-32 -1 -57 -19t-33 -43zM70 317q-2 -12 5 -20t19 -8t22 8t11 20l88 854q2 12 -5.5 20.5t-19.5 8.5t-21 -8.5t-11 -20.5z" />
<glyph unicode="&#x22;" horiz-adv-x="417" d="M92 926q-2 -12 5.5 -20.5t19.5 -8.5t22 8.5t11 20.5l12 114q5 71 16 109q3 12 -2.5 22t-17.5 11q-12 2 -23 -5.5t-12 -19.5q-18 -61 -21 -115q-4 -32 -4 -61q-6 -41 -6 -55zM287 932q-1 -12 6.5 -20.5t19.5 -8.5t20.5 8.5t10.5 20.5q22 228 23 237q2 12 -5.5 21.5 t-19.5 9.5q-13 -2 -23 -10.5t-10 -20.5q-4 -49 -22 -237z" />
<glyph unicode="#" horiz-adv-x="790" d="M-61 580q-3 -12 3.5 -21.5t18.5 -9.5q50 -4 82 -4q47 -3 29 -47q-45 -92 -56 -150q-3 -12 3.5 -21.5t17.5 -11.5q12 -2 23 5.5t14 19.5q12 59 76 188q12 20 43 23q52 3 124 12q35 5 41 -1.5t-8 -43.5q-36 -79 -63 -162q-3 -11 2 -22t16 -12q11 -2 22.5 4.5t14.5 17.5 q67 172 80 201q12 34 49 37q73 8 127 12q12 0 20.5 9.5t10.5 21.5q0 12 -8.5 19.5t-20.5 6.5q-32 -3 -82 -6q-36 -3 -40.5 6.5t11.5 38.5l60 127q0 2 35 2q18 1 40.5 1.5t35 1t20.5 1.5q12 0 21.5 9.5t11.5 21.5q0 12 -9 20t-22 7h-51q-34 0 -37 5.5t10 39.5q3 8 11 30.5 t10 32.5q3 12 -3 23t-18 12q-10 0 -22 -6q-7 -4 -10.5 -11t-7 -17.5l-5.5 -16.5q-3 -7 -29 -62q-10 -23 -18 -27q-9 -6 -33 -7q-20 -1 -56 -1.5t-52 -1.5h-11q-26 -2 -32.5 5t2.5 41q3 7 13 28.5t13 30.5q7 18 -3.5 30t-26 9.5t-23.5 -19.5q-5 -11 -11.5 -25.5t-16 -36 t-15.5 -36.5q-6 -17 -13 -24.5t-12 -8.5t-22 -2q-91 -8 -150 -26q-27 -11 -20.5 -38t35.5 -20q33 13 90 19q14 2 24.5 1.5t16.5 -4t5 -14t-11 -28.5l-8 -15q-11 -28 -50 -104q-20 -33 -59 -33q-71 -3 -115 2q-12 1 -21 -6.5t-11 -19.5zM218 626q-8 13 3 36q14 27 31 67 t20 47q4 10 8.5 17t7 10.5t8 5.5t7 2.5t9 1t10.5 0.5q17 1 54.5 2t57.5 2q12 1 21 0.5t14 -4t4 -13.5t-8 -28l-51 -110q-11 -21 -20 -26q-10 -6 -32 -9q-24 -3 -62.5 -7.5t-49.5 -5.5q-24 -1 -32 12z" />
<glyph unicode="$" horiz-adv-x="684" d="M6 811q-3 -74 41 -115q22 -20 52 -30t57.5 -12.5t97.5 -6.5q16 0 10 -41q-44 -482 -47 -508q-2 -21 -6.5 -32t-12.5 -11t-14 2.5t-18 10.5q-93 66 -96 192q-4 28 -31 25q-12 -1 -20.5 -11t-8.5 -22q1 -93 46.5 -161.5t119.5 -96.5q31 -14 31 -45q-4 -43 -8 -129 q-2 -12 6.5 -20t21.5 -7q12 0 20.5 9.5t8.5 21.5q1 18 4 54.5t4 55.5q0 37 43 43q89 12 152 82t80 183q12 71 7.5 143.5t-21.5 133.5t-56.5 108t-97.5 65h-2q-11 2 -22.5 15t-10.5 30q4 47 17 191.5t18 204.5q3 23 9.5 35.5t14.5 9.5q7 -2 17 -9q71 -36 92 -170 q0 -11 10 -17.5t23 -4.5q10 1 17 12.5t7 22.5q-21 156 -117 211q-10 4 -26 12q-35 8 -35 43q4 41 8 123q1 12 -6.5 20.5t-19.5 8.5q-13 -1 -22 -11t-9 -22q-4 -82 -8 -121q-3 -35 -39 -47q-7 -2 -21.5 -9t-17.5 -8q-101 -53 -172 -166.5t-70 -234.5zM63 815 q1 107 61.5 204.5t147.5 141.5q2 1 5 3t11 4.5t13.5 0.5t9.5 -12t2 -29q-2 -30 -34 -380q-6 -41 -17 -41q-63 2 -102 8q-49 6 -72.5 29t-24.5 71zM272 57q12 150 50 535q3 47 16 47q2 -1 5 -2t5 -2q89 -28 121 -138t12 -251q-15 -91 -60 -143.5t-110 -63.5q-19 -4 -30 1.5 t-9 16.5z" />
<glyph unicode="%" horiz-adv-x="671" d="M-68 25q-7 -18 4 -30t27.5 -10t24.5 19q314 669 633 1170q11 17 2.5 31t-24 13t-28.5 -16q-315 -482 -639 -1177zM74.5 976.5q9.5 -43.5 44.5 -61.5q53 -22 93 -8.5t64 56.5q19 30 19.5 78.5t-19.5 78.5q-32 32 -43 35q-52 10 -91.5 -17t-57.5 -77q-19 -41 -9.5 -84.5z M133 997q-4 18 2.5 42t24.5 40q27 22 49 0.5t24 -47.5q4 -35 -17 -60.5t-66 -2.5q-10 5 -17 28zM202.5 55.5q29.5 -49.5 108.5 -43.5q80 8 111 67t-21 144q-24 24 -36 27q-11 4 -50 -4q-17 -1 -41.5 -22t-40.5 -40q-60 -79 -30.5 -128.5zM257 87.5q-11 20.5 22 64.5l28 34 l8 2h2q8 1 20.5 0.5t14.5 -2.5q23 -35 23.5 -60.5t-16.5 -38t-46 -15.5q-45 -5 -56 15.5z" />
<glyph unicode="&#x26;" horiz-adv-x="679" d="M-40.5 312.5q10.5 142.5 67.5 228.5q23 33 53 63q27 27 6 53q-5 5 -20 35q-28 78 -7.5 185t78.5 213q113 206 236 167q46 -17 77 -65.5t37 -108.5q3 -62 -22 -108q-11 -16 -27.5 -16.5t-23 12t1.5 28.5q15 26 10.5 72t-27.5 84q-47 79 -114 33q-48 -36 -97 -126t-71 -183 q-18 -104 4 -158q12 -34 41 -47q12 -6 47 -10h8q2 -1 8 -2.5t8 -2.5q5 0 7 -2q4 -2 10 -8q9 -18 -4 -37q-11 -7 -19 -10h-10h-20q-27 0 -41 -10q-51 -29 -80 -80q-47 -71 -57 -198.5t24 -194.5q50 -95 154 -68q46 12 90 47.5t75 85.5q48 82 54 232l-2 4q0 5 -41 2 q-56 -8 -82 -14q-30 -4 -33 20q-3 27 23 37q27 8 45 10l39 4q30 6 129 6q63 -2 63 -30q-1 -12 -11 -20.5t-22 -8.5h-10q-41 0 -41 -6q-3 -170 -61 -264q-37 -58 -92 -101.5t-113 -60.5q-69 -19 -125.5 4t-89.5 88q-43 84 -32.5 226.5z" />
<glyph unicode="'" horiz-adv-x="159" d="M31 942q-2 -12 5 -20.5t19 -8.5t22 8.5t11 20.5q0 1 8 125q3 85 10 119q3 12 -3.5 22t-18.5 11q-12 0 -23 -8.5t-12 -20.5q-10 -86 -12 -127q-3 -95 -6 -121z" />
<glyph unicode="(" horiz-adv-x="473" d="M44 346.5q-2 -74.5 32 -160.5t112 -188q12 -15 29.5 -10.5t23.5 19t-3 28.5q-74 95 -105 173t-29 147.5t13 160.5q8 81 25.5 165.5t49.5 184t87 175.5t124 104q27 9 23 34q-3 20 -22 22l-15 -3q-178 -69 -278 -412q-43 -139 -54 -270q-11 -95 -13 -169.5z" />
<glyph unicode=")" horiz-adv-x="481" d="M-8 -8q17 -16 36 -1q5 3 9 9l51 68l51 71l45 66q10 16 49 74l39 65q46 78 66 139q104 271 -49 527l-45 71q-18 29 -53.5 61t-71.5 44q-16 8 -30 -3.5t-13.5 -26t16.5 -23.5q32 -13 58 -39q10 -9 18 -17.5t13.5 -15t13.5 -18.5t11.5 -17.5t14 -23t15.5 -25.5 q141 -230 49 -477q-5 -13 -14.5 -35.5t-12.5 -28.5q-50 -94 -76 -131l-45 -69l-43 -64l-53 -74l-49 -69q-17 -21 0 -37z" />
<glyph unicode="*" horiz-adv-x="587" d="M111 1059q-3 -13 2 -24.5t16 -12.5q57 -14 100 -31q28 -11 30.5 -19t-15.5 -36l-25 -37l-43 -68q-11 -16 -2 -30.5t24.5 -13.5t26.5 16l43 67q21 34 29.5 34.5t26.5 -34.5q5 -11 34 -63q10 -14 25.5 -13.5t25.5 15.5t1 31q-13 26 -45 88q-18 42 63 73q10 4 36.5 15.5 t41.5 17.5q18 5 22.5 21t-6.5 27.5t-30 4.5q-52 -16 -86 -32q-35 -16 -42 -9.5t-2 44.5q3 20 21 71q5 11 0.5 21.5t-14.5 15.5q-12 4 -24 -2t-17 -18q-20 -44 -29 -101q-4 -30 -10 -34t-35 4q-18 5 -53.5 16.5t-53.5 15.5q-11 2 -23 -4t-13 -16z" />
<glyph unicode="+" horiz-adv-x="610" d="M-20 608q1 -12 10.5 -18t21.5 -4q85 16 189 16q28 0 34 -6t5 -35q-1 -23 -6 -104t-5 -115q-1 -12 8 -20.5t21 -6.5q10 0 19.5 10t9.5 21q0 27 5 97t5 114q0 32 5.5 37.5t39.5 5.5q40 0 84 -2t47 -2q12 0 20.5 8.5t10.5 20.5q1 12 -6 20t-19 8q-57 0 -133 4 q-27 2 -33.5 8.5t-3.5 34.5q6 52 15 209q1 12 -8 20.5t-21 8.5q-12 -1 -20.5 -11t-8.5 -22q-6 -100 -16 -203q-3 -29 -13 -36t-49 -7q-114 0 -182 -16q-12 -1 -19 -11.5t-7 -23.5z" />
<glyph unicode="," horiz-adv-x="237" d="M-43 -174q-10 -29 15.5 -38.5t39.5 17.5q23 52 34.5 87t16 73t-9 67.5t-43.5 53.5q-22 17 -42 -6.5t3 -42.5q25 -19 30 -48.5t-6 -67t-38 -95.5z" />
<glyph unicode="-" horiz-adv-x="667" d="M-12 539q0 -12 8.5 -19t21.5 -6q112 16 344 10q144 -4 160 -4q12 0 21.5 8.5t9.5 20.5q2 12 -5.5 20.5t-19.5 8.5q-7 0 -155 4q-233 9 -357 -11q-28 -3 -28 -32z" />
<glyph unicode="." horiz-adv-x="262" d="M-31 18q18 -26 44 -32.5t50 12.5t33 63q5 9 0 19q-1 2 -2.5 12.5t-3.5 18t-9 14t-18 6.5q-66 6 -93 -31.5t-1 -81.5z" />
<glyph unicode="/" horiz-adv-x="575" d="M-106 -6q-3 -12 3.5 -21.5t18.5 -9.5q12 -2 23 6.5t12 20.5q13 70 61 182l49 94l45 90q269 556 420 824q8 17 0.5 29.5t-25 12t-26.5 -17.5q-181 -324 -420 -827q-33 -60 -47 -88l-47 -96q-51 -109 -67 -199z" />
<glyph unicode="0" d="M-55 500q0 -167 25 -303.5t81 -194.5q44 -41 94 -41q65 2 128.5 56t105.5 176q49 143 82 446q2 27 8 87.5t8 78.5q2 31 2 174q6 116 -26 199q-32 89 -93 109t-149 -44q-189 -149 -254 -524q-12 -71 -12 -219zM2.5 506q-1.5 150 11.5 209q62 352 230 483q59 42 94 30 t57 -75q20 -51 24 -182.5t-1 -139.5q-19 -239 -37 -374q-54 -336 -148 -402q-47 -35 -81 -35q-29 0 -54 25q-50 50 -75 199q-19 112 -20.5 262z" />
<glyph unicode="1" horiz-adv-x="483" d="M-106 -6q-2 -12 5 -20.5t19 -8.5q100 0 182 2q80 2 181 2q12 0 20 8.5t10 20.5t-5 20.5t-19 8.5h-121q-15 -1 -22.5 -1t-13.5 0.5t-8 2.5t-1 6q28 241 80 565q14 92 28 303q5 198 17 297q0 8 -2 10q0 14 -8 22.5t-21 8.5q-9 0 -22 -10q-86 -73 -146 -154 q-12 -16 -5 -30.5t22.5 -15.5t29.5 13q20 28 33 41q21 24 32.5 31.5t16.5 -4t2 -45.5q-1 -22 -4.5 -80t-5.5 -88q-6 -176 -25 -295q-56 -359 -75 -555q0 -1 -0.5 -2.5t-3 -6t-7 -7.5t-13.5 -6t-21 -4h-99q-12 0 -20 -8.5t-10 -20.5z" />
<glyph unicode="2" d="M-82 16q0 -21 16 -28l8 -2q9 -1 20 -2.5t18 -1.5h22q74 0 131 2q27 1 95.5 4t86.5 4h50q12 0 20 8t10 20t-5 20.5t-19 8.5h-49q-23 -2 -91 -2q-17 -1 -48.5 -2t-45.5 -2q-55 -2 -129 -2h-10l-8 2l39 76q20 37 37.5 69t25 46.5t8.5 15.5q17 44 60 110l92 138l84 125 q158 251 137 415q-13 104 -84 159t-160 36q-91 -21 -145.5 -110.5t-50.5 -223.5q4 -28 30 -25q12 1 20.5 11t8.5 22q-6 113 36.5 184t109.5 85q63 13 114.5 -27.5t61.5 -122.5q18 -144 -127 -375q-38 -59 -82 -123q-104 -148 -160 -258q0 -5 -68 -129l-40 -78l-13 -26l-4 -8 l-2 -6v-7z" />
<glyph unicode="3" horiz-adv-x="512" d="M-133 223q-9 -136 67.5 -209.5t186.5 -48.5q114 26 188 147t70 300q2 79 -33.5 143t-99.5 96q-58 12 10 49q105 58 148 159t12 208q-24 78 -66 120.5t-90.5 43.5t-101.5 -31q-69 -49 -114 -141t-42 -189q0 -12 9.5 -19t21.5 -5q12 1 19 11t7 22q-1 83 35.5 159.5 t91.5 112.5q33 20 63.5 20t59.5 -32.5t49 -94.5q29 -97 -25.5 -188.5t-160.5 -136.5q-1 -1 -18 -4l-11 -2q-3 -1 -14 -3t-20 -5t-19 -9q-26 -17 -26 -40.5t24 -28.5q21 -2 55 2q14 -3 72 -31q50 -24 77.5 -76t29.5 -119q0 -160 -59.5 -260t-149.5 -120q-80 -20 -137.5 36.5 t-51.5 167.5q1 12 -7.5 20.5t-20.5 8.5q-12 -1 -20.5 -11t-8.5 -22z" />
<glyph unicode="4" horiz-adv-x="563" d="M-61 641l6 8q5 14 8 19l39 55l127 160l260 331q3 7 8 9q21 14 35 14t16 -4q8 -8 8 -21q5 -89 -12 -208q-9 -44 -18 -111q-20 -107 -27 -162q-3 -20 1 -29t10.5 -11t23.5 -3l12 -2q12 0 20.5 -9.5t6.5 -21.5q-3 -12 -14 -19.5t-23 -6.5h-14q-20 0 -29.5 -5t-11.5 -10.5 t-6 -23.5q-81 -496 -89 -576q-1 -12 -10.5 -20t-21.5 -8t-19 8t-6 20q4 41 16.5 120t32.5 209t37 247q2 11 2.5 18.5t-2 12.5t-3.5 7.5t-8.5 3.5t-10 1h-13.5q-80 3 -155 -4q-8 -1 -20.5 -3.5t-33 -6.5t-36.5 -7q-12 -4 -21 -4l-33 -6h-6q-2 -2 -14 2q-18 13 -12 37zM41 690 l16 21q-8 -11 -8 -17t10.5 -9t36.5 -1q3 0 9 1t8 1q101 8 170 6q17 0 24 1.5t13.5 10.5t9.5 29q2 10 5 32t5 32q2 29 18 114q17 94 19 113l2 23q3 24 0.5 34.5t-6.5 14t-11.5 -2.5t-14 -13.5t-15.5 -18.5l-168 -211zM57 711q6 9 15 18z" />
<glyph unicode="5" horiz-adv-x="595" d="M-66 231q-15 -138 43 -213t162 -67q94 8 179 82.5t118 185.5q24 79 26 162.5t-18 156t-72 120t-128 51.5q-15 2 -111 -17l-8 -2q-23 -3 -32.5 -2t-10.5 10q1 5 3.5 21.5t2.5 25.5l4 27q1 5 5 54t7 77q5 123 33 199q2 17 13 33q2 2 3 3.5t1.5 2t1.5 0.5q40 12 153 0 q103 -17 170 -21q12 -1 22 7t13 20q2 12 -5.5 21.5t-19.5 9.5q-2 0 -29 3t-50 7q-22 3 -88 10q-125 15 -177 0q-44 -12 -65 -82q-14 -45 -27 -125l-10 -90q-4 -46 -4 -76q-1 -12 -2 -24.5t-1.5 -19t-0.5 -9.5q0 -1 -0.5 -3.5l-1.5 -7.5t-2 -11q-12 -71 -13 -101 q1 -17 9.5 -25t19.5 -6h4q5 1 29 5l57 12q14 3 62 10l10 2q22 5 49 2q52 -11 87 -53t49 -101t11 -128t-24 -136q-28 -94 -97.5 -154.5t-144.5 -66.5q-74 -6 -116.5 50.5t-30.5 170.5q2 12 -5.5 20.5t-19.5 8.5t-22 -8.5t-11 -20.5z" />
<glyph unicode="6" horiz-adv-x="569" d="M-39 502q-10 -200 26.5 -333.5t121.5 -164.5q77 -25 141 7t110 110q83 144 80 321q2 91 -22 155t-74 83q-116 50 -289 -182l-20 -27q-19 -21 -19 2q2 10 2 33q10 168 45 315q69 293 242 355q81 28 123 -97q2 -14 2 -57l-2 -23l-4 -26v-10q-5 -18 8 -31q6 -6 21 -6 q12 0 20 9t8 21l4 39l4 29q0 58 -6 76q-26 89 -75.5 122t-116.5 9q-106 -35 -197 -172q-51 -68 -88 -226.5t-45 -330.5zM25 291l4 39q17 63 84 151t129 129q46 29 75 17q29 -14 47.5 -66t18.5 -125q-3 -172 -72 -289q-73 -125 -176 -86q-36 12 -62.5 59.5t-37 93t-10.5 77.5 z" />
<glyph unicode="7" d="M-57 -6q-3 -11 2 -22.5t16 -12.5q11 -2 22.5 5t14.5 18q43 109 86 200l92 205q25 62 98 256q59 158 103 250l80 164l47 100q2 7 6.5 19t5.5 16q4 10 8 22q-5 14 -8 19q-6 11 -20 14q-10 2 -41 -0.5t-39 -1.5q-45 0 -76 2q-132 4 -197 4q-67 0 -71 -4q-26 -14 -41 -55 q-13 -55 2 -160q6 -25 35 -18q24 6 24 35q-10 54 -8 88v20q2 20 4 29q2 8 10 8h39q64 0 115 -2q123 -6 158 -6h39q-4 -17 -10 -32.5t-9.5 -23.5t-13 -26.5t-13.5 -26.5l-77 -164q-39 -74 -107 -256q-23 -61 -33 -86.5t-22.5 -59.5t-20.5 -53t-15 -37t-18.5 -43.5t-18.5 -41 t-27 -60.5t-33 -73q-47 -96 -88 -209z" />
<glyph unicode="8" horiz-adv-x="600" d="M-80 174q-3 -124 73 -179.5t187 -29.5q107 26 188.5 110t88.5 191q11 114 -37 201q-17 30 -54 70.5t-65 64.5l-39 31q-30 26 -2 57q11 13 28.5 37t24.5 33q24 31 56.5 99t53.5 119.5t21 53.5q27 106 -25.5 173t-139.5 59q-79 -8 -151.5 -75.5t-107.5 -170.5 q-19 -62 -20 -113.5t15.5 -93.5t41 -74t62.5 -67q27 -24 0 -58q-61 -71 -78 -96q-115 -149 -121 -342zM-23 178q3 165 109 307q15 22 76 93q30 34 59 8l37 -31q86 -74 109 -119q37 -85 32 -170q-7 -88 -72 -155t-155 -88q-85 -19 -139.5 20.5t-55.5 134.5zM60 913 q2 42 18 93q28 85 84 138.5t114 59.5q46 6 74.5 -21.5t36.5 -78.5q1 -14 -6 -51q-56 -179 -113 -260q-25 -35 -53 -68q-30 -33 -57 -6q-32 29 -52.5 56t-34 61.5t-11.5 76.5z" />
<glyph unicode="9" horiz-adv-x="546" d="M45 768q29 -62 79.5 -80t106.5 8q86 39 148 121q5 6 9.5 12t7 9t3.5 4q1 -1 0.5 -6.5t-1.5 -18.5l-2 -26t-3 -29q-1 -14 -10 -107t-16 -163q-11 -118 -27 -278.5t-18 -176.5q-1 -12 6.5 -20.5t19.5 -8.5t20.5 8.5t10.5 20.5q38 355 51 502q12 129 29.5 297t19.5 190v4 l-6 57q-23 118 -99.5 138.5t-176.5 -66.5q-94 -79 -143 -195.5t-9 -195.5zM96 797q-29 59 13.5 155.5t123.5 165.5q47 41 84.5 50.5t63.5 -18t35 -95.5q4 -18 4 -35q-22 -88 -73 -160.5t-132 -109.5q-80 -29 -119 47z" />
<glyph unicode=":" horiz-adv-x="327" d="M18 305q9 -45 54 -41q12 2 39 15q33 20 46 47t7.5 47t-21.5 24q-23 9 -77 -12q-24 -6 -39.5 -31t-8.5 -49zM90 805q-12 -42 43 -66q24 -10 51.5 -3t42.5 26q24 31 7.5 54.5t-60.5 31.5h-4h-2q-2 1 -4.5 1t-5.5 -1q-4 0 -6 -2q-3 0 -5 -2q-10 0 -18 -2q-36 -9 -39 -37z " />
<glyph unicode=";" horiz-adv-x="411" d="M73.5 312.5q-7.5 -40.5 12.5 -66.5q23 -33 61 -33q14 0 30 1q10 0 11.5 -0.5t1.5 -4.5v-2v-6l-2 -2l-2 -23q-5 -25 -36 -82q-8 -17 -0.5 -29.5t25 -12t26.5 17.5q27 51 43 96q8 35 14 49q20 63 8 117q-8 31 -29 44.5t-55 20.5q-34 8 -47 6q-8 0 -20 -12 q-34 -38 -41.5 -78.5zM118 772q-14 -37 11 -74q25 -30 53.5 -27t53.5 31q1 2 4 5.5t4 5.5q2 4 18 20q8 8 10 12q26 35 21 58q-6 28 -26 40.5t-45.5 9.5t-51.5 -19q-38 -25 -52 -62z" />
<glyph unicode="&#x3c;" horiz-adv-x="417" d="M-53 352q13 -83 108 -207l37 -47l39 -49q44 -61 55 -84q10 -15 25.5 -15t26 14t2.5 30q-11 23 -60 92l-41 51l-35 47q-89 118 -98 181q-1 4 6 26q4 9 29 51q42 64 100 140q5 6 13 16t21.5 26.5t23.5 28.5l57 76l45 59q3 4 8 11t8 11.5t5 8.5q1 1 4 5.5t3.5 6t3 5.5t3 5.5 t1.5 5t1 6t-0.5 5.5t-1.5 6q-5 16 -24.5 17t-30.5 -19q-21 -40 -70 -100l-57 -74q-37 -42 -58 -74q-63 -79 -104 -145q-50 -81 -45 -117z" />
<glyph unicode="=" horiz-adv-x="741" d="M-39.5 378q-3.5 -16 8.5 -27t31 -3q78 30 184 36.5t400 6.5q12 0 21 8.5t11 20.5q1 12 -6.5 20.5t-19.5 8.5h-305q-216 -9 -303 -48q-18 -7 -21.5 -23zM27 725q0 -12 7 -20.5t19 -8.5q156 0 281 2h280q12 0 22 8.5t11 20.5q0 12 -7 20.5t-19 8.5h-281q-125 -2 -281 -2 q-12 0 -21 -8.5t-11 -20.5z" />
<glyph unicode="&#x3e;" horiz-adv-x="604" d="M-44 -5.5q-5 13.5 5 30.5q24 28 57 61l111 111q208 212 254 264q21 24 31 37q12 18 8 22l-49 27l-51 28q-8 4 -15.5 8.5t-11.5 7t-6 3.5l-133 92q-86 64 -148 102q-16 8 -13 26t16.5 25.5t29.5 -1.5q82 -51 152 -101l133 -94l80 -43l51 -27q7 -7 16 -10q1 -1 3 -2t3 -2 q2 -2 4 -2q2 -2 6 -10q10 -22 -16 -60q-6 -10 -47 -61q-36 -43 -150 -160l-108 -110l-109 -107q-27 -27 -51 -57q-13 -16 -30 -13.5t-22 16z" />
<glyph unicode="?" horiz-adv-x="559" d="M33 887q-3 -12 3.5 -21.5t18.5 -9.5q12 -2 23 6.5t12 20.5q1 6 2.5 17.5t4.5 32t5 36.5q13 109 52 166q21 29 65.5 42t94.5 -2.5t79 -62.5q28 -45 35 -106t-14.5 -126t-71.5 -108q-8 -8 -47 -37q-84 -65 -117 -114q-39 -55 -59.5 -149t-18.5 -167q-3 -27 9 -39 q6 -6 20 -6q12 0 20.5 9.5t8.5 21.5q0 80 16.5 165.5t50.5 135.5q32 44 101 96l53 41q64 54 90.5 134.5t17.5 154.5t-43 129q-39 65 -107.5 85t-131 -1t-96.5 -68q-44 -59 -56 -139q-20 -136 -20 -137zM77 33.5q8 -29.5 38 -29.5q31 4 39.5 35t-4.5 61q0 6 -9 11 q-12 8 -18 10l-4 2q-12 2 -24 -5.5t-15 -17.5q-11 -37 -3 -66.5z" />
<glyph unicode="@" horiz-adv-x="790" d="M-29 461q-11 -112 19 -211t92 -152q58 -47 167 -65t183 6q20 5 94 39q70 34 86 41q27 9 23 34q-3 20 -22 22q-7 0 -15 -3q-41 -14 -92 -41q-46 -22 -84 -35q-65 -20 -158 -4t-139 55q-80 62 -94.5 214t39.5 317q52 175 147.5 302t202.5 157q46 13 83 -4.5t59 -52.5 t37.5 -85.5t21.5 -93.5t8 -86q17 -203 -90 -375q-15 -23 -35.5 -41t-32.5 -18q-10 0 -16 18q-10 17 -13 68q5 29 11 47q12 54 14 82q-1 120 -24 176t-76 68q-23 7 -45 -4t-37 -27.5t-43 -52.5q-68 -88 -106 -208t-15 -196q10 -27 30.5 -51t43.5 -31q91 -26 170 68 q17 24 24.5 33t7.5 6q-2 -2 0 -4q21 -49 68 -49q40 0 88.5 59.5t84.5 138t46 140.5q13 64 5.5 164t-32.5 182q-35 107 -97 159t-152 27q-133 -42 -236 -180q-175 -236 -201 -553zM176 373q-17 61 17.5 168.5t93.5 183.5q28 36 49 49q1 1 3 2t3 2q24 12 41 -12q12 -25 20 -59 q3 -17 3 -95l-19 -94l-12 -49q-5 -15 -17 -35q-31 -62 -68.5 -90t-72.5 -16q-11 5 -24 18.5t-17 26.5z" />
<glyph unicode="A" horiz-adv-x="512" d="M-88 25q0 -12 8.5 -20t20.5 -7q12 0 21 9.5t9 21.5q13 240 68 577q9 38 43 43q21 4 72 8q21 2 120 13q7 0 11 2q-8 -47 -13 -94q-34 -230 -34 -370q0 -145 51 -210q9 -12 21 -12q4 0 8 2q17 4 23 18.5t-3 28.5q-28 37 -36 109q-4 37 -4 80q0 40 4 86q7 94 28 265 q32 232 32 372v20q-2 143 -53 229q-30 46 -65 56q-12 4 -24 4q-22 0 -42 -13q-30 -20 -55 -63q-45 -77 -70 -195q-117 -538 -141 -960zM66 750q18 102 30.5 162.5t33 132t42.5 110.5q16 27 28 37q7 5 15 5q5 0 11 -3q14 -7 30 -35q46 -71 46 -242q0 -67 -7 -149 q-6 -41 -12 -41h-11q-50 -6 -118 -10q-36 -4 -52 -6q-5 -1 -10 -1q-15 0 -22 8q-6 6 -6 18q0 6 2 14z" />
<glyph unicode="B" horiz-adv-x="526" d="M-45 8q2 -25 0 -43l4 23q-1 -12 9 -18q7 -5 16 -5h6q7 2 43 8q45 7 100 27q81 37 137 98q121 127 127 299q0 85 -49 176.5t-115 126.5q-5 3 -4 6q0 1 2 1q6 3 7 4q62 54 81 145q17 80 17 153q0 66 -14 126q-21 81 -75 117q-33 22 -79 22q-28 0 -62 -8q-10 -2 -18 -15 q-4 -8 -4 -14q-2 -9 0.5 -26.5t-0.5 -26.5q-22 -82 -31 -174q-10 -112 -10 -211v-9q0 -70 -39 -387q-42 -321 -49 -395zM20 76q3 27 12.5 97t14.5 114q25 187 34 274.5t19 241.5q3 12 6 98q3 71 7 115q12 126 39 192v4q7 2 14 2q13 0 29 -6q49 -16 69 -94q13 -52 13 -112 q0 -65 -15 -142q-12 -64 -61 -104q-22 -18 -51 -31q-3 -1 -9.5 -4t-9.5 -4l-6 -2q-2 -2 -4 -2l-2 -2q-2 0 -4 -2l-9 -7q-9 -12 -6 -26q7 -22 23 -27.5t45 -3.5q14 2 25 2q10 3 10 0q52 -28 106 -131q29 -51 29 -113v-13q-4 -70 -29.5 -134.5t-77 -119.5t-116.5 -83 q-11 -5 -54 -14q-7 -2 -13 -1q-12 0 -20 6q-9 8 -9 23q0 4 1 9z" />
<glyph unicode="C" horiz-adv-x="507" d="M-31 608q-4 -66 -4 -130q0 -86 7 -171q12 -148 44 -219q28 -64 82 -86q23 -9 47 -10q30 0 60 16q49 23 87 72t52 106q3 12 -3.5 22t-18.5 11q-11 2 -21.5 -5t-13.5 -19q-8 -40 -39 -80q-17 -21 -37.5 -36.5t-45.5 -24.5t-50 6.5t-43 56.5q-45 99 -45 360q0 456 129 656 q51 78 120 96q33 9 59.5 -10t38.5 -53t16 -74q1 -10 1 -19q0 -30 -10 -57q-4 -32 20 -35q11 -2 22.5 5t14.5 18q12 37 12 77q0 57 -24 119q-20 54 -63 76q-28 14 -60 14q-18 0 -37 -4q-44 -12 -87 -46t-73 -79q-64 -101 -104 -293q-24 -106 -33 -260z" />
<glyph unicode="D" horiz-adv-x="540" d="M-23 16q-2 25 -2 52q0 78 13 178q6 54 12 106t9.5 80t4.5 37q0 1 1.5 15.5t3.5 45.5t4 66q9 192 24 334q16 176 51 293v22q1 12 11 20.5t22 8.5q86 0 150.5 -30t102.5 -83q40 -53 58 -127q17 -67 16 -145v-17q-2 -88 -22 -188q-28 -145 -88 -288.5t-138 -250t-153 -141.5 q-6 -4 -14 -4q-6 1 -16 -2.5t-19 -3.5q-3 -1 -6 -1q-7 0 -14 5q-8 5 -11 18zM35 55q2 0 4 2q93 45 195.5 233.5t144.5 399.5q22 107 22 194q-1 92 -25 162q-48 136 -181 162q-7 2 -13 2q-10 0 -19 -6q-14 -8 -18 -26q-24 -80 -39 -248q-18 -175 -26 -328q-6 -125 -8 -129 q1 -8 -25 -227q-12 -94 -12 -191z" />
<glyph unicode="E" horiz-adv-x="524" d="M-55 29v30q0 11 2.5 39t3.5 43q2 10 5.5 38t6.5 46q3 51 6 54l2 19q2 20 6.5 66.5t8.5 100.5q42 452 67 608q7 48 23 103q15 52 35 63q17 11 73 14h103q17 -1 58 -3t72 -3.5t38 -1.5q12 0 19 -8t7 -20q-4 -15 -10 -21q-11 -8 -22 -8q-26 0 -173 6q-29 2 -53 2t-43 -2h-22 q-6 -4 -12.5 -11.5t-9.5 -12.5l-3 -5q-14 -52 -20 -96q-19 -111 -39 -291l-2 -24v-6q0 -34 32 -33h5q33 2 79 2q12 1 20.5 -7t10.5 -20q-2 -12 -11.5 -21.5t-21.5 -9.5q-6 -2 -55 -2q-6 0 -18 -1t-17 -1q-36 0 -39 -41q-10 -99 -18 -190q-12 -132 -12 -145q-4 -4 -7 -54 q-3 -18 -6.5 -46t-5.5 -38q-1 -14 -3.5 -41t-2.5 -37q2 -6 2 -18h12q4 0 15.5 -1t21.5 -1h66q57 0 98 2h62q12 0 19 -8.5t5 -20.5t-10.5 -20t-20.5 -8q-24 0 -63 -2q-37 -2 -94 -2q-72 0 -95 2h-18q-28 0 -39 8q-2 0 -6 4q-12 12 -12 31z" />
<glyph unicode="F" horiz-adv-x="559" d="M-55 34q1 -10 7 -18q8 -8 19.5 -8t20 8.5t10.5 20.5q1 9 5 60.5t13 164.5t19 234q1 22 4 59.5t4 52.5q7 40 41 45q36 4 72 4q12 0 21 8.5t9 20.5q2 12 -5 20.5t-19 8.5q-13 0 -34.5 -1t-29.5 -1q-21 -3 -31.5 6.5t-7.5 30.5q5 36 14.5 97t12.5 79q2 9 8 39q0 2 1 6.5 t1 7.5q3 18 9 55q6 55 16 119q2 7 4 14.5t3 11.5t1 7v8q10 2 35 2q236 8 317 8q12 0 21.5 8.5t9.5 20.5v5q0 10 -5 16q-7 8 -19 8q-114 0 -320 -7q-16 -2 -39 -2h-12h-4q-4 -2 -6 -2q-3 0 -11 -4q-18 -13 -18 -26v-7q-2 -4 -4 -14.5t-4 -15.5q-16 -65 -23 -146 q-8 -31 -8 -55q-2 -8 -3.5 -17.5t-2.5 -11.5q-40 -192 -57 -460z" />
<glyph unicode="G" horiz-adv-x="479" d="M-45 301q-2 35 -2 71q0 136 24 292q30 196 86 340q33 82 76.5 139t86.5 79q34 18 65 18q10 0 20 -2q41 -7 70 -46q37 -49 37 -115q0 -17 -2 -35q-1 -12 -12 -20t-23 -6q-12 0 -19 9.5t-4 21.5q2 13 2 25q0 50 -27 82q-20 24 -46 24q-19 0 -41 -11q-68 -32 -125.5 -174 t-85.5 -340q-23 -150 -23 -284q0 -31 2 -61q6 -161 47 -216q37 -51 73 -51q54 0 106 113q39 80 49 168q3 31 0 53q-9 28 -37 28q-9 -1 -29 -2t-30 -2q-14 -2 -35 -2q-12 0 -20 8.5t-7 20.5t11 20.5t22 8.5q37 0 67 6h16q46 0 67 -10q25 -12 32 -52q3 -18 3 -44q0 -15 -1 -33 q-11 -99 -60 -199t-112 -129q-30 -14 -57 -14q-54 0 -95 57q-63 86 -69 264z" />
<glyph unicode="H" horiz-adv-x="483" d="M-74 5q0 -10 6 -17q7 -8 19 -8t22 8t11 20q6 63 26.5 264t34.5 342q1 16 3.5 23.5t11.5 13.5t28 6q10 0 24 1t33.5 2t34.5 2q17 1 48.5 2t45.5 2q24 2 33 -5.5t6 -33.5q-12 -111 -35 -320.5t-30 -279.5q-2 -12 5 -20.5t19 -8.5t22 8.5t11 20.5q24 233 70 608 q38 329 67 604v3q0 10 -6 18q-8 8 -20 8t-20.5 -8.5t-10.5 -20.5q-6 -57 -24.5 -213.5t-28.5 -257.5q-1 -8 -2.5 -14.5t-2.5 -11t-4.5 -7.5t-4 -4.5t-6.5 -2.5t-6.5 -1.5t-8.5 -1t-10 -0.5q-41 -3 -103 -6q-37 -2 -88 -2h-8.5h-7.5t-6 0.5t-5.5 1.5t-4.5 2.5t-3.5 5 t-1.5 7.5t-1 10t1 14q13 132 47 475q2 12 -5 20.5t-19 8.5t-22 -8.5t-11 -20.5q-9 -85 -61 -612z" />
<glyph unicode="I" horiz-adv-x="466" d="M-102 12q-2 -12 6 -20q6 -6 15 -6h5q76 3 156 3t164 -3h3q10 0 20 6q11 8 14 20q2 12 -6.5 21.5t-20.5 9.5q-18 2 -59 2q-11 1 -16 1t-10.5 1t-7 1.5t-3 4t-1 5t0.5 8v10.5q9 154 16 205l8 94q2 12 10 82.5t15 122.5q4 34 9 77t8 70.5t5 44.5q25 251 27 344v15t0.5 13 t5 7.5t14.5 6t27 1.5q24 0 45 -0.5t32 -0.5l11 -1q13 1 21 9q11 11 10 23q0 10 -6 17q-7 8 -19 8q-21 0 -100 3q-26 1 -51 1q-115 0 -191 -12q-12 -1 -20 -11t-8 -21q1 -12 10 -19.5t20 -5.5q13 2 28.5 3.5t37.5 3.5t37 3q8 3 14.5 0.5t10.5 -1.5t7 -3t4.5 -4.5t2 -6 t0.5 -7.5v-8v-9q-6 -147 -27 -348q-2 -17 -5 -44.5t-8 -70.5t-9 -77q-7 -52 -15 -122.5t-10 -82.5q0 -14 -10 -92q-7 -56 -19 -215q-4 -21 -45 -21q-21 -1 -62.5 -2t-62.5 -2q-12 0 -20 -9.5t-8 -21.5z" />
<glyph unicode="J" horiz-adv-x="563" d="M-82 276q0 -125 53 -202q38 -53 91 -54q1 -1 2 -1q52 0 114 57q56 50 105 223q45 156 78.5 359.5t39.5 361.5q1 24 1 47q0 54 -5 102q0 2 -0.5 12t0 12t3 8t7 7.5t13 3.5t20.5 2h52q12 0 20 8q10 12 10 26q0 9 -6 15q-8 8 -20 7h-154q-26 -1 -51 -1q-51 0 -98 3h-4 q-9 0 -17 -6q-11 -9 -12 -21q-3 -12 4.5 -21.5t19.5 -9.5q29 -4 109 -4q20 0 29 -4t11.5 -9t4.5 -21q4 -39 4 -87q0 -34 -2 -73q-6 -160 -38 -356.5t-77 -350.5q-6 -19 -43 -127q-20 -48 -41 -65q-39 -38 -70 -38q-27 0 -48 32q-46 64 -46 158v12q0 12 -8.5 20t-19.5 8 q-12 -1 -21.5 -11.5t-9.5 -21.5z" />
<glyph unicode="K" horiz-adv-x="546" d="M-37 16q0 -10 8 -18q7 -6 16 -6h5q12 0 20.5 9.5t7.5 21.5q23 403 46 608q4 40 27 40q9 0 20 -5q27 -15 45 -50q18 -37 27 -99t9.5 -97.5t0.5 -112.5q0 -13 1.5 -62t3 -69.5t6 -56t13.5 -58t23 -38.5q8 -11 20 -19q24 -12 45 -12q25 2 31 2h8q12 0 21.5 8.5t9.5 20.5 q1 12 -6 20t-19 8h-45l-8 4q-14 13 -20 29q-7 14 -11.5 32.5t-7 47.5t-3.5 44t-3 56.5t-2 50.5q0 92 -2 119q-6 124 -31.5 193t-77.5 92q-37 19 -14 51q78 121 170.5 237t159.5 173q11 10 11 22v6q-4 16 -17.5 20t-30.5 -7q-123 -107 -281 -334q-26 -37 -38 -37q-8 0 -8 20 q0 11 3 29q29 191 56 313q3 12 -3 22t-18 11h-5q-9 0 -17 -5q-10 -7 -13 -19q-54 -220 -82 -506l-4 -45q-47 -486 -47 -654z" />
<glyph unicode="L" horiz-adv-x="440" d="M-49 -4q1 9 2 24.5t2 24.5v12q8 96 8 103q0 2 10 73q7 51 7 62l4 35q8 93 30 272q43 342 43 540v40q0 12 8 21.5t21 10.5h5q9 0 15 -5q8 -7 9 -19q2 -32 1 -69q0 -195 -44 -521q-30 -247 -31 -270l-4 -35l-6 -62l-8 -73q-9 -97 -9 -103l-2 -26q4 -2 11 -2q1 0 30 -4h53 q10 -2 136 -2q12 -1 20 -9q7 -8 6 -17q0 -13 -11 -23q-9 -8 -21 -9h-136q-42 0 -82 4q-51 4 -59 21q-3 3 -6 12v2z" />
<glyph unicode="M" horiz-adv-x="745" d="M-49 14q0 -12 11 -18q8 -5 18 -4h6q10 1 17 12.5t7 22.5q-4 34 -4 65.5t4 61.5q6 47 10 67q2 27 7 68q20 185 43 332q25 187 41 331q8 70 8 97q8 81 15 82q3 1 6 -7q1 -1 1 -2q1 -2 6 -12.5t7 -17.5q31 -72 49 -105.5t57 -87.5q17 -28 17 -32t-19 -27q-12 -15 -45.5 -59 t-50.5 -64q-14 -15 -8 -31t21 -17.5t28 11.5q4 4 80 100q23 31 30 31t27 -29q36 -50 57 -88q11 -14 26 -13.5t26 15.5t2 31q-10 17 -38 59t-40 62q-3 4 -6 8.5t-5.5 6.5t-4 5t-2.5 3.5t-0.5 3.5t0.5 3.5t2 4t3.5 5.5t5.5 7.5t7 9.5l18 27q63 89 123 162q31 35 50 38 q5 -1 5 -4v-28q-3 -18 -6 -135q-9 -104 -18 -291q-26 -374 -26 -570q0 -38 1 -69q-1 -12 8.5 -19.5t22.5 -5.5q12 0 20.5 10.5t6.5 22.5v32q0 213 24 601q14 153 19 293q8 156 8 203v14v28q-2 6 -2 13l-2 8q-6 9 -15 12q-9 5 -18 5q-20 0 -37 -27q-5 -10 -6 -11l-4 -4 q0 -2 -2 -2q-86 -86 -199 -247q-11 -15 -16 -21.5t-10.5 -7.5t-7 1t-8 12.5t-11.5 17.5q-26 35 -42 65.5t-38 91.5q-27 56 -43 82q-15 21 -23 29q0 4 -6 10q-16 17 -34 17q-9 0 -21 -6q-30 -16 -23 -54q0 -8 2 -10l3 -6q2 -2 2 -4q0 -88 -15 -226q-16 -144 -41 -331 q-23 -147 -43 -332q0 -3 -10 -78q-11 -87 -11 -144q0 -31 3 -53z" />
<glyph unicode="N" horiz-adv-x="620" d="M-41 52q0 -10 7 -17q8 -8 20 -8q26 0 30 28q16 147 41 324q29 222 64 555q6 59 19 59q12 0 30 -47l-6 12l231 -565q11 -22 11 -49q-13 -258 -13 -326q-1 -12 8 -20q7 -6 16 -6h5q12 0 21 9.5t8 21.5q0 83 12 313q16 224 31 420q9 75 20 147q24 176 24 285q0 25 -1 47 q-1 12 -11 18q-8 5 -16 5q-3 0 -6 -1q-12 -1 -19.5 -11.5t-7.5 -22.5q1 -21 1 -46q0 -103 -23 -270q-22 -140 -31 -284q-2 -39 -5.5 -61t-6 -29t-7 0t-8 16t-10 29.5t-10.5 31.5l-156 377l-26 60q-8 18 -17 40.5t-10 24.5q-28 93 -29 121q0 12 -8 19q-6 5 -15 5h-5 q-7 0 -19 -8q-7 -7 -10 -13.5t-3.5 -12t-0.5 -6.5q-4 -7 -2 -11q-3 -240 -45 -573q-9 -63 -31 -254q-41 -291 -41 -327z" />
<glyph unicode="O" horiz-adv-x="587" d="M-38 316q4 -100 21.5 -174.5t67 -117t129.5 -42.5q39 0 85 16.5t73 42.5q41 38 70 160q27 112 55.5 296t42.5 359l2 10q2 38 3 73q0 96 -19 163q-20 70 -66 108q-46 39 -98 42h-14q-45 0 -90 -15q-52 -18 -87 -53q-148 -151 -172 -654q-5 -73 -5 -140q0 -38 2 -74z M24 274q-2 47 -2 102q0 73 3 159q23 477 153 612q50 47 129 47q145 -2 145 -262q0 -20 -1 -41v-8q-8 -162 -54 -430q-23 -143 -49 -244q-3 -11 -11 -42t-13 -44q-17 -33 -27 -41q-14 -18 -48.5 -30.5t-62.5 -12.5q-79 0 -118.5 62.5t-43.5 172.5z" />
<glyph unicode="P" horiz-adv-x="430" d="M-49 6q1 -12 9 -19q7 -5 15 -5h5q12 1 20 10.5t8 21.5q-1 24 -1 50q0 206 42 550q0 20 35 35q84 45 125 74q80 53 127 145q26 64 27 126q0 38 -11 75q-26 97 -106 153q-73 51 -165 51q-10 0 -20 -1q-12 0 -20 -8q-11 -11 -8 -25q0 -11 7 -26t7 -27q-10 -189 -55 -572 q-42 -342 -42 -556q0 -27 1 -52zM66 760q28 204 40 403q0 22 14 32q8 6 18 6q7 0 16 -3q92 -32 130 -120q18 -42 19 -87q0 -49 -22 -102q-22 -51 -62 -88t-104 -72q-13 -7 -24 -7q-7 0 -13 4q-12 7 -13 26q0 4 1 8z" />
<glyph unicode="Q" horiz-adv-x="563" d="M-53 201q0 -117 39 -191q27 -52 73 -71q20 -7 41 -7q32 0 69 16q61 27 103 97q19 32 26.5 33.5t29.5 -23.5l18 -20q11 -13 27.5 -8.5t22 19t-4.5 30.5l-47 59q-18 21 -10 53q30 92 45 205t37 355l8 88l8 36q8 72 8 125q0 58 -10 93q-18 68 -82 124q-46 41 -98 47 q-8 1 -16 1q-45 0 -88 -30q-52 -35 -89 -108q-111 -208 -111 -802q0 -59 1 -121zM4 209q-1 45 -1 88q0 603 106 807q29 55 63 80q27 20 55 20q5 0 11 -1q33 -5 67 -34q80 -69 80 -157v-9q0 -57 -12 -140q-13 -89 -15 -115q-35 -345 -59 -467q-9 -44 -22 -47t-35 34 q-9 15 -24 39t-21 33q-11 14 -26.5 13t-26 -15.5t-1.5 -30.5q49 -78 95 -139q20 -26 6 -55q-41 -81 -86 -107q-32 -15 -55 -15q-9 0 -17 3q-26 8 -47 47q-35 75 -35 168z" />
<glyph unicode="R" horiz-adv-x="577" d="M-43 27q11 134 47 391q10 79 25.5 200.5t22.5 178.5t15.5 151.5t14.5 200.5q1 30 -11 37.5t-32 -2.5q-1 0 -3 -1t-3 -1q-17 -8 -29 2.5t-9.5 26.5t19.5 24q71 30 145 29h27q88 -6 162 -50q82 -44 115 -121q18 -41 17 -87q0 -41 -13 -86q-35 -123 -162 -195 q-14 -9 -39 -20q-33 -17 -12 -52q49 -80 49 -252q0 -45 -4 -86q-2 -48 -2.5 -87.5t2.5 -71.5q8 -51 16 -70q3 -8 11 -16q2 -2 2 -7q16 3 28 15q3 3 9 6q8 9 17.5 11t16.5 -2t12 -10.5t4 -16.5t-9 -19q-38 -44 -81 -44h-1q-44 1 -66 58q-22 59 -22 158q1 13 2 46.5t2 49.5 q4 41 4 82v16q0 163 -60 226q-18 20 -55 8l-6 -2q-34 -12 -37 -49q-70 -532 -72 -569q-2 -12 -11 -20.5t-21 -8.5t-19.5 8.5t-5.5 20.5zM102 748q-1 -4 -1 -8q1 -16 11 -24q6 -5 15 -5t20 4q116 42 178 89t87 128q9 32 9 62q-1 38 -15 71q-26 60 -91 98q-57 35 -127 41h-6 q-39 0 -39 -41q-13 -194 -41 -415z" />
<glyph unicode="S" horiz-adv-x="604" d="M-6 231q1 -4 1 -14t1 -16q-2 -31 8 -62l10 -30q27 -61 90 -82q38 -14 79 -14q23 0 49 5q68 13 128 56q36 26 59.5 64t31 66t12.5 64q2 21 2 40q0 56 -19 104q-25 63 -69 112q-44 50 -94 94q-1 0 -6 4.5t-9 8.5q-57 51 -82 77t-55 68q-39 51 -39 118q0 30 8 62 q30 110 102 172q65 56 134 57q7 0 14 -1q76 -5 112 -76q19 -38 19 -89q0 -45 -14 -101q-3 -12 3.5 -22t18.5 -11q12 -2 22 5t13 19q16 61 16 114q0 68 -28 120q-48 92 -152 100q-9 1 -19 1q-90 0 -172 -70q-91 -77 -124 -209q-10 -35 -10 -70q0 -15 2 -29q5 -48 18.5 -81.5 t46.5 -73.5q31 -39 51.5 -59.5t67.5 -59.5q12 -15 21 -21l45 -43q21 -18 45 -45q42 -51 59 -98q13 -38 13 -86q0 -16 -1 -33q-2 -17 -18 -73q-15 -42 -58 -74.5t-98 -42.5q-24 -5 -45 -5q-29 0 -53 9q-42 16 -61 57q-1 3 -3.5 9.5t-3.5 9.5q0 6 -4 18q-1 3 -2 10t-2 11 q0 14 -2 20v43q1 2 1.5 5.5t1 9t1.5 10.5q-1 4 -1 8.5v8.5l1 3l2 25l2 22q2 12 -5 20.5t-19 8.5t-22 -8.5t-11 -20.5l-2 -26l-4 -29l-2 -31q-3 -18 -3 -27q0 -4 1 -6z" />
<glyph unicode="T" horiz-adv-x="555" d="M33 1196q-2 -12 6 -20t20 -7q37 2 123 2q38 0 38 -29q0 -6 -1 -12q-26 -205 -82 -735q-6 -75 -12.5 -144t-13 -128t-7.5 -74q-2 -12 5.5 -20.5t19.5 -8.5t22 8.5t11 20.5q2 18 14 133.5t21 212.5q56 536 82 738q9 38 47 38h153q12 1 22 9q11 9 11 23q0 9 -7 17 q-8 8 -20 9q-389 0 -424 -2q-12 0 -20.5 -9.5t-7.5 -21.5z" />
<glyph unicode="U" horiz-adv-x="540" d="M27 311q10 -87 32 -172q44 -134 121 -137h9q79 0 139 129q34 80 53 172q40 205 53 311q45 378 45 595q-1 9 -7 17q-8 8 -19 9q-13 -1 -22 -11t-9 -22q-11 -182 -21 -305q-8 -124 -29.5 -291.5t-47.5 -294.5q-18 -84 -50 -161q-23 -51 -45 -70q-15 -21 -39 -21 q-42 3 -71 103q-20 63 -33 162q-12 110 -12 232q0 296 71 658q2 12 -5 22t-19 11q-12 0 -22 -8t-11 -20q-74 -380 -74 -677q0 -122 13 -231z" />
<glyph unicode="V" horiz-adv-x="655" d="M59 1210q3 11 15 18q9 5 17 5h5q12 -1 18 -12t3 -23q-2 -2 -2 -35q0 -10 2.5 -37t3.5 -41q6 -88 24 -223l23 -153l20 -146q11 -71 11 -80l28 -215q2 -14 3.5 -22.5t5 -21.5t7.5 -16t9 -1.5t12 17.5t15 44q3 8 6 18t6.5 22.5t5.5 19.5q36 105 98 331q53 205 80 291 q1 4 7.5 23t14.5 43.5t17 50.5q31 90 37 113q3 12 13 19t22 5q12 -1 18 -11q4 -6 3 -14q0 -4 -1 -8q-7 -37 -37 -118q-13 -38 -39 -115q-24 -82 -77 -289q-65 -231 -101 -334q-11 -31 -36.5 -116.5t-44 -140t-27.5 -58.5q-6 -4 -12 -4q-8 0 -17 6l-6 8q-2 2 -2 6l-4 4 q0 9 -2 15l-8 47l-19 143q-26 202 -35 246q0 13 -10 78l-20 147l-21 154q-17 125 -27 223q-6 64 -6 99q0 28 4 38z" />
<glyph unicode="W" horiz-adv-x="923" d="M39 1237q2 12 10.5 20.5t20.5 8.5t19.5 -8.5t6.5 -20.5q-3 -29 -3 -66q0 -62 9 -149q13 -153 13 -168q0 -1 4 -59l4 -62v-57q3 -75 8 -119q4 -54 6 -61l6 -56q3 -30 9 -59l10 -57q0 -1 2.5 -15t8 -49t11.5 -72q4 -12 11 -23t11 -15l5 -5q15 63 20 93l9 36q5 24 14 50 l84 321q6 31 4 53q-31 271 -31 480v36q-1 10 8 20.5t21 12.5q11 0 20.5 -8.5t8.5 -19.5q0 -162 8 -250q9 -106 12 -109q2 -4 7 6q5 12 30 101l74 260q3 12 13.5 18t23.5 4q24 -3 20 -35q-114 -396 -145 -514q-6 -32 -2 -51l39 -338q7 -69 38 -182l-10 49q11 -48 24 -52 q3 0 5 3q44 136 94 338l55 209l52 180q35 129 59 205l59 182q3 13 15 19q9 5 18 4h6q10 0 15 -12q3 -7 3 -15q0 -4 -1 -8l-60 -184q-20 -69 -59.5 -207t-50.5 -176l-54 -205l-49 -187q-10 -41 -47 -157q-23 -67 -29 -82q-7 -22 -12 -29q0 -1 -1 -3t-1 -3t-1 -2.5t-3.5 -4.5 t-3.5 -5q-11 -11 -25 -11q-7 0 -18 7l-4 4q0 1 -1 3t-1 3v2l-2 2l-2 6l-27 107q-32 120 -39 190l-12 94q-11 109 -15 111q-3 2 -7 -11q-1 -3 -27 -100l-27 -102q0 -7 -12 -62q-24 -105 -41 -157q-10 -27 -19 -47q-1 -1 -2 -4.5t-2 -4.5q-14 -24 -39 -24q-14 0 -22 8 q-1 1 -1 4t-1 4q-2 2 -6 10q-2 7 -6 29l-17 82q-6 30 -12.5 65t-10.5 56t-6 33q-1 10 -4 25t-4 22q-4 30 -8 45l-8 63q-7 62 -8 70l-4 65q-1 6 -3 30.5t-4 43.5q-2 35 -2 64l-6 110v49q-2 11 -3.5 30t-4 50.5t-4.5 57.5q-7 93 -7 157q0 42 3 72z" />
<glyph unicode="X" horiz-adv-x="526" d="M-80 25q-4 -8 -4 -15q0 -8 4 -14q8 -11 23 -12h3q16 2 25 20q93 173 162 344q23 56 29.5 56t21.5 -56q15 -52 43 -171.5t47 -172.5q7 -17 23.5 -17.5t28.5 12.5t6 30q-71 192 -117 481q-3 28 8 53l109 268l41 111q55 163 100 229q8 10 8.5 19.5t-8.5 17.5t-18 8t-18 -7 q-5 -3 -9 -9q-56 -79 -113 -246q-37 -103 -39 -106l-43 -107q-25 -63 -33.5 -63t-17.5 65l-10 74q-7 53 -37 191q-30 133 -37 184q0 12 -9 18q-7 4 -15 4h-6q-27 -3 -27 -34q5 -57 35 -191q30 -127 39 -184l32 -242q3 -26 -8 -53q-127 -307 -219 -485z" />
<glyph unicode="Y" horiz-adv-x="632" d="M49 1221q10 -113 55 -275l39 -143l31 -109q0 -2 6 -19.5t8.5 -31.5t-0.5 -25q-31 -138 -47 -399q-6 -136 -12 -186q-2 -12 5.5 -20.5t19.5 -8.5t21 8.5t11 20.5q2 14 17 192q10 156 20 242q10 104 25 154.5t61 136.5q53 102 147 266.5t132 214.5q8 10 8 20q0 5 -3 11 q-7 14 -23 15h-2q-14 0 -27 -13q-40 -51 -181 -301l-104 -191q-1 -2 -3 -5.5t-7.5 -9.5t-11 -7t-12.5 7t-13 28l-14 51l-39 139q-44 203 -50 250q0 12 -9 18t-21 4q-12 -1 -19.5 -11.5t-7.5 -22.5z" />
<glyph unicode="Z" horiz-adv-x="614" d="M-61 25q-1 -2 -1 -5q0 -5 3 -10q2 -11 16 -18q14 -6 47 -6q6 -2 25 -2q49 0 141 6l98 6q53 3 94 6q25 2 52 2q12 0 21 8.5t11 20.5q1 12 -6.5 20t-19.5 8q-26 0 -51 -2q-45 -3 -97 -6q-130 -10 -237 -10h-5h-9t-10 1.5t-3 4.5q13 33 39 86l127 262l137 273q38 78 82 157 q40 66 88 172.5t60 155.5q11 32 11 56q0 12 -3 22q-4 15 -17 22q-2 2 -8 2q-3 3 -8 3h-12q-3 0 -6 -3q-8 -1 -23 -2t-22 -2q-4 -1 -11.5 -2t-11.5 -2q-100 -13 -194 -14q-78 0 -152 10q-12 2 -22 -5t-13 -19t3 -22t18 -11q77 -11 160 -11q97 0 202 15q3 0 8.5 1t8.5 1 q6 1 12.5 1.5t10 1l7 1t6.5 0.5q1 0 4.5 1t4.5 1q-3 -15 -9 -33q-13 -49 -45 -116q-65 -146 -98 -199q-22 -33 -84 -160l-135 -274l-129 -262q-29 -61 -39 -88q0 -3 -4 -5q-10 -25 -10 -26v-6z" />
<glyph unicode="[" horiz-adv-x="491" d="M-25 12q8 -29 45.5 -41.5t104.5 -17.5h160q12 0 20 8.5t10 20.5t-5 20t-19 8q-144 0 -156 2q-57 3 -80 11l-16 6l-8 4q-6 26 10 100q27 114 27 121q18 127 36 362q18 236 27 320q0 1 4 63q0 105 15 146q7 23 14.5 27t40.5 4q137 0 201 -19q11 -2 22.5 4t15.5 17 q7 26 -16 36q-37 9 -107.5 15t-111.5 6q-51 -2 -76 -16t-39 -60q-16 -44 -20 -166q3 -48 0 -57q-9 -84 -27 -320q-24 -271 -37 -362q0 -1 -3 -12.5t-10 -40.5t-15 -60q-18 -91 -7 -129z" />
<glyph unicode="\" horiz-adv-x="563" d="M47 1206q2 -80 35 -223q13 -72 18 -98q55 -310 106.5 -506.5t133.5 -366.5q9 -23 34 -13q22 9 21 29q0 7 -4 13q-79 171 -131 367.5t-102 492.5q-1 10 -4 25t-7.5 37t-7.5 38q-33 158 -33 213q-4 28 -30 25q-12 -1 -20.5 -11t-8.5 -22z" />
<glyph unicode="]" horiz-adv-x="428" d="M-51 -4q0 12 9.5 21.5t21.5 9.5q4 2 30 2q39 0 105 4q7 0 67 8q24 9 27 27q0 4 1 15.5t2.5 31t2.5 39.5q6 70 18 258q30 419 35 440q0 1 15 74q34 179 24 219q0 2 -2 2q-9 3 -24 6q-27 6 -80 6q-67 0 -158 -6q-12 -1 -20.5 7t-6.5 20q0 12 8.5 21t20.5 9q95 9 162 9 q57 0 92 -9q56 -11 63 -39q15 -43 -6 -163q-3 -23 -16 -87t-14 -73q-5 -39 -25 -307t-27 -387q-3 -62 -6 -86l-4 -25v-8q-3 -9 -6 -15q-11 -21 -59 -34q-4 -1 -6 -2q-67 -13 -134 -13q-18 -2 -53 -2h-29q-12 -2 -20.5 6.5t-7.5 20.5z" />
<glyph unicode="^" horiz-adv-x="524" d="M-35.5 643q6.5 -15 22 -15.5t29.5 13.5q139 191 236 358l51 95l2 -31q12 -191 62 -387q5 -17 20.5 -19.5t28.5 9.5t10 30q-44 158 -61 351q0 9 -1.5 24t-1.5 25q3 59 -2 90q0 19 -8 31q-9 9 -20 12q-19 4 -30 -9.5t-31 -56.5q-6 -13 -9 -20q-117 -231 -291 -469 q-13 -16 -6.5 -31z" />
<glyph unicode="_" horiz-adv-x="905" d="M-109 -18q0 -11 11 -18t22 -5q66 15 217 12q49 -2 101 -2q25 0 229 4q102 2 231 2q12 0 21.5 8.5t9.5 20.5q2 12 -5 20.5t-19 8.5q-130 0 -232 -2q-204 -4 -229 -4q-5 0 -17.5 0.5t-35.5 1.5t-43 2q-149 6 -234 -15q-11 -1 -19 -12t-8 -22z" />
<glyph unicode="`" horiz-adv-x="360" d="M84 1185.5q0 -14.5 14 -24.5q47 -26 76 -59l39 -39l35 -39q22 -19 43 3t2 42q-3 2 -7.5 6.5t-12.5 13t-15 15.5l-41 43q-34 39 -88 67q-16 8 -30.5 -3t-14.5 -25.5z" />
<glyph unicode="a" horiz-adv-x="534" d="M-88 12q-1 -4 -1 -8q-1 -8 3 -14q6 -10 18 -10q12 -2 23 5t12 19q16 57 53 264l64 344q6 37 41 37h6q118 -4 174 -10q37 0 37 -39q-3 -305 -37 -596q0 -12 7.5 -20.5t19.5 -8.5t21 8.5t9 20.5q39 346 39 721q0 118 -4 238v3q0 2 -0.5 5.5t-0.5 8v11.5t1 15q0 94 -12 143 q-8 44 -26 71q-18 26 -49 36q-9 3 -19 3q-24 0 -55 -16q-55 -30 -113 -209q-37 -116 -59 -219.5t-79 -412.5q-15 -83 -24 -130q-38 -215 -49 -260zM111 752q15 107 69 270q22 78 45 121q5 16 17 28q15 24 41 27h4q15 0 24 -14q11 -16 17 -54q6 -36 10 -129q5 -145 5 -214 q0 -30 -1 -46q-1 -22 -6 -31q-6 -9 -16 -10h-11.5h-13.5q-77 6 -150 9q-23 0 -31 8q-5 5 -4 19q0 7 1 16z" />
<glyph unicode="b" horiz-adv-x="612" d="M-33 13q0 -10 7 -17q8 -8 20 -8q5 -1 13 -1q16 0 46 3q86 18 157 50t121 73.5t86 92t51.5 105t17.5 112.5q0 7 1 14q0 51 -16 100q-22 78 -65 129q-60 73 -146 84q-22 2 -25.5 8.5t9.5 25.5q33 40 69 107q31 65 33 135q0 3 1 7q0 66 -30 120q-30 63 -90 93q-42 20 -91 20 q-22 0 -44 -4q-12 -1 -19 -11.5t-7 -23.5q0 -1 -1.5 -9t-1.5 -10q-3 -16 -5.5 -29.5t-4 -26.5t-2.5 -22t-2 -22l-1.5 -19.5t-0.5 -21.5v-21v-25.5v-27.5v-102q-2 -28 -7.5 -113.5t-10.5 -136.5zM33 43h-1q-2 0 -2 11q0 12 3 38q36 327 47 477q3 30 22 52q64 70 130 70 q22 0 44 -7q46 -13 83.5 -59t54.5 -109q12 -52 12 -103v-15q-2 -58 -29.5 -113.5t-72 -101.5t-117.5 -82.5t-166 -55.5zM98 776l6 119q2 27 2 106q-1 36 -1 62.5t1 42.5q2 32 15 94v4q7 2 17 2t24 -2q66 -11 104 -82q24 -42 24 -94v-6q-2 -56 -28 -107q-48 -89 -115 -159 q-16 -17 -26 -23q-4 -2 -8 -3q-5 0 -9 6q-6 8 -6 33v7z" />
<glyph unicode="c" horiz-adv-x="571" d="M-4 143q26 -84 78 -127q42 -34 91 -34q12 0 25 2q64 7 115.5 64t73.5 145q3 12 -3 21.5t-18 10.5q-12 2 -22.5 -5t-11.5 -19q-18 -70 -54.5 -111.5t-79.5 -46.5q-7 -1 -14 -1q-35 0 -66 26q-38 31 -59 96q-15 49 -14 134q0 204 84 611q26 117 88 205q61 80 121 98 q17 5 32 5q37 0 58 -33q29 -42 29 -136q0 -30 -3 -65q-2 -12 5.5 -20.5t19.5 -8.5t22 8.5t11 20.5q4 39 4 74q0 103 -38 161t-100 59q-21 0 -46 -7q-85 -24 -159.5 -122.5t-101.5 -229.5q-85 -409 -85 -621q0 -98 18 -154z" />
<glyph unicode="d" horiz-adv-x="509" d="M-20 31q-1 -2 -1 -4q0 -8 9 -17q6 -6 12 -6h4q11 0 43 4q6 0 16 10q105 108 189.5 249t126.5 284q43 137 43 256q0 179 -98 313q-46 64 -89 94t-106 31h-2q-12 0 -21.5 -8t-9.5 -18v-5q-4 -39 -17.5 -146.5t-21.5 -172.5q-30 -232 -34 -270q-40 -349 -43 -594zM41 156 q13 218 41 469q18 139 33 262q22 185 28 246q3 25 11 35q6 8 13 7q2 -1 4 -1q9 -2 24 -11q36 -22 79 -80q85 -118 85 -273v-18q-5 -166 -74.5 -334t-188.5 -319q-17 -24 -35 -24h-3q-17 3 -17 31v10z" />
<glyph unicode="e" horiz-adv-x="530" d="M-20 133q-1 -14 -1 -29q0 -29 3 -61q7 -50 30 -59q45 -19 125 -19h23q8 1 41 3.5t60.5 4.5t39.5 2t21.5 8.5t9.5 20.5q2 12 -5.5 20.5t-19.5 8.5q-36 0 -67 -2q-11 -1 -43 -3.5t-47 -3t-37 -0.5t-37 3q-30 5 -27 39q-1 -2 -2 -8q-3 -11 -4 -11q0 1 -1 4.5t-1 5.5 q-3 26 -3 53q0 13 1 27q6 176 55 473q4 28 13.5 34.5t33.5 6.5q52 0 72 2q12 0 20.5 9.5t10.5 21.5q0 12 -8.5 20t-20.5 7q-16 -2 -63 -2q-24 0 -32.5 8t-4.5 37q4 31 6 50.5t2.5 30t1.5 38t2 53.5q3 181 20 256q0 4 5 14q2 8 4 15t3 10t1 4q0 2 2 4h6q6 2 31 2q43 0 94 -2 q68 -2 143 -2q2 0 12 -0.5t13.5 0t10 3t11.5 7.5q7 5 11 20q0 12 -9.5 20.5t-21.5 6.5q-3 0 -21.5 0.5t-58 1.5t-82.5 2q-51 2 -98 2q-49 0 -66 -10q-31 -18 -49 -92q-17 -81 -20 -266q-1 -20 -2 -47.5t-1 -34.5t-1.5 -24.5t-4 -32t-6.5 -42.5q-2 -17 -10.5 -74.5 t-13.5 -95.5q-45 -301 -49 -438z" />
<glyph unicode="f" d="M-23 20q-1 -12 8 -20q7 -6 16 -6h5q12 0 21 9.5t8 21.5q3 202 67 610q2 15 5 23.5t10.5 12t11 4t18.5 1.5q77 5 84 6q12 0 21.5 9.5t11.5 21.5q0 12 -9.5 20t-21.5 6q-32 0 -59 -2h-12q-23 -3 -32 4.5t-5 34.5q2 11 4 33t4 31q14 82 31 319q0 20 12.5 31.5t32.5 9.5 q31 -2 110 -2q94 0 168 -4q11 -2 23 6q14 12 14 25q0 9 -6 17q-8 9 -20 9q-55 6 -174 6q-78 0 -170 5q-14 0 -19 -5q-17 -11 -22 -32q-2 -2 -2 -11q-3 -24 -17 -188q-4 -41 -9 -102.5t-7 -79.5q-9 -43 -66 -416q-35 -265 -35 -408z" />
<glyph unicode="g" horiz-adv-x="524" d="M-6 270q20 -178 84 -252q41 -46 89 -46q28 0 58 16q59 30 101 118.5t57 190.5q7 42 7 74q0 39 -11 61q-19 39 -76 45h-39l-31 -2q-12 0 -21 -8.5t-11 -20.5q-1 -12 6.5 -20t19.5 -8h33q10 1 18 1q40 0 48 -16q5 -12 5 -35q0 -29 -7 -75q-14 -84 -45 -154 q-49 -103 -102 -103q-30 0 -62 34q-47 47 -62 213q-7 78 -7 165q0 93 8 197q16 201 57 352q18 62 41.5 108t47.5 71.5t49 35t49 0.5t44 -34q24 -27 28 -64q1 -8 1 -16q0 -30 -13 -58q-9 -18 0 -31t25.5 -11.5t24.5 18.5q21 46 21 91q0 10 -1 19q-5 54 -39 93q-35 44 -86 51 q-8 1 -16 1q-45 0 -99 -30q-81 -54 -133 -233q-43 -149 -59 -360q-9 -111 -9 -210q0 -89 7 -168z" />
<glyph unicode="h" horiz-adv-x="585" d="M2 17q0 -10 7 -17q8 -8 20 -8t20 8t10 20q23 202 39 437q1 22 5.5 78.5t5.5 80.5q1 27 10.5 34t32.5 7h210q17 0 23.5 -1.5t11 -10.5t2.5 -29q-4 -43 -20 -157q-27 -207 -27 -335q0 -61 6 -104q0 -11 11 -17.5t24 -4.5q10 1 17.5 12.5t7.5 22.5q-6 43 -6 103 q0 124 26 323q5 64 31 233q6 56 15.5 128t11.5 89q1 7 3.5 30.5t4.5 39.5q3 17 6.5 44t5.5 36q3 31 3 59q0 50 -9 92q-5 17 -20.5 19.5t-28.5 -9.5t-10 -30q9 -37 9 -92q0 -18 -1 -39q-11 -69 -21 -150q-15 -124 -20 -153q-4 -25 -14.5 -33t-32.5 -8h-215q-23 0 -31.5 7 t-5.5 34q2 21 5.5 50t9 71.5t9.5 72.5q22 151 29 252q1 12 -8 20.5t-21 8.5q-12 -1 -20 -11t-8 -22q-4 -56 -29 -246q-9 -59 -14 -101t-9 -71.5t-7.5 -75l-5.5 -71.5t-7.5 -105.5t-9.5 -134.5z" />
<glyph unicode="i" horiz-adv-x="233" d="M4 -5q0 -9 7 -17q8 -8 20 -8.5t20 8t10 20.5q8 85 19 274q6 122 24 271q63 427 80 686v3q0 10 -6 17q-8 8 -20 8q-12 -2 -21.5 -11t-9.5 -21q-20 -288 -80 -678q-15 -88 -24 -277z" />
<glyph unicode="j" horiz-adv-x="614" d="M-68 352q0 -22 2 -51q0 -64 7 -119q3 -68 32 -116q36 -67 87 -80q13 -4 26 -4q37 0 74 30q71 59 112 187q43 133 80 456q35 299 35 478v28v5q0 37 41 40q20 1 58.5 2t56.5 2q12 0 21 9.5t11 21.5q0 12 -9 20q-8 7 -18 7h-3q-126 -6 -361 -6q-12 0 -21 -8.5t-11 -20.5 q0 -12 7 -20.5t19 -8.5h109q38 0 35 -39l-5 -227q0 -54 5 16q-4 -69 -23 -249q-39 -360 -82 -494q-35 -108 -92 -154q-22 -19 -45 -16q-29 7 -55 57q-3 7 -8.5 21.5t-8.5 21.5q-14 54 -14 105v59q0 7 -1 17t-1 14t0.5 10.5t0.5 10t-1 8.5t-3 9t-5 7q-9 6 -23 6 q-12 -1 -20.5 -12t-8.5 -23z" />
<glyph unicode="k" horiz-adv-x="540" d="M-33 23q0 -12 7.5 -20.5t19.5 -8.5t21.5 8.5t9.5 20.5q15 144 20 184q1 14 21 215q2 23 6 84q4 36 14 45.5t20 -1t19 -30.5q41 -111 61 -188q0 -1 4 -16.5t9 -30.5l12 -49l16 -48q9 -33 15 -49l16 -41q11 -34 18 -45q18 -44 37 -76q10 -13 24 -13h3q16 1 26 16t1 30 q-13 16 -19 35l-18 37q0 1 -6.5 15.5t-10.5 25.5l-14 41q-2 5 -7 21.5t-9 27.5l-13 43l-14 51q-12 42 -14 45q-54 194 -105 281q-16 29 2 55q60 97 86 143q141 240 242 349q9 11 9 21q0 5 -2 9q-6 16 -20 18t-28 -11q-108 -115 -240 -340q-7 -13 -19 -34t-15 -26 q-28 -45 -41 -29q-7 9 -7 36q0 14 2 32q6 62 14.5 127.5t18.5 136.5t15 107q3 12 -4 21.5t-19 11.5q-12 0 -23 -8.5t-12 -20.5q-31 -203 -49 -377q-25 -239 -43 -453q-32 -336 -37 -378z" />
<glyph unicode="l" horiz-adv-x="462" d="M-49 141q0 -35 0.5 -53t4 -42t11.5 -37t21 -19q37 -18 104 -18q17 0 37 1q43 3 72 3q39 0 53 -5h5q9 0 17 5q12 7 15 18q1 4 1 8q0 6 -4 14q-6 12 -16 13q-21 5 -82 5q-26 0 -59 -1q-13 -1 -27 -1q-28 0 -59 3q-27 5 -31 20q-4 9 -2 13q-2 14 -2 33t2 44q0 3 13 148 q15 121 28 293q7 74 19.5 195t15.5 153q13 135 37 291q3 12 -4 21t-19 11q-12 0 -22.5 -8t-11.5 -20q-20 -131 -39 -293q-14 -141 -33 -350q-12 -149 -29 -293z" />
<glyph unicode="m" horiz-adv-x="694" d="M-43 5q0 -10 7 -17q8 -8 20 -6q12 0 21 9t9 21q9 156 43 441q34 280 47 446q6 44 13 184q0 3 1 7.5t4 12t8 6.5t11 -13q7 -11 21 -43l47 -111l37 -92q19 -37 35 -107l14 -47q1 -3 1 -8t1 -6l2 -6l4 -4q1 -1 2 -3t2 -3q12 -9 24 -6t21 12l4 4l2 6q0 1 1.5 3t3 5t2.5 6 l18 45l61 144q11 29 31 74.5t25 58.5q19 47 47 82q6 7 6 4q-1 -4 -1 -13t-1 -14q-11 -160 -12 -170q0 -4 -3 -26t-6.5 -54t-7.5 -67q-16 -128 -16 -162q-6 -45 -12 -143q-15 -131 -17 -164q-12 -164 -12 -299q-1 -12 7 -20q7 -7 17 -7h3q12 0 21 9.5t9 21.5q0 5 2 64t4 92 l9 143q5 95 26 305l17 160l16 147q18 196 18 273q-2 14 -2 37q-1 3 -2 7.5t-2 6.5q-4 18 -22 22q-3 1 -7 1q-15 0 -30 -15q-10 -10 -12 -20q0 -1 -1.5 -3t-3 -5.5t-2.5 -6.5l-2 -4q-51 -81 -139 -297l-22 -55q-15 -34 -23 -42t-14 0t-17 40q-6 15 -20 53t-29 74 q-68 166 -110 221q0 1 -2.5 5t-5.5 9.5t-5 8.5q-23 29 -53 14q-11 -6 -18 -19v-6l-4 -12l-3 -27q-3 -31 -10 -184q-6 -65 -6 -88q-11 -166 -45 -440q-45 -332 -45 -450z" />
<glyph unicode="n" horiz-adv-x="548" d="M-55 12q1 -12 9 -18q7 -6 18 -6h3q12 1 19.5 10.5t7.5 21.5q1 36 1.5 65t2.5 60.5t3 50.5t4.5 52.5t4.5 47.5t6.5 55t7.5 55t9 68.5t10 74.5q23 154 35 264q4 41 20 137q1 1 19 92q8 -40 8 -47q1 -6 47 -344q22 -195 56 -344l36 -162l15 -75q1 -4 2.5 -8.5t3 -8.5t2.5 -6 l2 -10q0 -2 2 -4q1 -1 2 -3t2 -3q7 -7 16 -7q15 -3 33 15q4 8 8 14q0 1 4 13t5 20q10 51 14 86l16 162q8 77 27 280q28 402 80 613q1 4 1 8q0 7 -4 13q-6 10 -18 11h-5q-10 0 -18 -5q-10 -7 -13 -19q-54 -224 -84 -623q-10 -160 -23 -278l-4 -37l-4 -53q-3 -24 -19 19 q-13 35 -18 65l-2 4q-13 59 -31.5 176t-32.5 221t-26 194t-12 93q-9 50 -19 88l-22 110q-7 33 -29 41q-15 4 -29 -2q-12 -8 -17 -35.5t-9 -123.5q-1 -16 -21 -138q-4 -31 -18 -139q-9 -77 -33 -246q-32 -225 -41 -309q-11 -131 -11 -207q0 -22 1 -39z" />
<glyph unicode="o" horiz-adv-x="528" d="M-32 551q0 -110 8 -190.5t18 -141.5q24 -124 65 -184q29 -39 69 -47q9 -2 20 -1q32 0 69 21q73 45 121 174q74 209 104 682q8 96 8 164q0 76 -10 117q-18 77 -64 114q-32 26 -76 26q-20 0 -42 -5q-45 -10 -92 -45.5t-74 -77.5q-46 -75 -75 -181t-39 -210 q-10 -100 -10 -205v-10zM28 656q2 130 31 259t82 213q21 33 57 61t66 34q14 3 26 3q72 0 93 -102q13 -48 13 -129q0 -16 -1 -34q-37 -415 -53 -515q-24 -154 -63.5 -256.5t-90.5 -132.5q-20 -11 -36 -10h-8q-18 4 -35 27q-35 47 -56 162q-13 78 -20 184q-5 78 -6 170 q0 32 1 66z" />
<glyph unicode="p" horiz-adv-x="458" d="M-23 44q0 -9 5 -16q8 -8 20 -8t22 8.5t11 20.5q15 143 20 336l8 215q0 7 1 12t5 8t7 4t11 4t13 5t41 22l52 29q6 3 45 29q59 39 86 75q46 60 61 136q5 27 5 54q0 103 -77 193q-44 51 -112 71q-36 11 -74 11q-32 0 -66 -8q-11 -3 -20 -12q-14 -29 4 -41q0 -2 2 -2 q11 -37 11 -98.5t-11 -147.5q-4 -18 -19 -124.5t-18 -145.5q0 -4 -12 -285zM71 702l3 31q1 7 4 30.5t4 37.5q6 36 11 70t7.5 52t3.5 21q13 90 13 158q0 24 -2 45q-2 22 9 35q8 11 23 11q3 0 7 -1q51 -9 91.5 -42t61.5 -79q17 -39 21 -80q2 -11 2 -22q0 -31 -10 -65 q-12 -45 -44 -83q-26 -33 -69 -61q-46 -30 -84 -51q-14 -5 -25 -13q-24 -12 -26 -14z" />
<glyph unicode="q" horiz-adv-x="638" d="M31 387q2 -46 29 -138.5t61 -158.5q26 -47 56 -75.5t63 -36.5q8 -1 16 -1q25 0 51 16q35 22 68 75l4 5q10 5 33 -31q1 -2 2 -3l6 -8q9 -15 26 -11.5t24 18t-1 30.5l-37 55q-19 22 -8 55q51 135 88 372q33 218 33 375v25v4q-5 80 -33 161.5t-70 127.5q-41 48 -90 55h-14 q-42 0 -88 -34q-52 -40 -100 -125q-63 -111 -95 -337q-26 -181 -26 -338q0 -39 2 -77zM88 395q-1 34 -1 69q0 154 25 330q30 217 87 320q62 108 116 123q7 2 13 2q33 0 67 -37q43 -47 63.5 -113t28.5 -176v-2q0 -143 -29 -331t-69 -322q-1 -4 -3 -13.5t-3 -12.5l-3 -9 t-4.5 -6.5t-6.5 -1t-9 3t-12 10.5q-9 9 -29 25q-14 12 -30 4.5t-19 -22t9 -27.5q19 -15 47 -49q23 -23 10 -45q-2 -3 -6 -9.5t-6 -9.5q-35 -58 -67 -58q-4 0 -8 1q-36 8 -75 84q-32 58 -57.5 142.5t-28.5 129.5z" />
<glyph unicode="r" horiz-adv-x="563" d="M-20 37q0 47 6 108q13 129 28 213q7 61 17 99q61 418 67 729q0 4 -3 25.5t1 25.5q1 2 2 5t2 5q8 12 19 15q62 15 115 14q52 0 96 -14q90 -28 137 -103q35 -50 34 -116q0 -25 -4 -51q-17 -98 -94 -183q-90 -103 -215 -156l-4 -2q-3 -1 -3.5 -4.5t0.5 -6.5l1 -3 q37 -76 63.5 -153.5t76.5 -247.5q27 -97 59 -170q7 -17 -5 -31t-27.5 -13.5t-24.5 15.5q-35 84 -60 176q-99 355 -141 403q-5 5 -6 7q-14 -47 -15 -64q-3 -17 -8 -52t-8 -54q0 -13 -14 -99q-16 -100 -27 -207q-3 -31 -8 -106q0 -12 -8.5 -21.5t-20.5 -9.5h-4q-8 0 -16 6 q-8 8 -8 21zM123 743q-1 -7 -1 -13q0 -30 13 -30q7 0 15 2t12 4l4 1q24 9 29 12q95 45 162 123t79 153q3 20 3 38q0 52 -25 91q-28 50 -84 76q-46 21 -103 20q-13 0 -28 -1q-36 -3 -43 -45q-3 -182 -33 -431z" />
<glyph unicode="s" horiz-adv-x="583" d="M-29 330q-4 -34 -4 -65q0 -111 48 -189q61 -100 167 -111q9 -1 18 -1q96 0 164 78q74 84 74 228v10q0 122 -73 228q-10 14 -18.5 25.5t-14.5 19.5t-15.5 19.5t-13.5 16t-16.5 18t-16 17.5t-20.5 22t-23 24q-53 53 -75 79t-46 66q-31 52 -30 115q0 29 6 61q22 93 92.5 150 t149.5 57q78 -2 107 -62q13 -28 13 -68q0 -48 -18 -114q-3 -12 2.5 -22.5t15.5 -11.5q13 -2 24.5 4.5t14.5 17.5q23 71 23 128q0 56 -22 100q-46 86 -154 87q-101 0 -190 -72.5t-113 -185.5q-10 -43 -10 -82q0 -73 36 -135q20 -32 39.5 -57t33.5 -40.5t54 -57.5 q82 -79 135 -154q66 -93 66 -211q-1 -116 -55 -180q-50 -58 -118 -58q-6 0 -13 1q-81 6 -131 88q-39 64 -38 160q0 27 3 57q1 12 -6 20t-19 8t-22 -8t-11 -20z" />
<glyph unicode="t" horiz-adv-x="575" d="M27 1206q-1 -10 7 -18t21 -6q49 3 87 3q19 0 36 -1q41 0 41 -8v-11q1 -15 1 -34q0 -57 -11 -150q-3 -16 -12 -88q-1 -17 -33 -256q-50 -337 -50 -526q0 -32 1 -60q1 -13 9 -19q7 -6 18 -5h3q12 1 19.5 10.5t7.5 21.5q-1 20 0 43q0 183 49 531q25 187 33 260q2 10 12 84 q12 78 12 133q0 25 -2 45v29q86 -4 151 -4q43 0 77 2q12 0 21.5 9t9.5 21t-8.5 20t-20.5 7q-11 -1 -40 -1q-57 0 -181 3q-66 3 -118 3q-68 0 -110 -5q-12 0 -21 -9.5t-9 -23.5z" />
<glyph unicode="u" horiz-adv-x="491" d="M-37 68q9 -56 45 -82q30 -24 78 -24q16 0 36 4q74 12 116 57q71 78 98 206q15 77 22 172q3 49 7 76q1 15 32 258q26 233 25 256q4 40 4 111q-1 17 -1 35q0 35 3 73q2 12 -5.5 20.5t-19.5 8.5t-21 -8.5t-11 -20.5q-4 -58 -4 -112q0 -31 -1 -68t-1 -43q-3 -44 -27 -254 q-7 -59 -14.5 -118.5t-11.5 -92t-5 -45.5q-6 -48 -6 -80q-2 -19 -5.5 -47.5t-4.5 -38.5q-8 -83 -37 -151q-26 -65 -57 -97.5t-80 -39.5q-11 -1 -21 -2q-63 0 -76 63q-5 19 -4 50q0 48 11 124q27 153 45 485q19 329 51 478q3 12 -4.5 21t-18.5 11q-12 0 -22.5 -8t-11.5 -20 q-37 -176 -54 -486t-41 -477q-14 -78 -14 -132q0 -36 6 -62z" />
<glyph unicode="v" horiz-adv-x="552" d="M37 1221q0 29 26 36q4 1 8 1q16 0 25 -21q17 -129 17 -258q2 -51 2 -117q9 -114 41 -545q1 -16 4.5 -53.5t5.5 -54.5q10 -48 10 -51q7 22 78 342q30 144 84 354q45 176 113 352q14 27 38 21q11 -3 15 -13q3 -6 3 -14q0 -5 -1 -10q-66 -160 -111 -346l-43 -164 q-15 -64 -39 -184q-10 -44 -22.5 -99.5t-16.5 -70.5q-10 -43 -18.5 -84t-13.5 -63.5t-6 -28.5q-12 -47 -17 -58q-14 -41 -18 -49q-1 -1 -2 -3t-2 -3q-2 -7 -13 -14q-10 -10 -23 -10q-3 0 -7 1q-8 0 -19 11l2 2q-1 1 -2 4t-2 4l-4 8l-2 25l-14 73q-16 144 -17 164 q-39 521 -39 549l-4 117q-7 186 -16 250z" />
<glyph unicode="w" horiz-adv-x="831" d="M63 1038q3 -56 3 -82v-239q3 -461 14 -553q8 -99 10 -109q4 -28 4 -30q4 -10 4 -11q1 -1 2 -4t2 -4l7 -8q9 -6 18 -6q7 0 12 4q6 3 15 12q0 4 2 6t2 9q3 5 10 22q1 5 9 30t13 44l66 223q11 39 32 116.5t31 108.5q20 56 32.5 56.5t17.5 -56.5q18 -180 100 -452 q9 -35 25 -72l12 -20q13 -10 29 -7q8 3 13.5 8t11.5 14t7 11q1 6 5 17.5t6 17.5q2 11 5.5 41.5t6.5 50.5q6 62 12 160q30 477 184 864q1 5 1 9q-1 7 -3 14q-4 11 -14 14q-12 3 -23.5 -2.5t-15.5 -17.5q-156 -402 -186 -885q-2 -40 -15 -154q-2 -27 -16 4q-9 23 -20 66 q-62 237 -82 467q0 23 -6 65q0 7 -1.5 17t-1.5 12q-4 18 -6 20q-4 4 -19.5 8.5t-27.5 0.5q-25 -14 -33 -56q-31 -137 -118 -430l-21 -69q-20 -64 -32 -64t-15 66q-2 59 -2 133l-4 307v240q0 16 -4 86q-3 52 -3 92q0 51 5 82q3 12 -4 21t-19 11q-12 0 -22.5 -8t-11.5 -20 q-7 -36 -7 -92q0 -43 4 -99z" />
<glyph unicode="x" horiz-adv-x="638" d="M-88 39q-2 -7 -2 -12q0 -18 18 -23q29 -7 39 19t80 155q100 176 148 273q17 32 28 39.5t16.5 -3.5t8.5 -36l6 -37l14 -60q28 -130 51 -209.5t56 -140.5q10 -13 24 -13h3q16 1 25.5 15.5t0.5 30.5q-33 57 -54.5 132.5t-45.5 201.5q-20 104 -33 159l-16 60q-9 26 6 55 q200 415 305 563q8 10 8 19q0 10 -9 18t-19 8l-17 -7q-5 -3 -8 -9q-112 -153 -260 -465q-25 -50 -32 -49.5t-24 51.5q-25 72 -46 140.5t-33 118.5t-20 86t-13 62t-6 29q-5 17 -21 19.5t-29 -9.5t-10 -30q23 -95 86 -316l66 -231q9 -26 -6 -53l-111 -234q-6 -9 -34 -59 t-54 -94q-46 -75 -86 -164z" />
<glyph unicode="y" horiz-adv-x="593" d="M-20 35q-2 -7 -2 -12q0 -18 18 -23q6 -2 11 -2q19 0 28 20l180 451q17 41 88 207l103 227q1 2 15 32.5t25 55.5q51 119 95 178q9 11 9 21q0 5 -2 10q-7 15 -22.5 15.5t-29.5 -13.5q-52 -68 -105 -194q-11 -27 -24 -55t-13 -29q-9 -20 -27 -58t-26 -57q-7 -15 -12 -22.5 t-11.5 -10.5t-14 4.5t-15.5 26.5q-6 14 -60 156q-68 173 -94 258q-5 18 -21 19q-2 1 -3 1q-14 0 -25 -11q-12 -13 -6 -30q17 -71 92 -264q79 -202 96 -260q6 -20 -4 -43q-13 -31 -44 -107t-87.5 -216t-111.5 -275z" />
<glyph unicode="z" horiz-adv-x="591" d="M-55 0q3 -9 11.5 -14t17 -6.5t26.5 -3.5l27 -3q20 -1 44 -1q49 0 119 3q104 4 168 13q12 1 19.5 10.5t7.5 21.5t-8.5 19.5t-20.5 5.5q-64 -9 -171 -13q-44 -1 -77 -2q-47 0 -71 3l-10 2q-12 9 4 45l26 59l131 281q114 248 203 436q5 9 14.5 24.5t14.5 24.5q7 14 16 35 l56 100q31 68 43 97q11 35 11 57q0 17 -7 25q-3 3 -13 8q-2 2 -4 2h-67q-85 0 -138 2q-206 0 -225 8h-6q-10 0 -18 -4q-12 -6 -13 -16q-3 -13 2 -24.5t17 -12.5q46 -11 237 -11h138q32 0 32 -8q0 -6 -4 -10q-13 -43 -90 -190q-10 -17 -18.5 -32.5t-12 -22t-4.5 -7.5 q-78 -160 -217 -463l-131 -280l-41 -92l-4 -5q-16 -26 -16 -46q0 -8 2 -15z" />
<glyph unicode="{" horiz-adv-x="569" d="M-22.5 545q0.5 -18 18.5 -25q8 -4 18 -4q26 0 72 10q85 13 121 11q2 -2 5 -5.5t8 -14.5t-1 -19q-20 -33 -53 -66l-41 -45q-113 -136 -57 -260q32 -74 80 -102.5t149 -42.5q12 -2 23 5t14 19q2 12 -4.5 22t-18.5 11q-89 14 -126 36t-62 81q-30 75 4 135q6 10 12 19 t14 19.5t14 18t19 22.5t21 25q30 34 39 45q45 55 39 101t-64 53l-19 2q-17 7 27 33q42 24 39 67q0 13 -16 41q-14 17 -44.5 63.5t-33.5 55.5q-56 129 57 217q52 38 123.5 61t137.5 23q12 0 20 8.5t10 20.5t-5 20t-19 8q-78 0 -158 -24q-84 -26 -148 -77t-86 -118 q-11 -34 -12 -65t10 -62t26.5 -58t41.5 -65l27 -43q6 -6 10 -14v-2q-3 -6 -21 -18q-34 -24 -151 -72q-20 -8 -29 -12q-9 -3 -10 -4t-4 -3.5t-4 -3.5q-13 -10 -12.5 -28z" />
<glyph unicode="|" horiz-adv-x="270" d="M45 37q-1 -12 7 -20.5t20 -8.5t20 8.5t10 20.5q49 465 64 866q19 216 14 273q-1 10 -10 17t-20 5q-12 -1 -20.5 -12t-8.5 -23q3 -42 -4 -141q-11 -116 -11 -123q-12 -408 -61 -862z" />
<glyph unicode="}" horiz-adv-x="462" d="M-69 -6.5q0 15.5 14 29.5q84 56 152 119t105.5 128t18.5 107q-17 21 -76 67q-13 10 -28.5 24.5t-18.5 16.5q-26 30 -24 47q0 29 53 60q19 9 25 14q20 7 22 12q-91 3 -115 50q-9 21 11 51q0 2 8 10q5 10 20 31q17 25 62 86q130 186 127 252q-6 40 -64 49q-113 16 -180 -17 q-17 -8 -29 2.5t-9 27t20 24.5q60 28 132.5 29.5t127 -26t59.5 -77.5q4 -53 -31 -123t-108 -172q-68 -94 -70 -100l-8 -13q-2 -3 0 -8t11 -10t22 -6h20q31 0 56 2q70 6 77 8q33 3 47 -16q4 -12 -0.5 -24.5t-13.5 -18.5l-16 -11l-27 -10q-91 -34 -129 -55q-33 -20 -33 -23 q3 -2 17.5 -15t27.5 -23l52 -43q31 -34 34 -43q14 -35 12.5 -70t-23.5 -75t-51 -77.5t-70 -76.5t-80.5 -71t-82.5 -63q-17 -11 -31.5 -3t-14.5 23.5zM152 541l12 6z" />
<glyph unicode="~" horiz-adv-x="747" d="M-78 276q0 -12 7.5 -20t19.5 -8t21.5 8t9.5 20q3 25 24 66q21 40 52 72t59 41q27 9 45 -2.5t24 -36.5q12 -43 25 -56q54 -71 130.5 -72t148 48.5t133.5 130.5q13 16 6 31t-22.5 15.5t-29.5 -13.5q-54 -69 -111 -109t-112 -43t-94 49q-4 5 -16 41q-14 39 -35 56 q-51 32 -100 18.5t-95 -61.5q-35 -36 -60 -86t-30 -89z" />
<glyph unicode="&#xa1;" horiz-adv-x="186" d="M-102 -319q-2 -12 5 -20.5t19 -8.5t22 8.5t11 20.5q45 432 63 530q4 15 21 96q18 103 20 115q21 141 9 209q-1 11 -11.5 17.5t-21.5 4.5q-11 -1 -19 -12.5t-8 -22.5q4 -59 2 -98q-6 -82 -30 -205q-11 -62 -19 -100q-17 -99 -63 -534zM-3.5 831q2.5 -11 15.5 -18 q26 -10 47 2q5 2 15 16l18 33q2 3 6 21q1 17 -11.5 25.5t-27.5 0.5q-4 -2 -16 -10l-8 -10l-29 -33q-12 -16 -9.5 -27z" />
<glyph unicode="&#xa2;" horiz-adv-x="546" d="M-55 328q-18 -113 8.5 -197.5t83.5 -128.5q29 -20 18 -53q-9 -23 -17.5 -47.5t-18.5 -53t-15 -43.5q-3 -12 2.5 -22t16.5 -12q13 -2 24 4t14 18q26 81 48 135q11 33 49 33q90 0 211 74q17 11 16.5 28t-13 23.5t-30.5 -2.5q-85 -55 -154 -61q-32 -3 -36 10t8 35 q5 13 36.5 93t53.5 130l74 182q3 7 10 27q25 67 33 66q5 0 6 -19v-31q-6 -42 -4 -49q-1 -12 7.5 -20.5t20.5 -6.5q12 0 21 9.5t8 21.5l6 45q4 72 -18 113q-15 28 -6 55l43 102q4 31 -19 37q-25 7 -39 -20l-28 -76q-13 -33 -54 -27q-33 3 -63 -2q-62 -12 -119.5 -49 t-91.5 -86q-74 -103 -92 -235zM3 325.5q17 117.5 81 209.5q23 36 74 67q69 42 131 39q32 -1 34 -9.5t-12 -39.5l-116 -285q-12 -30 -29.5 -75.5t-31 -79.5t-25.5 -60q-9 -20 -16.5 -29.5t-15 -8.5t-12.5 5t-14 15q-19 30 -28 53q-37 81 -20 198.5z" />
<glyph unicode="&#xa3;" horiz-adv-x="831" d="M-90 502q1 -12 10.5 -17.5t22.5 -3.5q70 21 194 37q40 3 43 -18q4 -6 4 -23q12 -160 -114 -313l-45 -53q-16 -19 -33 -33q-21 -19 -33 -33q-24 -24 -27 -45q-2 -20 13 -29t35 2q14 11 26 31l47 49q127 82 201 29q3 -2 10.5 -6t20 -11t24.5 -14q85 -51 164 -59h12h43 q2 1 8 2t9 2l33 6l13 3q13 3 21 7q7 2 17.5 4.5t13.5 3.5q13 3 21 15q6 10 3.5 22.5t-12.5 18.5q-5 2 -11 2t-9.5 -0.5t-15.5 -4t-19 -5.5l-33 -9q-2 -1 -13 -3.5t-17 -4.5h-37q-23 -2 -41 2q-46 9 -117 49l-57 33q-55 25 -103 25q-23 -1 -27.5 7t7.5 30q94 148 80 292 q2 2 0 11.5t8.5 21.5t32.5 13q34 1 120 14q12 1 20.5 11t8.5 22t-9.5 19t-21.5 5q-6 -1 -27.5 -3t-54.5 -5.5t-69 -7.5q-33 -3 -49 22l-62 78q-20 20 -26 29q-45 52 -56 94q-14 48 15.5 136.5t79.5 144.5q46 50 88.5 70t76.5 11.5t60 -40.5q43 -48 54.5 -131t-15.5 -170 q-3 -13 1.5 -23.5t16.5 -11.5q13 -2 24.5 4.5t12.5 17.5q31 89 18 197q-14 101 -69 162.5t-133 54.5q-87 -7 -162 -87.5t-113 -199.5q-21 -58 -18 -108t20.5 -87t53.5 -77q32 -35 43 -51q11 -12 15.5 -18t6 -14.5t-9.5 -13.5t-35 -8q-82 -10 -156 -32q-25 -10 -22 -37z" />
<glyph unicode="&#xa4;" horiz-adv-x="616" d="M-43.5 291.5q-4.5 13.5 6.5 30.5q5 7 16.5 21.5t16.5 21.5q26 34 20 38q-39 40 -42 102t26 116q25 51 72 98l-23 -21q32 29 6 58l-39 41q-12 12 -5.5 28t21.5 20t29 -7l45 -50q23 -23 56 -6q51 19 76 21q86 6 149 -45q29 -25 37 -17q9 6 12 9q4 4 13 11t25 17t27 10 t21 -10q13 -26 -10 -41l-51 -35q-27 -26 -23 -30q13 -59 -3.5 -125.5t-55.5 -116.5q-4 -6 -7 -12.5t-4 -12.5t-1.5 -11t-0.5 -8l1 -3q4 -6 9.5 -15.5t8.5 -13.5l25 -26q12 -13 5 -29t-22 -19.5t-28 7.5l-25 26q-2 3 -6.5 8t-5.5 7q-8 8 -11 16q-9 16 -49 4q-60 -18 -125 -4 q-4 1 -19 4.5t-22 5.5q-33 9 -57 -18q-14 -16 -37 -47q-13 -16 -30 -13.5t-21.5 16zM37 557q-28 -125 125 -156q79 -16 132.5 20.5t76.5 110.5q20 61 10 121q-1 2 -2 6t-2 5q-1 2 -2 6t-2 6q-9 25 -34.5 43t-41.5 20q-16 3 -31 4t-22 1l-6 -1q-66 -6 -126.5 -63t-74.5 -123z " />
<glyph unicode="&#xa5;" horiz-adv-x="606" d="M-35 520q-2 -12 7 -19.5t22 -6.5q64 5 180 2q40 0 37 -41q-19 -173 -35 -435q-1 -12 8 -20t21 -6q12 0 20.5 9.5t7.5 21.5q21 289 33 426q9 41 47 38q31 0 73 -1t54 -1t22 8.5t11 20.5t-7 20.5t-20 8.5q-18 0 -120 4q-45 3 -33 43q6 40 18 78q3 21 11.5 28.5t35.5 6.5 q16 -1 33 -1t35.5 0.5t26.5 0.5q12 0 21.5 8t10.5 20t-6.5 20.5t-19.5 8.5h-72q-12 1 -16 1.5t-11 2t-8.5 4.5t-2 8.5t2.5 14.5q1 4 5 13t5 13q28 63 97 178q85 145 102 185q6 12 1.5 23t-15.5 16q-25 9 -41 -19q-30 -69 -96 -178q-84 -142 -103 -184q-5 -11 -10 -25 t-8 -24.5t-6.5 -19.5t-6.5 -12.5t-6 -0.5l-6 8q-57 104 -111.5 237.5t-64.5 202.5q-3 12 -13 18t-22 3q-24 -6 -24 -37q12 -61 51.5 -167.5t87.5 -205.5q19 -31 16.5 -40t-49.5 -9q-92 0 -129 -2q-12 0 -21.5 -9.5t-9.5 -21.5q-2 -12 7 -19.5t22 -6.5q77 3 191 0h9h10.5 t9.5 -1t10.5 -3.5t8 -6.5t6.5 -10.5t3 -15.5q-14 -48 -19 -80q-10 -40 -65 -37q-92 3 -174 -4q-12 0 -20.5 -9.5t-8.5 -21.5z" />
<glyph unicode="&#xa6;" horiz-adv-x="229" d="M-33 45q-2 -12 5.5 -20.5t19.5 -8.5t22 8.5t11 20.5q6 65 36 258q28 187 31 262q1 12 -6.5 20.5t-19.5 8.5q-12 -2 -21.5 -11.5t-9.5 -21.5q-7 -110 -31 -254q-33 -222 -37 -262zM66 776q-1 -12 6.5 -20t19.5 -8t20.5 8t10.5 20q17 142 59 400q2 12 -5 21.5t-19 10.5 q-12 0 -22 -8t-11 -20q-51 -338 -59 -404z" />
<glyph unicode="&#xa7;" horiz-adv-x="579" d="M-102 152q9 -104 75 -152q66 -50 157 -50t157 44q76 44 91 126t-54 161l-14.5 14.5t-4.5 10.5t4 14t19 18q96 89 121 143q36 77 1 131.5t-135 108.5q-25 17 -75 41q-42 19 -88 47q-14 7 -35 16l-35 15q-32 19 -41 37q-4 10 3.5 47t18.5 63q41 100 111 146t139 30 q67 -16 97.5 -85.5t3.5 -170.5q-3 -12 2.5 -22t17.5 -11q12 -2 23 5.5t12 19.5q33 121 -7 210t-130 110q-93 24 -183.5 -34.5t-140.5 -180.5q-10 -21 -20 -72q-14 -55 -1 -88t64 -58l66 -30q9 -3 1 -11l-36 -28q-79 -60 -98 -125q-15 -43 -15.5 -79t10 -63t35.5 -52 t54.5 -44t74.5 -41q14 -6 27 -11.5t24 -10t15 -6.5q71 -37 90 -68q27 -49 20 -102q-9 -42 -61.5 -74t-120.5 -33q-76 0 -126 40t-54 116q-1 10 -10.5 17t-20.5 5q-12 -1 -20 -11.5t-8 -22.5zM28 508q-3 34 11 70.5t54 72.5t102 62l90 -43q83 -45 108 -82t2 -86 q-36 -68 -153 -164q-4 -2 -33 12l-35 19q-95 45 -123 80q-20 25 -23 59z" />
<glyph unicode="&#xa8;" horiz-adv-x="456" d="M40.5 1106q7.5 -17 27.5 -23q27 -8 46.5 4.5t26.5 36.5q2 7 9 24t10 28q0 13 -5 18.5t-20 13.5q-27 3 -29.5 2t-15.5 -10q-23 -17 -47 -53q-10 -24 -2.5 -41zM312.5 1172.5q-2.5 -14.5 2 -26t7.5 -13.5l20 -23q10 -4 20.5 -4.5t19.5 5.5t11 17q3 9 7.5 20.5t7.5 20.5 q7 23 -2.5 33t-32.5 4l-43 -14q-15 -5 -17.5 -19.5z" />
<glyph unicode="&#xa9;" horiz-adv-x="737" d="M-4 322q12 -78 63 -158q49 -88 120 -138t143 -32q165 35 262 403q48 185 64 348t-7 267q-37 77 -151.5 143.5t-198.5 48.5q-93 -20 -163.5 -107t-111.5 -233q-75 -266 -20 -542zM55 338q-52 263 17 514q37 132 95.5 206.5t129.5 88.5q135 25 278 -152q19 -19 19 -47 q9 -171 -40.5 -417.5t-125.5 -376.5q-98 -165 -223 -72q-52 41 -95 115t-55 141zM118.5 577.5q-5.5 -95.5 22.5 -179.5t92 -103q46 -14 71.5 -4.5t49.5 55.5q19 40 37 92q6 28 12 37q4 32 -18 37q-25 7 -39 -20q-3 -14 -18 -58q-10 -37 -25 -63q-12 -24 -15 -25t-32 6 q-70 22 -76 162q-7 122 31.5 243t93.5 165q44 41 78 -11q40 -52 37 -112q-1 -12 8 -20.5t21 -6.5q12 0 20.5 9.5t7.5 21.5q6 79 -45 145q-29 43 -72.5 49.5t-91.5 -30.5q-68 -56 -118 -211q-26 -83 -31.5 -178.5z" />
<glyph unicode="&#xaa;" horiz-adv-x="569" d="M14 1016q-2 -13 4 -23.5t17 -11.5q11 -2 22.5 5t14.5 18q18 58 39 88q20 29 67.5 54.5t73.5 20.5q22 -3 31 -24q7 -20 12 -51q0 -9 -2 -16t-4.5 -11t-10.5 -9.5t-12 -8t-17 -8.5t-18 -9q-64 -36 -120 -107t-78 -141q-23 -71 1 -108.5t94.5 -30.5t174.5 64q6 2 10 6 q14 -24 37 -33q41 -18 105 10q17 8 18.5 24t-10.5 26.5t-29 2.5q-38 -16 -53 -10.5t-23 35.5q-13 43 -4 197q6 159 -18 206q-20 48 -67.5 54.5t-116.5 -29.5q-58 -31 -87.5 -71t-50.5 -109zM90 772q17 58 62.5 115.5t95.5 87.5q32 19 45 10q3 -3 2 -6v-18q-5 -97 -2 -164 q3 -34 -4 -37l-8 -4q-135 -73 -183 -56q-26 13 -8 72z" />
<glyph unicode="&#xab;" horiz-adv-x="632" d="M39 645q-11 -48 45 -141q34 -57 76 -117q19 -20 42.5 -1t6.5 42q-41 50 -72 109q-24 37 -33 65q-5 19 9 33l90 67q42 34 73 52q17 8 18 25.5t-11.5 25t-30.5 -1.5q-27 -14 -84 -58q-67 -53 -90 -61q-33 -13 -39 -39zM248.5 631q-21.5 -31 1.5 -88q14 -37 80 -148 q17 -23 42.5 -5.5t10.5 42.5q-69 108 -80 137q-10 29 2 41q5 5 72 49q103 64 155 107q15 13 12.5 29.5t-16 21t-28.5 -5.5q-37 -30 -150 -102q-80 -47 -101.5 -78z" />
<glyph unicode="&#xac;" horiz-adv-x="778" d="M-25 629q0 -12 8.5 -20t20.5 -7q25 2 135.5 11.5t188.5 15.5q54 3 118.5 8t77.5 6q9 0 22 1t17 1l8 1q8 0 15.5 0.5t15 -0.5t8.5 -3q4 -4 4 -6q4 -25 -8 -76l-10 -47q-6 -28 -10 -41q-2 -12 5 -22.5t19 -10.5q11 -2 21.5 6.5t13.5 20.5q1 4 3.5 18.5t4.5 24.5q6 28 13 45 q28 150 -33 147h-107l-196 -16q-80 -6 -193 -16t-131 -11q-12 0 -21.5 -9t-9.5 -21z" />
<glyph unicode="&#xad;" horiz-adv-x="667" d="M-12 539q0 -12 8.5 -19t21.5 -6q112 16 344 10q144 -4 160 -4q12 0 21.5 8.5t9.5 20.5q2 12 -5.5 20.5t-19.5 8.5q-7 0 -155 4q-233 9 -357 -11q-28 -3 -28 -32z" />
<glyph unicode="&#xae;" horiz-adv-x="747" d="M-36 476.5q15 -247.5 147 -402.5q38 -47 100 -74q53 -24 97.5 -25t87 35t83.5 113q89 178 156 493q21 131 14 243t-31 173l-10 37q-7 29 -45.5 70t-81.5 59q-46 17 -87.5 18.5t-78.5 -13t-69.5 -38.5t-65.5 -63.5t-60.5 -82t-60.5 -99.5q-110 -196 -95 -443.5zM28 630.5 q18 147.5 83 264.5q90 160 167 221t177 25q38 -19 41 -21q30 -15 59 -57q70 -212 23 -445q-27 -128 -68 -259t-84 -214q-53 -96 -90 -106q-35 -12 -89.5 12.5t-90.5 63.5q-78 91 -112 229.5t-16 286zM150 420q0 -12 9 -18.5t23 -4.5q12 1 19.5 12t5.5 23q-6 70 8 180 q0 15 14 9q23 -5 29 -7q4 0 6 -2h2q19 -12 39 -69q26 -51 45 -72.5t62 -44.5q16 -8 30 3t14 25.5t-14 24.5q-34 18 -47.5 33.5t-32.5 58.5l-22 45l-9 24q0 7 3 9q2 1 5 2t5 2q61 29 106 76t44 98q0 70 -42 100.5t-108 18.5q-51 -7 -103.5 -39t-82.5 -71q-19 -25 4 -41 q9 -3 6 -35q-6 -97 -12 -148q-15 -121 -6 -192zM221 680q8 65 8 125q0 27 23 43q47 33 96 41q43 6 60 -8q26 -16 24.5 -54t-33.5 -69q-61 -58 -133 -68q-43 -8 -45 -10z" />
<glyph unicode="&#xaf;" horiz-adv-x="450" d="M18 1176q-2 -12 5.5 -20.5t19.5 -8.5q182 0 326 -6q12 -1 21.5 6.5t12.5 19.5q2 12 -5 21.5t-19 9.5q-150 6 -330 6q-12 0 -21.5 -8t-9.5 -20z" />
<glyph unicode="&#xb0;" horiz-adv-x="491" d="M32.5 988q1.5 -66 28.5 -111q45 -74 124.5 -93.5t140.5 23.5q61 35 84 96.5t-2 138.5q-9 24 -17 48q-12 43 -43 80t-72 59q-28 18 -64 21t-73 -14t-61 -52q-13 -16 -19 -31q-9 -24 -18.5 -61.5t-8 -103.5zM94 1016l4 33l4 30q0 27 11 56q16 28 24 36q45 34 105 5.5 t86 -89.5q7 -18 11.5 -36.5t11 -59t-6.5 -77t-45 -58.5q-41 -25 -92 -9t-92 62q-28 32 -21 107z" />
<glyph unicode="&#xb1;" horiz-adv-x="485" d="M-127 -23q-3 -12 4 -21t19 -9q82 -8 192 -4q41 3 102 6q16 1 37.5 1.5t34.5 1t21 1.5q12 0 21 9.5t9 21.5t-8 19.5t-20 6.5q-12 0 -129 -6q-94 -4 -103 -4h-26q-4 1 -121 4q-11 2 -21.5 -6.5t-11.5 -20.5zM-59 653q0 -12 8 -19t20 -5q20 2 61 5t60 5q28 3 34.5 -4.5 t6.5 -34.5q1 -26 7 -71t7 -56q9 -24 37 -18q23 6 23 34q-9 49 -12 103q-3 30 3 37.5t40 7.5q35 0 70 -1l36 -1q12 0 20.5 8.5t10.5 20.5q1 12 -6 20t-19 8q-31 0 -49 2q-10 0 -35 1t-37 1q-27 0 -34 7t-5 32q4 76 11 133q1 12 -7 20.5t-20 8.5t-20.5 -8.5t-10.5 -20.5 q-3 -26 -6 -70t-4 -59q-3 -31 -10 -35q-7 -6 -35 -6q-45 0 -119 -12q-12 -1 -19 -11t-7 -22z" />
<glyph unicode="&#xb2;" horiz-adv-x="450" d="M6 1050q6 -11 17 -16q10 -4 21.5 2.5t16.5 18.5q13 30 40.5 59t54.5 41q24 9 34 2q17 -10 23 -55q6 -46 -96 -178l-74 -93q-12 -14 -27 -34q-15 -27 -6 -45q8 -24 66 -35q46 -4 92 -4l90 4q16 1 32.5 2t25 1.5t10.5 0.5q12 0 21 8.5t11 20.5q1 12 -6.5 20t-19.5 8 q-29 0 -66 -2q-78 -4 -94 -4q-43 0 -59 2q-7 1 -14.5 2t-11.5 1.5t-7 0.5h-8q2 3 8 10.5t8 10.5l74 92q58 77 85.5 129.5t22.5 93.5q-6 68 -43 93t-90 1q-38 -17 -75 -55.5t-56 -81.5q-6 -10 0 -21z" />
<glyph unicode="&#xb3;" horiz-adv-x="385" d="M4 1104q-7 -29 16 -35q27 -7 39 18q10 31 37 58.5t56 38.5q52 17 63 -51q15 -87 -121 -166q-12 0 -24 -6q-32 -14 -35 -37q-2 -12 6 -25q21 -21 55 -6l21 8q59 6 80 -6q80 -44 24 -100q-26 -32 -73.5 -55.5t-92.5 -28.5q-12 0 -21 -9.5t-9 -21.5q-1 -12 7.5 -20.5 t20.5 -6.5q59 4 117.5 33.5t95.5 71.5q42 51 29.5 108.5t-68.5 81.5q-2 0 -5 1t-8.5 4.5t-7.5 8.5t2 14.5t17 20.5q37 33 46.5 69t2.5 83q-12 62 -48.5 85t-88.5 5q-43 -17 -79.5 -54t-53.5 -81z" />
<glyph unicode="&#xb4;" horiz-adv-x="342" d="M60 1007q4 -16 17.5 -19.5t28.5 7.5l177 160q15 13 11.5 29t-17.5 19.5t-29 -7.5l-178 -160q-14 -13 -10 -29z" />
<glyph unicode="&#xb5;" horiz-adv-x="638" d="M-248 -276q-10 -29 15.5 -38.5t39.5 17.5q52 116 132 305q5 14 7.5 18.5t8.5 10t15 3.5t24 -9q150 -74 274 53l10 12.5t7 7t6.5 1.5t3 -9.5t2.5 -19.5q0 -28 12 -64q5 -18 21 -19.5t28.5 11t6.5 29.5q-12 53 -9 86q0 11 1 47t1 49v4q1 1 2.5 3.5t5 9.5t7.5 14 q37 78 84 209q66 187 80 215q9 17 -0.5 29.5t-26.5 10.5t-25 -20q-15 -27 -86 -221q-52 -153 -100 -244q-42 -75 -84.5 -113.5t-94 -46.5t-110.5 27q-28 17 -16 53l10 33q127 320 199 469q10 29 -16 38.5t-40 -17.5q-65 -143 -196 -473q-132 -331 -199 -471z" />
<glyph unicode="&#xb6;" horiz-adv-x="876" d="M20 780q21 -89 96 -133.5t154 -30.5q23 5 33.5 -2t7.5 -28l-67 -652q-2 -12 5 -20t19 -8t22 8t11 20l25 242l28 264q23 233 64 488q13 86 16 137q0 14 1.5 28.5t3.5 29t3 20.5q3 37 43 43q7 1 22 2t23 2q19 2 30 -8t11 -29q0 -11 -1 -35t-1 -37q-5 -54 -34 -223 q-17 -102 -19 -113q-24 -169 -47 -395q-25 -247 -49 -405q-2 -12 5 -21.5t19 -9.5q12 -1 21.5 7t11.5 20q20 132 51 407q10 100 45 393q3 12 9.5 48t11.5 61q9 70 18 117q15 130 17 184q3 44 43 41q50 -2 125 -10q27 -3 34 24q3 12 -2.5 22t-17.5 11q-254 37 -473 -22 q-97 -35 -166 -95q-78 -71 -123.5 -163t-28.5 -179z" />
<glyph unicode="&#xb7;" horiz-adv-x="256" d="M6 559q-2 -28 23 -39.5t65 4.5q23 9 29 15q20 14 17.5 45.5t-23.5 56.5q-13 15 -29 12q-22 -3 -29 -10l-2 -2l-10 -8q-18 -12 -29.5 -32.5t-11.5 -41.5z" />
<glyph unicode="&#xb8;" horiz-adv-x="440" d="M-84 -133q-3 -41 27 -41l34 4q21 3 44.5 6t27.5 4q56 5 96 2q30 -3 41 -22q10 -19 -6 -35q-23 -33 -80 -61l-18 -9l-25 -10q-27 -9 -22 -34q4 -20 23 -22q7 0 14 3l16 4l8 4l27 10q66 34 104 84q28 34 22.5 70.5t-46.5 60.5q-40 28 -154 13q-5 -1 -9.5 -1.5t-10.5 2.5 t14 19q6 6 13.5 14.5t9.5 10.5l10 10q13 15 7.5 30.5t-20 17.5t-28.5 -11l-12 -10l-23 -23l-25 -27q-6 -6 -14.5 -14t-13.5 -13t-8 -9q-3 -3 -8 -7.5t-7.5 -7t-4.5 -5.5t-3 -7z" />
<glyph unicode="&#xb9;" horiz-adv-x="415" d="M6 711q-3 -12 4 -21.5t19 -9.5q62 -4 258 -4q12 0 21 8.5t9 20.5q2 12 -5 20t-19 8h-72q-41 0 -41 8l2 15q0 59 29 194q26 131 29 205l2 10l2 17q0 20 -8 32q-16 13 -33 9q-2 0 -10 -4l-5 -5q-4 -2 -8 -6l-12 -12l-33 -39q-14 -16 -25.5 -30.5t-19.5 -26t-10 -13.5 q-12 -19 -2 -32.5t28 -10.5q6 1 12 5.5t8.5 7t9 11.5t7.5 11q11 17 23 29l14 16q-2 -44 -28 -168q-29 -147 -27 -204v-1q0 -1 -0.5 -2.5t-2 -3t-4.5 -3.5t-7 -3.5t-11 -2.5t-16 -1q-31 0 -45 2q-12 1 -21.5 -6.5t-11.5 -19.5z" />
<glyph unicode="&#xba;" horiz-adv-x="538" d="M-6 897q-8 -70 23 -131.5t94 -89.5q106 -45 198 9.5t135 170.5q29 70 23 146t-41 135q-2 3 -6 10t-5.5 9.5t-5 7.5t-5.5 7l-6 6t-7 6.5t-8 5t-10 5.5q-87 46 -195 -10q-44 -21 -78.5 -56.5t-55.5 -76.5t-33 -79t-17 -75zM55 844q-15 85 31 166q40 84 90.5 110t136.5 17 q69 -20 90 -97.5t-14 -167.5q-35 -94 -103 -135.5t-145 -7.5q-71 30 -86 115z" />
<glyph unicode="&#xbb;" horiz-adv-x="749" d="M22 366.5q5 -15.5 20 -17.5t30 11q15 15 118 111q72 63 93 98q43 70 -11 109q-43 37 -172 61q-12 2 -23 -5t-14 -17q-3 -12 3 -23t16 -12q118 -24 149 -49q17 -14 2 -37q-15 -24 -79 -82q-98 -89 -123 -117q-14 -15 -9 -30.5zM251 792.5q-3 -12.5 3 -22.5q1 -3 2.5 -5 t3.5 -3.5t4 -2.5t6 -2t7.5 -1.5l10.5 -1.5t13 -2q8 -2 28.5 -7t35.5 -8q15 -4 67 -14q2 0 96 -25l19 -6l14 -6v-6q-2 -6 -18 -35q-35 -57 -181 -207q-66 -63 -69 -69q-13 -15 -7.5 -30.5t20 -17.5t28.5 11l69 69q147 151 191 217q40 67 20 105q-3 5 -28 20q-3 1 -14.5 5 t-20.5 6q-31 10 -100 26q-20 3 -68 15l-64 12q-28 7 -30 8q-12 3 -23 -4q-12 -6 -15 -18.5z" />
<glyph unicode="&#xbc;" horiz-adv-x="722" d="M-73.5 16q8.5 -13 23 -12.5t27.5 16.5l472 760q1 1 65 113q83 151 148 223q14 16 8.5 31.5t-20.5 17t-29 -11.5q-68 -78 -158 -238q-5 -9 -64 -106l-471 -764q-10 -16 -1.5 -29zM76 784q0 -12 9 -19t21 -5q3 0 19 2.5t36.5 5t43.5 6.5q34 5 94 10q12 0 21.5 9.5 t11.5 21.5q0 12 -9 20t-22 7h-20q-42 -2 -41 2v10v24q1 25 2 80t2 119q2 12 -6.5 21.5t-20.5 9.5q-33 0 -47 -14l-74 -82q-13 -15 -7.5 -30.5t20 -17.5t28.5 11q15 16 24 21.5t15.5 -4.5t5.5 -42q-2 -33 -2 -80q0 -26 2 -39q-21 -3 -46 -8t-32 -6q-12 0 -20 -10.5t-8 -22.5z M225 291q-8 -22 15 -37l18 -6q10 -2 35 -2q33 -3 90 0q37 0 31 -43q-6 -30 -17 -107q-1 -12 7 -20t20 -8t20.5 8t10.5 20q4 31 18 115q6 38 37 41q21 0 27 2q12 0 21 10t11 23q0 10 -9.5 18t-20.5 6h-4h-2q-11 0 -17 1t-12.5 11t-3.5 29q6 28 10 80q4 14 6 39q9 56 -16 53 q-20 -3 -70 -49q-31 -28 -91 -74t-75 -61q-7 -6 -16 -16l-10 -11q-8 -12 -9 -14q-4 -4 -4 -8zM326 316q0 6 12 18q6 4 18.5 13.5t18.5 14.5l20 15q8 6 11 8.5t9.5 7t9 5t7.5 2t6 -2t3 -8t1.5 -14t-2.5 -21.5v-10q-6 -39 -30 -39l-23 -2h-8q-53 0 -53 13z" />
<glyph unicode="&#xbd;" horiz-adv-x="804" d="M-74.5 6.5q8.5 -13.5 23.5 -13.5t28 15q26 43 97 135q23 31 38.5 52.5t25 34.5t23.5 37.5t19.5 33.5t28 51t33.5 62l82 139q15 30 71.5 123t83.5 131l80 115q82 121 191 237q13 15 7.5 30.5t-20 17.5t-28.5 -11q-117 -124 -199 -242l-80 -118q-29 -42 -86 -136l-72 -122 q-8 -13 -79 -140q-11 -19 -27.5 -49t-22.5 -40.5t-16.5 -29t-16 -27t-14.5 -22.5t-19 -27t-21.5 -28.5t-28.5 -38.5q-73 -94 -101 -139q-9 -17 -0.5 -30.5zM129 829q-3 -12 4 -21t19 -9q58 -4 163 -4q12 0 21.5 8t9.5 20q2 12 -5 20.5t-19 8.5h-29q-32 0 -29 41l-4 -33 q0 22 6 117q6 65 2 119q2 6 -2 14q-12 19 -41 23q-9 0 -20 -7l-41 -26q-17 -11 -17.5 -28t13 -23.5t30.5 2.5q5 2 9.5 0t7.5 -11t2 -22q0 -29 -2 -45q-1 -24 -2 -52t-1.5 -43t-0.5 -22q0 -2 -21 -2q-3 0 -10 1t-10 1q-12 1 -21.5 -7t-11.5 -20zM249.5 118.5 q-5.5 -14.5 2.5 -28.5q12 -18 59 -22q18 -2 76 -2q123 6 129 6q12 0 21.5 8t9.5 20q2 12 -5.5 20.5t-19.5 8.5q-22 0 -53 -2t-76 -2q-13 0 -15 6.5t9 15.5q17 17 25 27q62 67 98.5 146.5t5.5 128.5q-28 41 -70 32q-30 -4 -60 -33t-81 -100q-11 -17 -2 -31t24.5 -13.5 t28.5 15.5q43 69 64 87q19 17 28 18.5t15 -12.5q18 -24 -17 -95q-66 -123 -151 -163l-12 -7l-15 -6q-13 -8 -18.5 -22.5z" />
<glyph unicode="&#xbe;" horiz-adv-x="757" d="M-102 8q56 121 142.5 258t223.5 332q86 122 174 256q34 53 78 109q58 80 89 131t50 102q5 11 16 17.5t23 3.5q9 -3 14.5 -14t2.5 -23q-36 -101 -150 -252q-28 -38 -72 -103l-180 -260q-134 -188 -218.5 -322.5t-141.5 -254.5q-7 -17 -23 -19.5t-26 9.5t-2 30zM41 795 q-6 16 5 28.5t27 12t23 -16.5q11 -26 27 -35t30.5 -3t26 17.5t17.5 24.5q11 22 4 56q-3 23 -2 24h-4l-5 -2h-20q-23 4 -27 27.5t15 36.5q6 6 18 12q4 0 12 4q35 35 41 74q5 39 -24 35q-15 -2 -28.5 -18.5t-16.5 -43.5q-2 -12 -10.5 -20.5t-20.5 -8.5t-20 8.5t-7 20.5 q4 48 33 81.5t68 39.5q41 6 66 -21t18 -73q-3 -37 -31 -76q-16 -26 -2 -57q22 -69 -6 -119q-22 -45 -62 -67t-80 -9q-43 14 -65 68zM186.5 232q-1.5 17 9 34.5t31.5 34.5q11 9 47.5 40t49 41t37 29t40.5 28.5t31 15.5q21 9 23 -23q1 -13 -4 -67q-1 -8 -1 -26.5t-1 -27.5 q-3 -47 2 -47q14 2 26 2q12 1 20.5 -6.5t10.5 -19.5q-4 -17 -12 -21q-5 -6 -37 -14q-28 -6 -35 -39l-2 -12q-10 -42 -14 -80q-2 -12 -10.5 -20.5t-20.5 -8.5t-20 8.5t-7 20.5t5.5 40.5t6.5 45.5q4 17 -5 24.5t-31 5.5q-87 -7 -119 13q-19 12 -20.5 29zM258 252l74 -2h6h4 q4 0 12 0.5t10.5 1t7.5 2.5t7 6.5t4.5 12.5t3.5 20v4q4 38 -11 40.5t-36 -18.5q-13 -11 -42 -34t-36 -29z" />
<glyph unicode="&#xbf;" horiz-adv-x="485" d="M-74 -59q-6 -68 23.5 -133t81.5 -101q51 -40 123 -23.5t133 89.5q12 15 5.5 29.5t-22 15.5t-30.5 -13q-85 -107 -172 -47q-38 26 -61.5 78t-22.5 109q12 205 92 235q23 8 76 13q63 10 84 40q13 18 20 78q7 48 13.5 149.5t6.5 166.5q1 12 -6.5 20t-19.5 8 q-12 -2 -21.5 -11t-9.5 -21q-4 -181 -22 -310q-4 -31 -7 -39q0 -6 -2 -10q-9 -9 -38 -12q-75 -10 -89 -16q-123 -47 -135 -295zM210 865q12 -20 42 -25q22 -1 48 12t42 27q27 17 18 39q-1 5 -3 8.5t-6.5 6t-6.5 3t-9 2.5t-9 2l-9 4q-1 0 -5.5 2t-7.5 3t-9.5 2t-11.5 1.5 t-12 -0.5t-13 -3t-13 -6.5t-14 -10.5l-12 -17q-21 -30 -9 -50z" />
<glyph unicode="&#xc0;" horiz-adv-x="555" d="M-63 39q-3 -12 4.5 -21.5t19.5 -9.5q12 -1 21.5 7t11.5 20l65 307q64 307 66 317q0 5 35 13q42 13 145 28q21 3 31.5 -6.5t7.5 -29.5q0 -3 -4 -69.5t-6 -117.5q-21 -294 -6 -463q0 -12 9.5 -18t22.5 -4q12 1 19.5 12t7.5 23q-16 140 6 452q24 328 21 463q-6 109 -15 170 q-9 69 -24.5 109t-48.5 51q-51 22 -92 -8t-68 -95q-30 -77 -45 -174q-31 -234 -121 -655q-18 -85 -63 -301zM145 774q19 112 33 221q11 77 41 156q21 44 41 61q15 15 34.5 7t29.5 -37q6 -16 18 -84q14 -84 14 -293q-3 -39 -53 -45q-57 -8 -119 -23q-22 -5 -32.5 4.5 t-6.5 32.5zM234 1489.5q-3 -14.5 10 -27.5q23 -20 57 -51l57 -51q15 -12 31 -4.5t19 22t-9 27.5l-57 51q-51 47 -59 53q-14 11 -30 3t-19 -22.5z" />
<glyph unicode="&#xc1;" horiz-adv-x="632" d="M-53 39q-3 -12 4.5 -21.5t19.5 -9.5q12 -1 21.5 7t11.5 20q17 71 55 241q42 176 56 261q1 6 10 69q8 35 45 43q11 2 49 10q118 23 176 23q7 0 4 -41l2 27q-12 -239 -11.5 -403t20.5 -226q6 -22 30 -17q22 4 26 25q2 8 -1 16q-11 39 -14 123.5t0 193.5t12 290 q12 279 12 348q3 169 -20 201q-23 31 -55.5 34.5t-64 -14t-63.5 -51.5q-35 -36 -60 -71t-41.5 -73.5t-25 -64t-20.5 -70.5q-10 -33 -17 -65.5t-10.5 -52t-10.5 -64.5t-11 -70q-6 -41 -19 -116q-20 -103 -55 -260q-38 -161 -55 -242zM150 750q25 159 69 266q31 67 94 133 q33 33 60 43q20 6 29 -7t12 -55q5 -35 2 -116q0 -40 -8 -232q0 -43 -46 -43h39q-77 0 -182 -22l-37 -6q-20 -4 -28.5 6.5t-3.5 32.5zM251 1354.5q-2 -9.5 2 -16.5t10.5 -12t16.5 -4t19 9q110 93 156 123q17 11 16.5 28t-13.5 23.5t-32 -2.5q-63 -42 -164 -131 q-9 -8 -11 -17.5z" />
<glyph unicode="&#xc2;" horiz-adv-x="643" d="M-66 33q-3 -12 4 -21.5t19 -9.5q12 -2 23 6.5t12 20.5q15 105 47 221l51 223q7 28 23 109q6 37 41 43q60 10 196 26q15 2 24 1.5t13.5 -3t3.5 -6.5q0 -10 -2 -16l-2 -31q-28 -229 -23 -366t58 -216q9 -15 25.5 -11.5t24 17.5t-0.5 31q-44 69 -48 200t23 343 q16 147 22 213t8.5 147.5t-8 128t-32.5 86.5q-40 74 -92.5 81t-101.5 -48q-60 -67 -95 -173t-67 -288q-15 -93 -22 -134.5t-16.5 -88t-13 -61.5t-19.5 -80.5t-29 -118.5q-41 -189 -46 -225zM139 727v10q33 184 63.5 277.5t82.5 150.5q25 32 48 27.5t52 -55.5 q29 -56 32 -164.5t-11 -216.5q-3 -41 -46 -41h37q-132 -14 -221 -27q-23 -3 -32.5 7t-4.5 32zM181.5 1329q5.5 -11 17.5 -16q9 -4 21 1.5t18 16.5q30 73 49 105q2 2 4.5 5.5t8.5 10t10 11t5 3.5t3.5 -3t3.5 -3q23 -27 51 -84q9 -23 34 -13q22 9 21 29q0 7 -4 13 q-34 76 -64 106.5t-69 12.5q-20 -9 -38.5 -34t-30 -49t-40.5 -89q-6 -12 -0.5 -23z" />
<glyph unicode="&#xc3;" horiz-adv-x="645" d="M-82 10q33 124 98 465q56 309 113 469q44 133 80 195q33 68 72 96q27 19 55.5 13t46.5 -36q25 -42 25 -114q3 -40 -7 -107q0 -8 -0.5 -23.5t-1.5 -45t-2 -52.5q-14 -219 -14 -399q3 -378 82 -436q15 -11 10.5 -28t-19 -23.5t-30.5 2.5q-97 65 -100 479q1 25 1 78t1 82 q3 40 -43 34q-51 -11 -140 -14q-38 0 -47 -39q-4 -22 -13 -68t-13 -67q-64 -354 -99 -473q-3 -11 -13.5 -17.5t-20.5 -5.5q-12 1 -18 12t-3 23zM92 1260.5q-9 12.5 0 29.5q26 49 51.5 76.5t53 36t53 4.5t59.5 -18q34 -15 54.5 -16t45 18.5t54.5 68.5q11 16 28 16.5t24 -12 t-1 -28.5q-40 -65 -77.5 -94t-74 -27.5t-79.5 18.5q-26 12 -40.5 15t-32 -2t-32.5 -24t-35 -56q-9 -17 -25.5 -17.5t-25.5 12zM131 748q-6 -22 2.5 -33.5t28.5 -9.5q2 0 66.5 11t66.5 11q37 0 37 37q3 34 5.5 81t4 89.5t2.5 52.5q-1 5 2 51q10 104 -14 138q-8 14 -15 14 q-4 0 -6 -2q-23 -16 -53 -72q-70 -145 -127 -368z" />
<glyph unicode="&#xc4;" d="M-84 14q23 104 74 459q44 289 102 465q11 32 22.5 60.5t26 60.5t29.5 58t33 50.5t37.5 40.5t40 26t44.5 9.5t48 -12.5q60 -24 67 -148q5 -32 2 -88q0 -5 -1 -17.5t-1 -19.5q1 -6 1 -12t-0.5 -11t-0.5 -7q-7 -129 -10 -148q-1 -11 -3.5 -31.5t-7.5 -57.5t-9 -68 q-22 -147 -23 -160q-40 -286 8 -434q6 -18 -6 -31t-28.5 -12t-22.5 18q-50 161 -10 461q1 14 16 123q9 43 6 43h-235q-21 -1 -31.5 -10.5t-15.5 -30.5q-4 -34 -19 -119q-56 -380 -76 -465q-1 -12 -12.5 -19t-23.5 -5q-12 0 -18 10t-3 22zM96 731q-4 -20 5.5 -31.5 t29.5 -11.5h188q39 0 48 41q16 128 16 195q-3 9 0 30v35q0 113 -14 154q-9 27 -25 35q-50 23 -102 -53t-92 -199q-37 -108 -54 -195zM252 1438q2 12 10.5 20t20.5 8t20 -8q6 -6 6 -20q-2 -12 -10 -20.5t-20 -8.5t-20 8.5t-7 20.5zM399 1448q0 12 9.5 20.5t21.5 8.5t21 -9 q6 -9 6 -20q-1 -12 -11 -20.5t-22 -8.5t-19.5 8.5t-5.5 20.5z" />
<glyph unicode="&#xc5;" horiz-adv-x="610" d="M-72 61q-9 -17 0.5 -29.5t26.5 -10.5t25 20q42 79 67 229q13 88 16 95q7 34 25.5 115t28.5 128q9 35 43 43q23 8 65 17q11 1 107 12h8q21 2 31.5 -6.5t7.5 -28.5q0 -9 -4 -41q-11 -78 -13 -96q-30 -300 25 -469q6 -22 30 -17q22 4 26 25q2 8 -1 16q-48 151 -20 445 q4 47 14 115q8 70 15 127q9 130 6 231q-9 157 -20 200q-20 73 -79 91l-8 2q-38 9 -68.5 -3.5t-50 -35t-37 -67.5t-27 -81.5t-22.5 -95.5l-43 -196l-53 -230l-43 -192q-1 -7 -7.5 -40t-10.5 -61q-23 -126 -60 -211zM152 756l51 227q30 128 45 160q23 55 52 70t53 -10.5 t34 -82.5q6 -35 9.5 -116t-1.5 -218q-6 -42 -47 -45q-91 -13 -160 -24q-22 -5 -32 5.5t-4 33.5zM229 1485q0 -27 2 -33q0 -6 2 -8q15 -53 53 -75.5t76 -4.5q39 14 61.5 66t4.5 92q-21 42 -63.5 53t-81.5 -19q-3 -2 -9 -7.5t-10 -8.5q-4 -7 -13.5 -16t-12.5 -13 q-7 -14 -7 -16q0 -6 -2 -10zM299 1442q-12 24 0 51q14 32 47 25q20 -6 28 -24.5t-3 -45.5q-19 -45 -47 -27q-13 5 -25 21z" />
<glyph unicode="&#xc6;" horiz-adv-x="876" d="M-100 6q-3 -13 1.5 -23.5t16.5 -11.5q12 -2 23 4.5t14 18.5q29 105 33 127q23 91 35 123l20 65q12 34 49 37h162q40 0 37 -41q-2 -31 -6.5 -79.5t-5.5 -67.5q0 -3 -1 -7.5t-2 -11t-2 -12.5q-8 -33 -8 -43q-10 -63 -2 -86q10 -32 80 -43q74 -10 242 0q21 1 41.5 2t31 1.5 t13.5 0.5q12 0 22 8.5t11 20.5q0 12 -7.5 20t-19.5 8q-3 0 -13.5 -0.5t-31 -1.5t-41.5 -2l-123 -4q-71 0 -111 6q-22 3 -34 9q-3 0 -5 2q-4 19 15 98l2 35q5 45 20 219l15 182q0 40 43 43h207q12 0 21 8.5t11 20.5q0 12 -7 20t-19 8h-207q-40 0 -37 41q17 218 51 463 q6 39 10 39h7q41 3 108 0q196 -8 199 -8q12 0 22 8.5t11 20.5t-7 20t-20 8q-6 0 -17 0.5t-31.5 1.5t-39.5 2l-109 7q-154 3 -205 -19q-44 -21 -102 -162q-24 -65 -61 -174q-36 -107 -117 -323q-81 -218 -117 -328q-11 -36 -33 -127q-12 -57 -32 -123zM92 449l45 118 q58 149 117 328q39 116 61 168q16 42 41 90q2 -3 4 -9t5.5 -24.5t1.5 -36.5q-22 -154 -64 -637q-3 -43 -45 -43h-135q-22 0 -30.5 13t-0.5 33z" />
<glyph unicode="&#xc7;" horiz-adv-x="585" d="M-20 303q-26 164 32 447q2 12 8.5 43.5t8.5 40t7 33t7.5 33.5t8 29t9.5 32t10 31t12.5 36.5t14.5 38.5q78 198 201 223q69 12 119 -25.5t57 -109.5q2 -10 2 -33q-1 -7 -3 -20.5t-3 -20.5q-2 -6 -3 -12l-1.5 -9t-1.5 -5q0 -12 -9.5 -20.5t-21.5 -8.5t-19 8.5t-7 20.5 q1 2 1.5 8.5t2 17.5t4.5 23q2 13 3 22t0.5 13t-1.5 4q-6 49 -39 73.5t-76 15.5t-76 -50q-41 -46 -75.5 -127.5t-49.5 -151.5q-7 -25 -18.5 -81.5t-15.5 -76.5q-51 -295 -29 -426q9 -65 41.5 -139.5t71.5 -116.5q31 -31 59.5 -37.5t62 17t68.5 82.5q16 28 27 78q0 13 8 45 q9 39 10 47q3 11 14.5 17.5t24.5 4.5q10 -1 15.5 -11.5t2.5 -22.5q-7 -18 -10 -41l-4 -20q-4 -19 -6 -25q-12 -63 -33 -97q-69 -118 -147 -133q-6 -2 -13 -2q-11 0 -28 -28l-4 -7q-29 -43 22 -49q42 -3 64 -28q26 -29 2 -86q-13 -22 -31 -37l-16 -13l-13 -8q-13 -9 -88 -51 q-17 -8 -30.5 1.5t-12 26t18.5 25.5q21 11 40 21t29 15.5t13 6.5q11 8 19.5 16t11.5 12t3 5q11 19 6 26.5t-30 8.5q-2 1 -55 4q-50 0 -54 29q-1 6 4 26l2 3q3 4 5 5q4 12 16 31q1 3 5.5 10.5t6.5 10.5l2 4q22 32 -8 55q-3 3 -10.5 9.5t-11.5 10.5q-46 49 -82 131t-47 152z " />
<glyph unicode="&#xc8;" horiz-adv-x="479" d="M-41 76l4 30l8 80q8 64 19 131q53 378 69 687q-6 30 -6 90q0 41 2 55q4 35 15.5 51.5t35.5 24.5q12 5 41 12q42 9 129 14.5t136 -0.5q12 0 20 -9t6 -21q-3 -12 -14 -20t-23 -7q-62 4 -157 -4q-47 -3 -90 -10q-8 -1 -31 -9q-2 -2 -4 -2q-1 -3 -2 -9.5t-2 -10.5 q-1 -17 2 -98v-43q0 -13 -17 -258q-3 -22 7.5 -32t33.5 -7q34 8 74 18q18 7 28.5 -4.5t6.5 -27.5t-21 -21q-55 -18 -100 -25q-39 -5 -45 -45q-12 -119 -39 -293q-20 -169 -22 -202q1 -8 5.5 -16.5t8.5 -12.5l4 -4q28 -3 78 0q8 1 31 2t51.5 3t58.5 5q10 1 19.5 -6.5 t9.5 -18.5q0 -12 -9.5 -22t-21.5 -10q-175 -18 -229 -11q-47 3 -64 29q-4 8 -4 17q0 6 -2 10zM184 1468q-17 23 6.5 42t42.5 -1q6 -11 16.5 -22.5t25.5 -25.5t16 -15l39 -29l35 -31q14 -11 9.5 -27.5t-19.5 -22t-31 4.5q-2 1 -6 4.5t-12 10t-17 12.5l-37 33q-53 47 -68 67z " />
<glyph unicode="&#xc9;" horiz-adv-x="546" d="M-53 74q0 34 6 96q16 158 59 473q5 36 14.5 95.5t12.5 82.5q4 20 6 38.5t3.5 32t2.5 17.5q0 1 1 11.5t1 19.5q0 20 6 61q4 50 4 66l11 96l4 33v10v4l10 17l18 10q2 2 9 2h-13q9 0 25 1t25 1h16q18 -1 58 -2t61 -2q165 -4 196 -14q27 -10 17 -37q-9 -25 -39 -21 q-9 3 -64 6q-125 11 -225 11q-36 0 -39 -19l-10 -96q-4 -36 -4 -66q-1 -5 -8 -63l-2 -29q-9 -52 -23 -182q-4 -23 5 -34t30 -9q6 2 16 2q2 0 7 0.5t14.5 1.5t17.5 2q20 2 49 2q12 1 20.5 -6.5t8.5 -19.5t-9.5 -21.5t-21.5 -9.5q-69 -6 -88 -6q-13 0 -33 -4q-33 -3 -39 -41 q-48 -378 -51 -412q-8 -78 -8 -94q1 -5 1 -14.5t1 -12.5v-2q2 -2 4 -2q15 -4 31 -6q60 -7 209 -4q43 2 72 2q12 0 19.5 -8.5t6.5 -20.5t-11 -20t-22 -8q-28 0 -71 -2q-64 -3 -111 -3q-39 0 -106 5q-60 12 -74 30q-9 21 -6 62zM312 1380q-1 15 12 29q55 45 137 102 q16 12 31 4.5t15 -22t-15 -27.5q-84 -58 -134 -102q-16 -12 -30.5 -5.5t-15.5 21.5z" />
<glyph unicode="&#xca;" horiz-adv-x="532" d="M-53 55l2 11q-3 10 0 26q9 82 16 125q1 4 2 12.5t2 12.5l6 47q1 6 4.5 35.5t6.5 54.5q0 9 14 186q9 116 18 197q19 194 27 282q8 78 12 95l2 26l2 11q2 2 2 4q0 3 3 6q0 10 20 20q9 6 18 6q3 1 19.5 4.5t26.5 4.5q54 7 159.5 13.5t155.5 2.5q12 0 19 -9.5t5 -21.5 q-3 -12 -12.5 -19.5t-21.5 -6.5q-48 1 -154 -5t-149 -12q-21 -3 -33 -6q-2 -4 -2 -10q0 -4 -2.5 -15t-3.5 -20l-7 -68q-4 -32 -13.5 -125t-16.5 -157v-41q6 3 14 0q70 -12 139 -6q12 1 20.5 -7t10.5 -20q-2 -12 -11.5 -21.5t-21.5 -9.5q-60 -8 -135 2q-24 -10 -27 -43 q-30 -316 -30 -327l-2 -25q-2 -14 -6 -47q-6 -36 -15 -106q1 -9 7 -17.5t12 -13.5l6 -4q255 -10 289 -10q12 0 19 -8.5t5 -20.5t-10.5 -20.5t-20.5 -8.5q-154 0 -294 8q-7 1 -20.5 2t-18.5 2q-2 1 -5.5 2t-5.5 1.5t-4 1.5l-6 4q-16 10 -16 26zM113 1335q-9 13 0 31 q54 100 97 140.5t89 27.5q35 -9 78 -55l37 -37l47 -53q14 -12 8 -28t-21 -20t-28 7l-51 49q-55 61 -72 72q-10 6 -18 8q-16 6 -37 -15q-30 -30 -78 -121q-9 -17 -25.5 -18t-25.5 12z" />
<glyph unicode="&#xcb;" d="M-29 37q-12 35 0 158q11 175 62 534q5 48 10 91t8 69t4 31v141q-3 111 13 145q13 27 88 39q66 8 260 8q45 -2 80 -2q13 1 21.5 -6.5t8.5 -19.5q-2 -12 -11 -21.5t-21 -9.5q-12 -3 -84 0q-195 0 -252 -8q-4 -1 -14 -2t-13 -2l-16 -37v-78q0 -137 -2 -147q0 -6 -2.5 -25 t-8 -61.5t-10.5 -79.5q-3 -21 7.5 -31.5t31.5 -7.5q29 2 94 2q12 0 19.5 -8.5t7.5 -20.5q-1 -12 -11 -20.5t-22 -8.5q-57 0 -100 -6q-38 -3 -41 -43q-5 -44 -16.5 -133t-20 -158.5t-12.5 -123.5q-1 -16 -2 -48t-2 -45q2 -18 2 -39q2 0 4 -2q19 -7 30 -8q55 -9 211 -6 q45 2 72 2q12 0 19.5 -8.5t5.5 -20.5t-10.5 -20t-20.5 -8q-27 0 -72 -2q-159 -7 -221 6q-59 10 -74 41zM170 1432q2 12 10.5 20t20.5 8t20 -8q6 -9 6 -20q-2 -12 -11 -20.5t-21 -8.5t-19.5 8.5t-5.5 20.5zM346 1434q2 12 10.5 20t20.5 8t20 -8q6 -6 6 -20q-2 -12 -11 -20.5 t-21 -8.5t-19.5 8.5t-5.5 20.5z" />
<glyph unicode="&#xcc;" horiz-adv-x="411" d="M-82 45q-2 -12 5.5 -20.5t19.5 -8.5q76 0 137 -2q118 -4 135 -4q12 0 20.5 8.5t10.5 20.5t-5.5 20.5t-19.5 8.5h-63q-25 1 -32 11t-5 32q10 533 88 1048q2 14 3 18.5t5.5 11.5t13.5 9t25 2q53 0 80 -2q12 -1 22 7t13 20q2 12 -5.5 21t-19.5 9q-144 6 -276 0 q-12 0 -21.5 -9t-9.5 -21q-1 -12 8 -20.5t21 -6.5q14 2 45 2t36 -8.5t1 -34.5q-75 -499 -91 -1042v-6q0 -14 -1.5 -20.5t-11 -11t-30.5 -3.5q-12 1 -24 1t-24.5 -0.5t-18.5 -0.5q-12 0 -21.5 -8.5t-9.5 -20.5zM102.5 1503q-2.5 -15 10.5 -28q43 -36 51 -43q44 -41 53 -48 q14 -11 30 -3t19 23.5t-10 29.5q-7 4 -51 43q-50 43 -55 47q-14 11 -29.5 2.5t-18 -23.5z" />
<glyph unicode="&#xcd;" horiz-adv-x="432" d="M-27 18q1 12 12.5 19.5t22.5 5.5q48 -4 86 -6v47q-9 143 3.5 317.5t49.5 444.5l37 303q6 35 1 38q-8 2 -40 1h-4q-12 -1 -20 5.5t-10 18.5q0 12 8 22t20 11q117 15 205 6q12 0 20 -9t7 -21q-3 -12 -14 -20t-23 -7q-54 4 -70.5 2t-17.5 -20q-2 -17 -7 -56.5t-15 -119.5 t-19 -156q-37 -286 -48 -466t-1 -327q2 -4 -2 -8q0 -7 41 -10q7 -1 22 -2t21 -2q12 0 19 -9.5t5 -21.5q-3 -12 -13 -20t-22 -7q-35 3 -114 6q-75 3 -119 9q-12 0 -18 10t-3 22zM224 1384q-1 15 12 29q1 1 8 6.5t22 17t31 25.5q21 15 57 51q22 20 41.5 1.5t-0.5 -41.5 q-48 -42 -63 -54q-16 -13 -31.5 -26t-22 -18.5t-8.5 -6.5q-16 -12 -30.5 -5.5t-15.5 21.5z" />
<glyph unicode="&#xce;" horiz-adv-x="548" d="M-23 -10q-4 10 3.5 21t21.5 16q57 17 117 20v29q-2 101 26 305q3 29 7 60.5t6.5 50.5t3.5 30q11 97 33 324q17 204 24 284q1 13 0.5 22t-9.5 14t-28 5q-61 0 -86 -2q-12 -1 -20 7t-6 20q-1 12 7.5 21.5t20.5 9.5q64 3 172 0q159 -6 170 -6q12 0 19.5 -8.5t5.5 -20.5 q0 -12 -9.5 -20.5t-21.5 -8.5q-61 0 -110 2q-9 3 -16.5 0t-12.5 -1.5t-8.5 -3t-5 -4t-3 -5.5t-1.5 -7t-0.5 -8.5t-0.5 -9.5q-2 -16 -24 -280q-22 -227 -33 -324q-1 -14 -16 -145q-30 -208 -25 -318l2 -6q0 -4 39 -4q7 0 24 -1t27 -1q78 -4 82 -4q12 0 20 -8.5t7 -20.5 t-11 -20t-22 -8q-49 0 -84 2q-37 2 -88 2q-100 0 -162 -21q-12 -4 -22 2.5t-13 18.5zM169.5 1307.5q-7.5 12.5 0.5 29.5l57 99q28 43 60 43q22 0 53 -35q14 -15 27 -30t20 -23.5t10 -10.5q19 -20 -3 -42t-42 -3l-59 68l-10 12q-1 -1 -4 -4.5t-5 -5.5q-13 -22 -53 -92 q-9 -17 -26.5 -17.5t-25 12z" />
<glyph unicode="&#xcf;" horiz-adv-x="555" d="M-47 -23q0 -12 9.5 -19t21.5 -5q211 27 360 -2q13 -2 23.5 4t13.5 18q3 13 -2 23.5t-17 11.5q-91 17 -141 17q-30 0 -35 10.5t0 30.5q0 65 -2 143.5t-1 109t8 98.5t24 177q21 173 27 289q0 8 0.5 25t1.5 49.5t2 62.5q0 78 6 127v12t0.5 11t3 7.5t7 6t13 3t21.5 1.5h59 q12 0 22 8.5t11 20.5q0 12 -7.5 20t-19.5 8q-36 0 -69 2h-80q-85 0 -154 -14q-24 -3 -24 -35q0 -12 9.5 -18t23.5 -4q29 6 88 10q21 1 30 -3t8.5 -13t-1.5 -23q-11 -129 -11 -268q-7 -124 -26 -281q-47 -292 -35 -532q0 -18 -1.5 -25.5t-11 -13.5t-30.5 -7q-35 -2 -96 -10 q-12 -1 -20.5 -11t-8.5 -22zM115 1419q-1 -12 6.5 -20t19.5 -8t20.5 8t10.5 20q0 15 -6 21q-8 8 -19 8q-12 0 -21 -8.5t-11 -20.5zM309 1427q0 -12 7.5 -20t19.5 -8t21.5 8t9.5 20q2 10 -5 21q-8 8 -20 8t-22 -8.5t-11 -20.5z" />
<glyph unicode="&#xd0;" horiz-adv-x="700" d="M-57 635q0 -12 9.5 -18.5t22.5 -4.5q45 10 86 15q14 1 23 1.5t13.5 -8.5t2.5 -32q0 -18 -3.5 -47t-4.5 -37q-4 -52 -14 -119q-7 -46 -17 -131q-13 -145 -10 -250q3 -11 10 -18q15 -11 33 -2q11 5 22.5 21t20.5 22q105 74 205.5 182.5t173 233t82.5 223.5q11 108 -8 219 t-68 194q-61 104 -153.5 145t-214.5 5q-13 -3 -17 -15q-13 -18 -4 -30q2 -5 13 -17.5t10 -25.5l-13 -121q-10 -90 -18 -180q-5 -60 -12 -115q-2 -22 -10.5 -31t-34.5 -10q-66 -7 -99 -14q-26 -3 -26 -35zM111 139q14 153 24 232q3 34 8.5 77.5t6.5 55.5l8 84q1 4 1.5 14 t1.5 12.5t5.5 7.5t13.5 6.5t25 2.5q20 1 46 1.5t42 1t26 1.5q12 0 21.5 9.5t9.5 21.5t-8 19.5t-20 6.5l-109 -4h-4q-10 0 -14 0.5t-11 2.5t-7.5 6.5t-3.5 12.5t1 21q31 286 39 414q2 19 13 30t30 11q134 0 213 -139q45 -76 64 -180.5t8 -200.5q-11 -121 -124 -276.5 t-255 -272.5q-22 -17 -36.5 -10.5t-14.5 32.5z" />
<glyph unicode="&#xd1;" horiz-adv-x="636" d="M-51 61q2 14 6.5 48t12.5 93.5t16 116.5q66 462 75 644q6 151 -8 194q-7 16 4.5 29t26.5 12.5t24 -14.5l-6 14q4 -8 10 -16t10 -12l5 -5q49 -79 170 -334q18 -40 49 -104t43 -90q24 -47 34 -47q15 -1 21 63q7 126 7 303q3 139 10 236q1 12 11 20.5t22 8.5t19 -8.5 t5 -20.5q-11 -105 -8 -229q-2 -183 -5 -249t-16 -208q-29 -279 -18 -475q0 -11 -8.5 -21.5t-18.5 -11.5q-12 -1 -21 6t-11 19q-9 140 10 397q1 10 -2.5 21.5t-7.5 17.5l-4 6q-17 30 -166 338l-76 155q-37 76 -45 27l-2 -18q-13 -222 -74 -648q-35 -237 -37 -258 q0 -12 -9.5 -20t-21.5 -8t-19 8t-7 20zM94 1270q26 61 55 86.5t57.5 24t72.5 -20.5q43 -27 82 -19t90 64q13 15 29 11.5t20 -17.5t-8 -31q-44 -51 -87 -70.5t-77.5 -16t-79.5 23.5q-39 23 -55.5 15.5t-40.5 -67.5q-13 -25 -39 -18q-23 6 -19 35z" />
<glyph unicode="&#xd2;" horiz-adv-x="600" d="M-12 588q-16 -237 25 -409t137 -220q30 -17 60.5 -8t57.5 29t51.5 53.5t43 66t32.5 66.5q53 141 84.5 376t28.5 412q4 104 -10 168q-18 77 -64 122.5t-117 45.5q-45 0 -63 -5t-47 -30q-86 -67 -144.5 -252.5t-74.5 -414.5zM47 590q15 213 69 388.5t122 231.5q22 17 31 20 t42 3q99 0 129 -129q11 -42 11 -70l4 -88l-4 -149q-8 -158 -39 -332.5t-72 -282.5q-29 -76 -77.5 -132t-82.5 -38q-76 36 -111.5 196t-21.5 382zM248 1530q-18 -27 8 -41l57 -39q16 -11 35.5 -25.5t24.5 -17.5q15 -11 30.5 -1.5t17 25t-12.5 25.5l-58 43q-55 40 -61 43 q-23 15 -41 -12z" />
<glyph unicode="&#xd3;" horiz-adv-x="600" d="M-22.5 528q-3.5 -109 9.5 -213t55.5 -182t111.5 -110q40 -20 81.5 -20.5t79.5 26.5q82 69 150 428l9 54t10.5 66t9.5 64t10 77t7.5 75.5t6.5 87t2 86.5q-1 15 -2 46t-1 40t-2 29t-4 30t-6.5 24.5t-10.5 30.5q-31 83 -93 109.5t-153 -19.5q-185 -101 -248 -505 q-19 -115 -22.5 -224zM36.5 538q3.5 103 20.5 210q64 374 213 460q119 61 170 -67q20 -48 22 -176.5t-3 -137.5q-26 -218 -53 -364q-58 -330 -127 -393q-14 -10 -42 -8t-53 14q-57 27 -92.5 97.5t-47 166t-8 198.5zM234 1394q4 -16 18 -19.5t29 7.5q68 61 135 107 q16 11 14 27.5t-15.5 22t-31.5 -4.5q-68 -47 -139 -111q-14 -13 -10 -29z" />
<glyph unicode="&#xd4;" horiz-adv-x="665" d="M-10 596q-30 -213 4 -350q18 -63 54.5 -122t82.5 -95q56 -45 125.5 -38t130.5 72q55 56 102 246t68.5 353.5t22.5 234.5q10 87 -9 193q-12 73 -43 117.5t-71.5 57.5t-86.5 7.5t-88.5 -28t-76.5 -54.5q-63 -66 -92 -121q-6 -11 -17 -32.5t-16.5 -32t-13 -29.5t-13.5 -39 l-18 -66q-7 -22 -16 -70t-11 -67l-10 -75t-8 -62zM47 592q0 7 9 68t12 71q0 6 10 64q8 49 12 67q5 13 21 62q8 38 22 63q27 46 31 55q20 45 82 107t135 65q69 3 106 -62t39.5 -170.5t-12.5 -236.5q-16 -152 -34 -264t-53 -222.5t-81 -158.5q-88 -91 -176 -22q-41 29 -73 81 t-44 107q-34 125 -6 326zM206.5 1331.5q8.5 -13.5 23.5 -13.5t28 15q59 98 74 115q3 2 8 5t16.5 7.5t14.5 -0.5q1 -1 4 -3.5t5.5 -5t4.5 -5.5q15 -15 35 -33l51 -49q14 -12 30 -5t20 22t-7 28l-51 49q-5 5 -15.5 16t-15 15.5t-13.5 12.5t-14.5 11.5t-13.5 8t-15.5 6.5 t-15.5 2q-32 0 -57 -28t-81 -116l-15 -24q-9 -17 -0.5 -30.5z" />
<glyph unicode="&#xd5;" horiz-adv-x="708" d="M8 514q-5 -86 5 -162.5t36.5 -142.5t76 -111t118.5 -61q105 -22 159 12q103 66 162 357q34 165 56 385l1 17q0 17 0.5 42.5t1 53l1 55t0.5 42.5q-3 71 -25 127q-39 92 -103.5 124.5t-142.5 2.5q-63 -23 -123.5 -83.5t-101.5 -137.5q-103 -195 -121 -520zM66 518 q15 295 114 492q36 68 88 120t103 72q112 41 174 -102q12 -29 18 -72q4 -42 5.5 -106.5t-1.5 -90.5l-10 -98q-43 -358 -106 -524q-35 -87 -73 -110.5t-116 -4.5q-108 25 -157 142.5t-39 281.5zM177 1308.5q7 -12.5 24 -12t28 16.5q39 65 72 79.5t72 -3.5q39 -15 60.5 -20 t47 -3.5t47.5 18.5t47 50q12 16 5 30.5t-22.5 15t-29.5 -13.5q-28 -39 -52.5 -41.5t-78.5 19.5q-40 13 -74.5 11.5t-71 -30t-73.5 -88.5q-8 -16 -1 -28.5z" />
<glyph unicode="&#xd6;" horiz-adv-x="677" d="M-16 567q-20 -200 16.5 -348.5t132.5 -212.5q37 -25 83.5 -38t82.5 -3q142 42 227 402q27 114 45.5 243t18.5 195q8 236 -80 375q-44 64 -99 88.5t-117 0.5t-118 -100q-68 -96 -120.5 -261.5t-71.5 -340.5zM43 567q17 168 67 327t113 243q42 59 82 75t75.5 -1.5 t78.5 -65.5q67 -74 67 -416q-13 -172 -53 -338t-86 -256q-46 -97 -98 -112q-20 -6 -55 4t-64 28q-83 54 -114.5 189t-12.5 323zM293 1442q-1 -12 6.5 -20.5t19.5 -8.5t20.5 8.5t10.5 20.5q3 11 -6 20q-5 8 -18 8q-12 0 -22 -8t-11 -20zM428 1450q-2 -12 5.5 -20.5t19.5 -8.5 t21 8.5t11 20.5q0 11 -6 20q-9 9 -20 9q-12 0 -21.5 -8.5t-9.5 -20.5z" />
<glyph unicode="&#xd7;" horiz-adv-x="555" d="M48 439.5q6 -15.5 20.5 -17t27.5 11.5l111 127q16 17 21 22.5t12.5 5.5t11 -5.5t14.5 -22.5q50 -80 113 -143q20 -19 42 3t3 42q-48 48 -139 178q-3 6 20 35l98 110q19 25 -3 42.5t-44 -5.5l-77 -94q-22 -26 -30 -26.5t-22 17.5q-4 4 -6 7q-64 67 -90 90q-15 12 -31 4.5 t-19 -22t9 -27.5q22 -18 94 -98q21 -29 -4 -60l-125 -143q-13 -16 -7 -31.5z" />
<glyph unicode="&#xd8;" horiz-adv-x="661" d="M-24 401.5q0 -141.5 28 -223.5q28 -79 74 -131.5t104 -69.5q67 -17 130.5 21.5t115.5 130.5q63 108 107 403.5t26 440.5l-6 51q-16 73 -41.5 113t-75.5 88q-54 49 -118.5 44.5t-124.5 -69.5q-126 -135 -191 -502q-28 -155 -28 -296.5zM37 451q13 162 26 243 q26 156 72.5 282.5t100.5 186.5q44 47 83 47q37 1 75 -31t63 -85q22 -46 27 -76t5 -113q0 -7 -6 -17.5t-16.5 -23.5t-20 -24t-22.5 -25t-18 -20l-80 -99q-30 -38 -37.5 -47t-28.5 -33.5t-42 -45.5l-62 -62q-9 -10 -33 -34.5t-35 -37.5q-37 -43 -45.5 -41t-5.5 56zM47 262 q-6 29 10 53q47 63 156 172q86 86 156 175q56 70 90 106q21 25 39 24t14 -42q-17 -166 -52.5 -340t-82.5 -256q-79 -144 -174 -119q-43 9 -80 55q-59 67 -76 172z" />
<glyph unicode="&#xd9;" horiz-adv-x="552" d="M23.5 743.5q-24.5 -362.5 1.5 -495.5q8 -37 33.5 -88t56.5 -88q106 -118 202 -27q43 45 80 217q26 144 49 348q1 10 13 142.5t18 218.5q10 146 21 243q0 12 -7.5 20.5t-19.5 8.5t-21.5 -8.5t-9.5 -20.5q-8 -73 -20 -243q-6 -86 -18 -218.5t-13 -142.5q-24 -215 -51 -342 q-13 -69 -31 -123q-13 -41 -31 -59q-49 -47 -114 27q-28 30 -50.5 76t-27.5 75q-13 107 -9.5 288.5t26 382t51.5 267.5q6 10 0.5 21t-15.5 16q-12 4 -23.5 -2t-17.5 -18q-48 -113 -72.5 -475.5zM228 1453.5q-6 -14.5 3 -30.5q1 -1 5 -6.5t14 -18t22 -26.5q9 -15 47 -53 q12 -12 28 -5.5t20.5 21.5t-7.5 29q-2 2 -38 47q-11 12 -22.5 25.5t-16.5 19.5t-7 8q-10 13 -26 8.5t-22 -19z" />
<glyph unicode="&#xda;" horiz-adv-x="544" d="M0 227q18 -90 53 -153q30 -51 70.5 -71.5t80.5 -10.5t77.5 49.5t62.5 101.5q19 47 43.5 148.5t32.5 179.5q15 118 26 285q1 22 3 62t3 52t3 39.5t4 47.5t6 51t10 73q18 155 19 162q1 12 -7 20.5t-20 8.5t-20.5 -8.5t-10.5 -20.5q-1 -11 -3.5 -32t-7.5 -58.5t-9 -71.5 q-5 -37 -9 -62.5t-7 -52t-4 -38t-3 -39t-2 -36t-1.5 -47t-2.5 -54.5q-8 -148 -8 -154q-15 -146 -43 -270q-37 -148 -62.5 -206.5t-74.5 -70.5q-50 -13 -87 44t-53 149q-18 83 4 351.5t48 440.5q18 102 20 111q13 47 19 57q9 17 0 30t-26 12.5t-26 -17.5q-22 -43 -45 -189 q-27 -170 -49 -445.5t-4 -367.5zM234.5 1332q6.5 -15 21.5 -16t29 13q46 58 161 144q16 12 14 28.5t-15.5 21.5t-30.5 -5q-118 -87 -174 -156q-12 -15 -5.5 -30z" />
<glyph unicode="&#xdb;" horiz-adv-x="557" d="M29 563q-10 -155 14 -321q5 -32 11 -59.5t15 -58t20.5 -53.5t27.5 -44.5t35.5 -31t44 -14t53.5 6.5q39 16 67 59q30 49 60 174q4 32 12 64q27 131 35 182q9 64 51 418q15 89 23 166q11 103 6 161q0 12 -8.5 19.5t-20.5 5.5q-12 -1 -20.5 -11t-8.5 -22q0 -75 -8 -153 q-8 -76 -10 -86q-10 -65 -10 -80q-7 -30 -23 -180q-28 -250 -57 -388q-8 -36 -8 -38q-4 -12 -4 -17q-2 -7 -9 -35q-19 -104 -51 -153q-16 -26 -30 -29q-50 -17 -84.5 45.5t-51.5 167.5q-20 138 -12 309q7 140 29 316q5 48 9.5 97t4.5 52q3 20 6 101q3 63 8 92q3 11 -3.5 21 t-16.5 11q-13 0 -24.5 -8t-12.5 -20q-8 -51 -10 -103q-4 -92 -4 -94q-3 -27 -15 -147q-20 -159 -30 -322zM199 1356q-3 -12 2.5 -22t17.5 -11q12 -2 23 5.5t12 19.5q13 51 29 79l6 3q11 -4 33 -29q12 -12 47 -62q9 -15 26 -11.5t24 18t-1 30.5l-49 66q-28 33 -56 43 q-43 15 -75 -25q-24 -35 -39 -104z" />
<glyph unicode="&#xdc;" horiz-adv-x="540" d="M27 311q10 -87 32 -172q44 -134 121 -137q85 -8 148 129q34 80 53 172q40 205 53 311q29 243 45 592q1 12 -6.5 20.5t-19.5 8.5q-13 -1 -22 -11t-9 -22q-11 -182 -21 -305q-8 -124 -29.5 -291.5t-47.5 -294.5q-18 -84 -50 -161q-23 -51 -45 -70q-15 -21 -39 -21 q-42 3 -71 103q-20 63 -33 162q-41 380 59 890q2 12 -5 22t-19 11q-12 0 -22 -8t-11 -20q-104 -537 -61 -908zM211 1419q-1 -12 7 -20t20 -8q26 0 30 28q0 15 -6 21q-8 8 -18 8q-12 0 -22 -8.5t-11 -20.5zM336 1427q0 -12 7 -20t19 -8t21.5 8t9.5 20q3 11 -4 21q-8 8 -20 8 t-22 -8.5t-11 -20.5z" />
<glyph unicode="&#xdd;" horiz-adv-x="600" d="M8 -20q-3 -12 3.5 -21.5t17.5 -11.5q12 -2 23 5t14 19q13 51 73 164q12 22 41 80q0 2 45 100l60 123l55 123q45 98 59 141l54 129q30 72 49 138q42 132 51 225q2 12 -5.5 20.5t-19.5 8.5t-21 -8.5t-11 -20.5q-11 -128 -125 -420q-8 -20 -11 -26t-10.5 -14t-16.5 0t-22 30 q-34 67 -82 184q-76 174 -129 262q-10 14 -25.5 13.5t-25 -15t-0.5 -30.5q50 -84 123 -258q72 -168 129 -263q1 -2 2 -6.5t3 -17t-3 -21.5q-40 -87 -178 -376l-37 -74q-62 -108 -80 -182zM334 1317q-3 -11 2 -22.5t16 -12.5q15 0 21 4q8 4 12.5 9.5t8 16.5t5.5 15 q2 3 8 14.5t11 18.5l16 24q4 5 21.5 28t21.5 28q13 16 6 31t-22.5 15.5t-28.5 -13.5l-20 -27l-6 -10q-24 -28 -27 -33q-4 -8 -10 -14q-28 -50 -35 -72z" />
<glyph unicode="&#xde;" horiz-adv-x="673" d="M37 37q-1 -12 8 -20.5t21 -6.5q12 0 20 9.5t8 21.5q3 152 17 324q1 23 5.5 32t12.5 6q11 -3 21 0q32 11 88 25q76 19 104 27q133 41 190 104q26 29 32 53.5t3 69.5q-4 47 -20 81t-42.5 53.5t-58.5 30t-74.5 10.5t-83.5 -4.5t-93 -14.5q-41 -6 -41 36q10 189 4 316 q0 12 -8.5 19t-20.5 5q-13 -1 -21 -10.5t-8 -21.5q6 -204 -24 -570q-39 -409 -39 -575zM122 466q-1 9 1 26q3 21 6 45q3 55 6 77q2 53 10 119q0 36 41 45q94 17 163.5 19.5t111.5 -28t49 -99.5q2 -31 -1.5 -44t-16.5 -30q-43 -49 -162 -84q-31 -10 -99 -27q-71 -17 -96 -24 l-8 -4q-5 -3 -5 9z" />
<glyph unicode="&#xdf;" horiz-adv-x="745" d="M-29 -6q-2 -12 5.5 -20.5t19.5 -8.5t22 8.5t11 20.5q23 229 37 565q0 2 4 94q0 28 1 58.5t1 33.5l10 89q17 91 69.5 175t130 134t154.5 37q57 -11 91.5 -59.5t34 -108t-29.5 -119.5q-24 -47 -73.5 -93t-98.5 -71q-29 -11 -61 -18l-27 -9q-6 -2 -14 -10q-9 -8 -11 -20.5 t5 -20.5q24 -30 80 -16q20 4 26 6q26 6 50 -2q55 -26 81 -66q64 -82 64 -206q0 -129 -77 -204t-243 -112q-12 -1 -19 -11.5t-7 -23.5q0 -11 10 -17.5t23 -4.5q189 42 281 133t91 246q0 114 -42.5 192t-108.5 115q-36 20 2 47q70 53 121 141q26 50 32 111q6 63 -8 113 q-14 56 -54.5 95.5t-98.5 49.5q-73 14 -147 -17t-130.5 -91t-97.5 -137t-55 -154q-3 -28 -13 -95q-4 -58 -4 -188q-14 -334 -37 -561z" />
<glyph unicode="&#xe0;" horiz-adv-x="593" d="M-55 16q-3 -12 3.5 -21t18.5 -9q12 -2 23 6t12 20q13 69 49 326q25 206 37 276q6 40 49 37q72 -10 170 -10q2 -1 4.5 -4t7 -14t3.5 -25l-7 -47q-32 -229 -20.5 -376t80.5 -195q15 -11 31 -2.5t18.5 23.5t-10.5 28q-54 35 -61.5 168t20.5 354q5 43 13 119 q22 199 28.5 273.5t2 137.5t-25.5 115q-17 38 -40 55.5t-47 13t-49 -23.5t-48 -51q-28 -39 -56 -97.5t-38 -93.5q-65 -230 -123 -675q-27 -202 -45 -308zM108.5 725.5q0.5 6.5 4.5 32.5q21 110 55 229q10 33 35 85t51 87q22 29 35 39t24 3t21 -34q17 -42 20.5 -116.5 t-1 -139t-15.5 -170.5q-3 -45 -10 -45q-147 3 -217 19h-2q-1 4 -0.5 10.5zM258 1460q38 -59 109 -104q15 -11 29.5 -1.5t15.5 25t-13 25.5q-62 43 -88 88q-11 14 -26.5 13t-25.5 -16t-1 -30z" />
<glyph unicode="&#xe1;" d="M-49 6q-13 84 12 221q12 72 19 90q1 10 6 57.5t13.5 128t18.5 169.5q21 214 56 360q23 99 94 176q30 31 61.5 44.5t66.5 7t67 -36.5q58 -63 67.5 -210.5t-18.5 -369.5q-38 -368 -40 -447q-2 -99 21 -167q6 -18 -6 -31t-28.5 -12t-22.5 18q-18 59 -20.5 138.5t4.5 169.5 t30 315q0 25 -41 20q-103 -11 -192 -2q-24 3 -34 -6.5t-13 -32.5q-19 -208 -35 -293q-6 -45 -14 -92q-15 -75 -18 -113t3 -85q2 -12 -4 -22t-18 -13q-29 -6 -35 18zM88 750q-2 -19 2 -28.5t9.5 -12t19.5 -4.5q89 -6 190 2q35 3 45.5 13t12.5 32q28 350 -48 426 q-50 52 -108 -9q-60 -63 -78 -145q-35 -167 -45 -274zM208 1373.5q-16 22.5 9 41.5q30 25 53 41l64 47q29 21 55 43q25 19 41.5 -3t-6.5 -42q-15 -15 -55 -43l-64 -47l-55 -41q-26 -19 -42 3.5z" />
<glyph unicode="&#xe2;" horiz-adv-x="555" d="M-51 20q0 -11 10 -17.5t23 -4.5q12 1 19 11.5t7 23.5q-2 51 2 90q0 15 17 92q11 51 16 98q18 115 41 291q9 41 49 41q70 -2 158 -2q43 0 37 -41q-16 -158 -22 -251t-1 -180t27 -144q6 -17 22 -17.5t27.5 12t5.5 29.5q-19 56 -23.5 133.5t2.5 180.5t27 303 q29 228 27 362.5t-49 181.5q-33 35 -67.5 39t-64 -17.5t-53.5 -62.5q-64 -101 -120 -356q-30 -135 -56 -338q-14 -109 -41 -254q-14 -69 -17 -99.5t-3 -103.5zM109 745q28 136 63 244.5t64 155.5q25 39 44 45t46 -19q32 -33 34.5 -142t-18.5 -284q-3 -40 -18 -40 q-47 -3 -179 -3q-42 0 -36 43zM192.5 1398.5q8.5 -12.5 24.5 -12t27 16.5q25 42 47 61q19 8 31 0q11 -5 17.5 -11.5t12 -17t8.5 -14.5q4 -4 12 -13.5t13 -14.5q17 -20 40.5 -1t8.5 42l-51 59q-33 29 -55 35q-35 7 -66.5 -17.5t-68.5 -83.5q-9 -16 -0.5 -28.5z" />
<glyph unicode="&#xe3;" horiz-adv-x="563" d="M-76 29q-3 -12 4 -21.5t19 -9.5q12 -2 22.5 6.5t10.5 20.5q23 111 69 467q3 23 6.5 57.5t5.5 46.5q6 35 35 47q62 28 211 31q40 0 37 -43q-14 -162 -16 -195q-7 -60 -6.5 -201.5t12.5 -232.5q0 -11 11 -17.5t24 -4.5q10 1 17 12t7 22q-32 232 10 633q21 225 23 297 q3 58 -1.5 108.5t-18 99.5t-43.5 78.5t-74 31.5q-47 3 -84 -21.5t-62.5 -71.5t-42 -95t-30.5 -111q-41 -178 -78 -469q-43 -337 -68 -465zM84 745q58 295 94 371q30 59 65.5 79t65.5 -4t45 -85q7 -30 9.5 -71.5t1.5 -68t-4.5 -96.5t-4.5 -96q-1 -15 -5 -23.5t-15.5 -12.5 t-20.5 -5t-32 -2q-99 -6 -158 -20q-24 -9 -35 -4.5t-6 38.5zM106 1328q9 -13 26 -12.5t26 17.5q31 58 53.5 65.5t54.5 -20.5q29 -19 50 -26.5t43 -4t42.5 26.5t40.5 66q10 29 -15.5 38t-39.5 -18q-23 -51 -36.5 -54.5t-47.5 24.5q-38 25 -69 29.5t-64.5 -19.5t-63.5 -82 q-9 -17 0 -30z" />
<glyph unicode="&#xe4;" horiz-adv-x="552" d="M-86 17.5q5 -10.5 16 -15.5q10 -4 22 2.5t17 18.5q21 45 33 100q6 31 13 78.5t12 91t6 49.5q4 13 35 260q6 29 8 33l2 10q80 9 215 12q39 0 39 -26q-1 -5 -2 -14.5t-2 -14.5q-3 -35 -6 -67q-6 -29 -9 -58q-38 -323 21 -432q9 -23 34 -13q22 9 21 31q-1 5 -4 11 q-51 105 -14 401l30 250q17 129 11 209q-1 3 -1 11t0.5 26t0.5 33q0 42 -4 88q-15 122 -78 145q-36 14 -69.5 1t-62.5 -40t-53 -66.5t-40.5 -78.5t-26.5 -76q-43 -152 -76 -434q-6 -52 -16.5 -124t-10.5 -73q-6 -33 -12 -100q-17 -132 -49 -207q-5 -11 0 -21.5zM90 750 q14 99 45 219q23 85 74.5 156.5t93.5 54.5q49 -17 49 -183q0 -65 2 -71q3 -68 -8 -170q-3 -28 -15.5 -34.5t-45.5 -6.5q-144 -5 -158 -6q-24 -2 -32.5 5t-4.5 36zM223 1419q-1 -12 7 -20t20 -8t20.5 8t10.5 20q0 14 -7 21q-8 8 -18 8q-12 0 -22 -8.5t-11 -20.5zM350 1432 q-2 -12 5.5 -20.5t19.5 -8.5t22 8.5t11 20.5q0 10 -7 20q-8 8 -20 8t-20.5 -8t-10.5 -20z" />
<glyph unicode="&#xe5;" horiz-adv-x="614" d="M-74 4q0 -12 7.5 -20.5t19.5 -8.5t21.5 8.5t9.5 20.5q13 91 30 160q28 143 60 330q9 74 18 120q6 38 45 41q15 0 89.5 1t133.5 1q9 0 11 2l-2 -18q-4 -26 -16.5 -107t-18.5 -122q-17 -108 -2 -220.5t61 -177.5q9 -15 26 -11.5t24 18t-1 30.5q-38 55 -51 156 q-3 27 -4.5 52.5t0 56.5t2.5 51t6.5 60.5t8.5 59t11.5 73t12.5 77.5q19 116 27 174.5t15 132.5t2.5 114.5t-17.5 80.5t-39 69q-33 39 -71 47.5t-73 -8.5t-67 -55q-28 -33 -50 -76t-34.5 -74.5t-25.5 -89t-17 -79t-15 -85.5q-45 -245 -75 -456q-5 -32 -33 -162 q-18 -88 -29 -166zM117 756q23 153 51 245t82 156q34 38 60.5 41.5t60.5 -31.5q42 -49 43 -157t-27 -252q-3 -32 -6 -37.5t-14 -5.5h-215q-14 -1 -22.5 -0.5t-12 10t-0.5 31.5zM283 1452q-2 -7 2 -22q0 -16 10 -33q24 -40 78 -37q50 2 87.5 40t33.5 93q-3 47 -33 74t-72 22 q-80 -13 -102 -110q-4 -16 -4 -23v-4zM342 1454v2q0 7 10 41q12 29 37 33q18 2 31 -10t14 -35q1 -28 -16 -47t-43 -21q-33 0 -33 37z" />
<glyph unicode="&#xe6;" horiz-adv-x="862" d="M-35 524q8 11 18.5 27t13 19.5t11 14t10.5 13t12.5 12.5t18 16t25.5 21q70 58 159 58q73 0 109 -48q21 -26 49 -4q47 37 111 60t130 17.5t99 -50.5q30 -53 18.5 -116.5t-60 -127t-116.5 -100.5q-84 -48 -176 -29q-45 9 -51 -35q-12 -67 -16.5 -105t-2.5 -73.5t15 -54.5 q17 -30 85.5 -24t113.5 42q43 37 84 111q12 25 36 19q21 -6 19 -26l-4 -14q-46 -91 -106.5 -137.5t-149.5 -52.5q-93 -9 -131 45q0 6 -2 8q-1 3 -41 -18q-56 -31 -113 -34.5t-98.5 24.5t-48.5 84q-12 79 35 177.5t120 149.5q91 64 164 10q2 0 2 -2q19 123 1.5 184.5 t-81.5 61.5q-79 0 -155 -76q-16 -16 -33 -43q-38 -60 -66 -45q-25 16 -8 41zM42 81.5q9 -59.5 69 -65.5q81 -6 151 58q2 2 4 2q2 12 2 35q0 17 4 67q4 31 27 164q-6 2 -13.5 5t-12 4.5t-5.5 2.5h-2q-40 29 -96 -10t-94 -121q-43 -82 -34 -141.5zM365 395q0 -18 30 -26 q86 -22 162 20.5t115 122.5q27 58 20.5 99t-48 55.5t-122.5 -9.5q-100 -27 -135 -92q-12 -17 -12 -43q0 -66 -10 -127z" />
<glyph unicode="&#xe7;" d="M-37 383q-18 214 39 471q16 69 69.5 172t114.5 172q56 63 109 84.5t101.5 -8t78.5 -113.5q19 -54 22.5 -81t-5.5 -79q-1 -12 -12.5 -20t-22.5 -6q-12 0 -19 10t-4 21q6 43 3.5 62.5t-17.5 68.5q-38 96 -88 96q-42 0 -101.5 -67t-107.5 -165q-46 -88 -65 -169t-33 -207 q-13 -109 -3 -232.5t44 -204.5q22 -56 81 -106q34 -31 68 -39q4 1 7 0h1q24 0 35 6q8 6 25 23q33 45 84 190q3 12 14.5 18.5t24.5 4.5q10 -1 14.5 -12.5t1.5 -22.5q-61 -171 -96 -211q-26 -37 -62 -49q-35 -12 -49 -33l-18 -27q-10 -32 26 -41q46 -12 66 -30 q23 -20 26 -50.5t-20.5 -60.5t-69.5 -43q-20 -7 -92 -10q-13 -1 -22 6.5t-7 19.5q0 12 8.5 21.5t20.5 9.5q91 6 111 21q6 5 7 15.5t-1 17.5l-2 8q-20 16 -96 28q-4 1 -8.5 1.5t-7.5 1t-5 1.5q-1 0 -3 1t-3 1q-14 0 -21 19q0 18 2 22l5 9q1 2 2 5t2 5q2 2 7 12t11 19 q1 1 6.5 8t7.5 12q20 34 -10 55q-5 3 -15 11t-16 12q-71 61 -102.5 138t-40.5 208z" />
<glyph unicode="&#xe8;" horiz-adv-x="546" d="M-8 86q-3 -46 4 -63q18 -28 74 -31q54 -4 102 -4q22 0 104 4q41 2 70 2q12 0 21.5 8.5t9.5 20.5q1 12 -6 20t-19 8q-28 0 -69 -2t-105 -2q-50 0 -96 4q-5 1 -12 1.5t-11.5 1t-7.5 1.5q0 2 -2 2v2q0 17 2 29l8 82q1 12 5 41t6 45q2 14 4.5 29t3.5 22t2 10q14 175 16 332 q0 10 5.5 14t11.5 4.5t24 0.5h80q12 0 22 8t11 20t-7 20.5t-20 8.5h-88q-22 0 -30.5 7.5t-8.5 31.5q8 160 13 213q0 1 6 51q7 105 20 152q9 20 21 22l26 2q172 0 273 -16q12 -2 22.5 5t11.5 19q3 12 -2.5 22t-17.5 11q-44 7 -139.5 13t-143.5 6q-52 0 -75 -13t-35 -61 q-14 -59 -21 -162q-1 -14 -2 -26.5t-1.5 -18t-0.5 -6.5q-9 -88 -16 -332q-2 -196 -12 -328q0 -2 -9.5 -61t-13.5 -84zM184 1483q10 -5 41 -29q26 -26 41 -35q35 -31 90 -53q17 -8 31 3.5t13 26t-17 23.5q-54 25 -80 47l-39 33q-36 31 -37 33q-23 17 -43 -6.5t0 -42.5z" />
<glyph unicode="&#xe9;" horiz-adv-x="552" d="M-37 25q16 -48 162 -48q31 0 65 3q53 4 74 6q35 0 47 12q11 7 11 20q0 12 -8.5 20t-20.5 7q-17 0 -37 -2q-117 -6 -125 -6q-54 0 -84 6q-6 0 -14 4q-6 2 -10 2l-3 2q-2 27 0 45l3 19q2 10 5.5 29.5t6 33.5t2.5 17q27 164 41 372q2 15 6 43q3 27 12 34t33 7q37 0 55 2 q12 0 20.5 9.5t10.5 21.5q0 12 -8.5 20t-20.5 7q-18 -2 -57 -2q-11 0 -17 1t-11.5 5t-6.5 13t0 24q2 14 15 186q3 10 6 59q1 19 4.5 49t3.5 35q3 45 10 78q0 15 4 27l2 4l19 4q3 0 10 1t10 1q54 4 109 4h112q70 -3 82 0q11 0 21 10q10 8 10 21q0 12 -8.5 20.5t-20.5 8.5 q-12 -3 -80 0q-87 0 -225 -5q-69 -11 -84 -28q-13 -19 -20 -64q-9 -43 -11 -84q-5 -27 -8 -82q0 -47 -4 -59q-9 -92 -31 -371q-17 -208 -40 -368q0 -13 -5 -35q-9 -39 -10 -47q-11 -72 -2 -92zM213 1378.5q15 -23.5 43 -6.5q9 9 63 45q2 1 11 7.5t16 11.5q32 19 66 32 q17 7 19.5 23.5t-9.5 27t-31 3.5q-36 -14 -74 -37q-24 -16 -30 -19l-31 -24q-26 -19 -33 -21q-25 -19 -10 -42.5z" />
<glyph unicode="&#xea;" horiz-adv-x="540" d="M-27 61l2 31q3 26 19 144q4 38 8 53l4 28q6 63 21 181q1 10 20 209q12 106 14 153q1 9 2.5 24.5t2.5 24.5v15v59q-3 79 2 143q5 48 15 70t36 33q11 5 45 12q85 12 309 2q12 0 19.5 -9.5t5.5 -21.5q-1 -12 -12 -20t-23 -6q-180 4 -189 4q-74 -3 -106 -8q-3 0 -8 -1t-8 -1 q-13 -1 -17 -10.5t-6 -30.5q0 -1 -1 -5t-1 -6q-5 -59 -2 -141q0 -80 -2 -98q-1 -28 -10 -139q-2 -13 -3 -22.5t-0.5 -14t1.5 -4.5h157q12 0 19.5 -8.5t5.5 -20.5t-10.5 -20.5t-20.5 -8.5h-119q-42 0 -45 -41q-2 -17 -7 -58t-7 -58q-14 -110 -21 -177l-4 -30q-3 -39 -16 -111 l-8 -82v-26l4 -2q7 -4 27 -7q25 -7 92 -10q70 -4 168 -4q12 0 19 -8.5t5 -20.5t-10.5 -20t-20.5 -8q-193 0 -270 12q-63 12 -69 33zM121 1345q-4 14 8 31l84 101q34 43 63 43q28 0 52 -43q36 -68 51 -88q9 -16 0 -31.5t-24.5 -17t-26.5 11.5q-2 4 -4 9t-7.5 14.5t-19.5 29.5 l-4 8q-7 11 -16.5 18.5t-14.5 8.5l-6 2l-86 -103q-13 -15 -29 -11.5t-20 17.5z" />
<glyph unicode="&#xeb;" horiz-adv-x="540" d="M-31 43l2 10q0 -6 2 -8l4 -14q16 -21 74 -25q156 -6 279 8q11 0 19.5 10t10.5 23q-2 12 -11 19t-21 6q-124 -12 -267 -6q-3 2 -8 5.5t-12.5 14.5t-5.5 23v6q3 36 14 121t14 118q11 69 13 90l4 43q1 2 1.5 17t3 47t5.5 65q3 28 12 36t31 10q10 2 38 5.5t46 6.5 q12 2 20 11.5t7 21.5q0 12 -8.5 19t-20.5 5q-14 -2 -39 -5.5t-35 -4.5q-24 -3 -33 4t-6 35q4 36 10.5 111.5t13 132.5t13.5 100q8 36 8 47l11 33q0 6 2 8q6 2 43 2q46 2 135.5 -5t114.5 -18q18 -5 31.5 7t12.5 28t-18 23q-31 13 -170 22q-138 10 -176 -8q-20 -11 -35 -55 q-5 -15 -16 -82q-27 -151 -47 -465q-3 -39 -6 -76.5t-4 -55.5t-2 -22q0 -2 -1 -8t-2 -15.5t-2 -19.5q-6 -34 -12 -90q-2 -13 -6.5 -48t-7.5 -50l-15 -141q0 -4 -2 -12t-2 -11q-1 -9 -2 -24.5t-2 -24.5zM178 1419q-1 -12 7 -20t20 -8t20.5 8t10.5 20q0 14 -7 21q-8 8 -18 8 q-12 0 -22 -8.5t-11 -20.5zM342 1427q0 -12 7.5 -20t19.5 -8t21 8t9 20q3 11 -4 21q-8 8 -20 8t-22 -8.5t-11 -20.5z" />
<glyph unicode="&#xec;" horiz-adv-x="530" d="M-68 27q-2 -12 5.5 -20.5t19.5 -8.5q65 0 317 12q12 0 20.5 9.5t10.5 21.5q0 12 -8.5 20t-20.5 7l-73 -5q-36 0 -41 3.5t0 17.5q5 68 41 334q9 82 22.5 192.5t16.5 139.5q9 126 10 133q4 114 37 258l8 37q102 -2 160 -2q12 0 20 8t10 20q1 12 -6.5 20.5t-19.5 8.5 q-121 0 -191 4q-125 0 -198 -8q-12 0 -20.5 -9.5t-8.5 -21.5q-1 -12 7 -20t20 -7q65 7 125 7q35 0 38 -3t-2 -28q0 -3 -9 -48t-18 -106t-11 -114q-6 -95 -9 -129q-3 -29 -16.5 -139.5t-22.5 -192.5q-36 -266 -41 -334v-2.5t-2.5 -6t-6.5 -8t-13.5 -6.5t-22.5 -4 q-35 -2 -96 -2q-12 0 -21.5 -8t-9.5 -20zM186 1442.5q-3 -14.5 9 -27.5l28 -24q19 -15 25 -19l8 -4l33 -20q17 -8 32 2.5t15.5 25.5t-12.5 25l-35 18q-3 2 -8.5 4.5t-6.5 3.5q0 2 -10 9l-28 24q-15 12 -31 4.5t-19 -22z" />
<glyph unicode="&#xed;" horiz-adv-x="434" d="M-94 16q-3 -12 3.5 -21t18.5 -9q157 -14 312 8q12 1 20 11t8 22q-2 12 -10 18.5t-20 5.5q-54 -8 -93 -10q-39 -3 -39 41q15 190 31 352q4 33 20 164.5t27 230.5q37 314 41 355q3 41 45 41q64 3 97 8q13 1 20.5 10.5t7.5 22.5q0 12 -8.5 18.5t-21.5 5.5q-66 -10 -136 -6 h-73h-70q-12 0 -21.5 -8.5t-9.5 -20.5q-1 -12 6 -20t19 -8h49q42 -3 39 -41q-5 -50 -41 -357q-32 -241 -49 -395q-16 -162 -31 -352q0 -43 -45 -43q-10 1 -31 2t-32 2q-11 2 -21.5 -6.5t-11.5 -20.5zM206.5 1406q16.5 -22 41.5 -3l90 76q22 21 5.5 42t-42.5 3l-88 -76 q-23 -20 -6.5 -42z" />
<glyph unicode="&#xee;" horiz-adv-x="559" d="M-41 53q-3 -12 4 -21t19 -9q181 -9 380 0q12 0 21.5 9t11.5 21q0 12 -9 20t-21 5h-127q-49 -2 -45 10q4 8 4 14q4 36 47 392q34 308 39 391q1 8 2.5 40.5t3.5 57.5q4 81 8 115q0 26 6 53q9 37 49 37h127q12 0 22 8.5t11 20.5q0 12 -7.5 20t-19.5 8q-362 0 -391 -2 q-12 0 -21.5 -9.5t-9.5 -21.5t8.5 -19.5t20.5 -6.5q35 2 119 2q41 0 35 -43q-4 -15 -8 -53q-13 -110 -13 -207q-5 -83 -39 -391q-43 -356 -47 -392q-1 -3 -4 -7t-14.5 -10.5t-26.5 -4.5h-102q-12 1 -21.5 -7t-11.5 -20zM144.5 1351.5q4.5 -15.5 18 -18.5t27.5 8l103 101 q1 2 5 5l5 3l19 -27q45 -51 94 -90q13 -11 28.5 -3t18.5 23t-10 29q-46 35 -82 80l-19 27q-20 20 -24 22q-31 12 -74 -28l-100 -101q-14 -15 -9.5 -30.5z" />
<glyph unicode="&#xef;" horiz-adv-x="520" d="M-68 49q-2 -12 5.5 -20.5t19.5 -8.5q238 0 324 7q12 0 20 9t10 21q0 12 -8 20t-20 7q-10 -1 -31 -2t-31 -2q-41 2 -41 8v10q3 85 19 238q8 71 14 113q2 20 5 48.5l5 47.5t4 33q3 29 12.5 131.5t16.5 177.5q3 43 23 262q3 38 45 41q44 0 122 4q12 0 21.5 9.5t11.5 21.5 q0 12 -8.5 19.5t-21.5 6.5q-138 -6 -365 -6q-12 0 -21.5 -8t-9.5 -20q-2 -12 5.5 -20.5t19.5 -8.5h106q40 0 37 -41q-13 -135 -22 -262q-6 -73 -16 -174.5t-13 -132.5q0 -1 -5.5 -47.5t-10.5 -79.5q-2 -13 -13 -113q-18 -144 -18 -244q-16 -16 -47 -16h-113 q-12 0 -20.5 -8.5t-10.5 -20.5zM119 1403q-1 -12 6.5 -20.5t19.5 -8.5t20.5 8.5t10.5 20.5q3 11 -6 20q-6 9 -18 9t-22 -8.5t-11 -20.5zM322 1419q-1 -12 6.5 -20t19.5 -8t20.5 8t10.5 20q0 15 -6 21q-8 8 -19 8q-12 0 -21 -8.5t-11 -20.5z" />
<glyph unicode="&#xf0;" horiz-adv-x="624" d="M-38.5 167.5q21.5 -104.5 79.5 -177.5q47 -60 106.5 -80.5t113.5 -4.5t100.5 59t72.5 104q73 178 51 493q-11 139 -44.5 245.5t-116.5 233.5q-4 4 -5 4q-21 35 13 60q35 25 55 37q17 11 16 28t-14 23.5t-31 -2.5q-8 -5 -65 -45q-29 -23 -57 2q-72 75 -150 90 q-13 2 -24.5 -4.5t-12.5 -18.5q-3 -12 2 -22.5t17 -11.5q57 -12 118 -70q28 -28 -4 -59q-49 -53 -69 -82q-13 -16 -5 -31.5t23.5 -15.5t26.5 14q19 26 57 70q15 15 31 15t26 -17q89 -137 125 -267q12 -43 15 -49v-47q-223 37 -353 -90q-69 -68 -94 -173.5t-3.5 -210zM12 272 q-2 155 92.5 245t268.5 71q7 -1 15.5 -1.5t13 -1t8.5 -1.5q13 -5 14 -13q1 -3 1 -13l1 -9q9 -124 0 -238q-9 -142 -48.5 -232t-105.5 -110q-69 -24 -130 12t-96 114.5t-34 176.5z" />
<glyph unicode="&#xf1;" horiz-adv-x="530" d="M-53 4q0 -12 7 -20.5t19 -8.5t21.5 8.5t9.5 20.5q18 169 49 414q30 273 45 411q12 119 32 -3q1 -11 4 -30l3 -18l-2 15q86 -434 90 -484q2 -34 27 -178l16 -82q4 -24 4 -26q1 -1 2 -4.5t2 -4.5q3 -3 3 -6l2 -4q4 -7 18 -10q22 -5 36.5 10.5t20 35.5t9.5 50q4 28 4 53 q-2 6 -2 17q2 4 2 10q-2 2 -2 6q3 46 12 127q14 193 16 236q2 23 3.5 51t2.5 44t2 25q6 129 21 234q3 14 7.5 50t8.5 58q7 73 41 232q3 12 -2.5 22t-17.5 11t-22 -6t-13 -19q-18 -65 -25 -113q-20 -93 -34 -235q-15 -110 -21 -234l-8 -122q-2 -24 -4 -52t-3 -42.5t-1 -20.5 q-9 -73 -21 -250q0 -1 -3 13.5t-6.5 32.5t-4.5 24q-4 24 -10 80q-17 103 -92 487q-36 188 -50 274q-6 33 -8 107l2 16v23q3 9 -2 14q-3 10 -10 12q-18 9 -37 -4l-6 -12q-4 -5 -6 -33t-4 -63.5t-2 -40.5l-29 -273q-15 -138 -45 -411q-31 -245 -49 -414zM72 1366 q-19 -25 3 -42.5t42 5.5q42 52 68 56.5t65 -23.5q41 -21 75.5 -23t80 23.5t100.5 85.5q13 15 7.5 30.5t-20.5 17.5t-30 -11q-66 -74 -115 -84q-27 -6 -63 14q-44 23 -72 28.5t-63.5 -11.5t-77.5 -66z" />
<glyph unicode="&#xf2;" horiz-adv-x="563" d="M-31 338q3 -120 43 -202t125 -118q48 -22 89.5 -17t76.5 46q43 49 73 125.5t48 184.5t25.5 175t16.5 185l3 33q6 109 6 221q0 114 -6 131q-30 102 -89.5 137.5t-133.5 3.5q-61 -26 -115 -90.5t-86 -144.5q-63 -155 -72 -385q-7 -165 -4 -285zM27.5 489.5 q-1.5 109.5 17.5 259t55 242.5q23 64 72 123q45 55 91 75t79 1q49 -31 72 -109q4 -18 4 -75q-4 -58 -4 -66q0 -136 -2 -160q-4 -69 -13 -143l-16 -152q-40 -308 -121 -401q-21 -22 -41 -24t-53 12q-108 45 -135 235q-4 73 -5.5 182.5zM249.5 1495q-4.5 -15 6.5 -29 q66 -63 119 -94q16 -8 30.5 2.5t15 25.5t-12.5 25q-38 19 -109 86q-12 12 -28.5 5.5t-21 -21.5z" />
<glyph unicode="&#xf3;" horiz-adv-x="616" d="M-31 578q-5 -61 7.5 -172.5t37.5 -200.5q18 -64 43.5 -109.5t58.5 -72.5t76.5 -26t92.5 34q98 69 176 399q53 228 74 432l2 2v4q10 73 2.5 142t-27.5 122.5t-66.5 86t-113.5 32.5q-40 0 -59 -4.5t-48 -23.5q-106 -70 -177.5 -269t-78.5 -376zM27 582q8 166 73 350 t152 242q22 14 33.5 17t40.5 3q94 0 131 -91t22 -235v-4l-2 -2q-16 -172 -74 -426q-74 -308 -151 -356q-116 -83 -180 147q-24 83 -35.5 186.5t-9.5 168.5zM262 1375q5 -21 25 -18q7 0 14 5q27 13 88 53q63 42 86 53q17 11 16 28.5t-14 24t-31 -2.5q-19 -11 -86 -56 q-25 -17 -81 -51q-24 -12 -17 -36z" />
<glyph unicode="&#xf4;" horiz-adv-x="583" d="M-43 197q12 -70 51 -123q38 -58 93.5 -80t123.5 2q138 52 209 348q61 265 51 535v10q0 1 -3 47t-8 98t-11 68q-23 57 -65 95.5t-91 45.5q-54 11 -106 -18t-92 -92q-75 -125 -125 -448t-27 -488zM16 213q-24 152 25 464.5t119 426.5q28 46 63.5 66.5t69.5 15.5t64.5 -33 t48.5 -76q8 -15 16 -53q2 -17 3 -64.5t1.5 -85t1.5 -38.5q3 -268 -53 -496q-17 -69 -40.5 -126t-54 -101.5t-69.5 -62t-82 0.5q-42 18 -74 62t-39 100zM147 1358q6 -5 12 -7t12 -0.5t10.5 4t11.5 9.5t10.5 11.5t11.5 14.5l12 15q5 4 11.5 11t7.5 9q7 9 15 15t13 7.5t7 0.5 q1 -1 3 -2t3 -2q11 -9 61 -62q22 -19 43 3t2 42q-19 19 -41 40.5t-24 23.5q-33 25 -58.5 19t-58.5 -42l-25 -26l-39 -43q-21 -21 0 -41z" />
<glyph unicode="&#xf5;" horiz-adv-x="653" d="M-16 497.5q-1 -126.5 25.5 -215t84.5 -178.5q54 -82 111.5 -104.5t113.5 18.5q86 64 150 265q52 154 79 350t13 272q-12 90 -27.5 140t-46.5 100q-32 58 -74.5 86t-97 21.5t-112.5 -54.5q-122 -104 -183 -401q-35 -173 -36 -299.5zM51 383q-17 106 2.5 265t70 305 t114.5 200q119 102 198 -41q31 -53 50.5 -169t17.5 -161q-3 -57 -15 -135q-28 -203 -82.5 -369.5t-117.5 -211.5q-32 -22 -58 -11q-39 14 -86 86q-71 106 -94 242zM119 1292q9 -13 25.5 -12t25.5 18q36 69 65 77t74 -25q45 -26 77.5 -27t64 34.5t57.5 115.5q3 12 -2.5 22 t-16.5 12q-13 2 -24 -4t-14 -18q-31 -93 -56 -103q-12 -3 -51 19q-34 21 -61 29t-55.5 3t-55.5 -32t-53 -78q-9 -18 0 -31z" />
<glyph unicode="&#xf6;" horiz-adv-x="669" d="M-14 602q-28 -221 8.5 -387t136.5 -215q125 -60 227 63q72 84 136 281q42 140 69 308t27 261l-2 39q6 109 -47 209q-45 83 -119.5 104t-167.5 -36q-95 -64 -167 -238t-101 -389zM45 602q25 196 92 360t146 218q125 84 206 -52q29 -55 36 -103.5t5 -111.5v-59 q-1 -30 -3.5 -51t-7 -45.5t-5.5 -34.5q-29 -215 -83.5 -383.5t-117.5 -241.5q-69 -84 -151 -45q-81 41 -112.5 192.5t-4.5 356.5zM258 1442q-1 -12 7 -20.5t20 -8.5t20 8.5t10 20.5q3 11 -6 20q-5 8 -18 8q-12 0 -22 -8t-11 -20zM449 1450q-2 -12 5 -20.5t19 -8.5t22 8.5 t11 20.5q0 11 -6 20q-9 9 -21 9t-21 -8.5t-9 -20.5z" />
<glyph unicode="&#xf7;" horiz-adv-x="716" d="M0 641q-1 -12 7 -20.5t20 -8.5q91 0 278 9q164 8 277 8q12 0 21.5 8t10.5 20t-6.5 20.5t-19.5 8.5q-113 0 -277 -8q-167 -8 -278 -8q-12 0 -22 -8.5t-11 -20.5zM225 469q-1 -12 7 -20.5t20 -8.5t20.5 8.5t10.5 20.5q3 10 -7 20q-6 9 -18 9t-22 -8.5t-11 -20.5zM248 885 q-2 -12 5 -20.5t19 -8.5t22 8.5t11 20.5q0 11 -6 20q-8 8 -20 8t-21.5 -8t-9.5 -20z" />
<glyph unicode="&#xf8;" horiz-adv-x="606" d="M-33.5 380.5q0.5 -146.5 38.5 -254.5t106 -136q74 -30 155 33q138 102 193 337q16 79 30 193q1 13 5 45.5t6 52.5q3 59 6 80q0 5 4 51q9 59 14 107v151q-2 8 -2 25q-18 149 -145 184q-70 19 -133.5 -17.5t-111.5 -115t-84 -185.5t-58 -235q-24 -169 -23.5 -315.5zM27 438 q0 161 38.5 339.5t104.5 295.5q42 70 92.5 100.5t91.5 21.5t71.5 -47t37.5 -95v-17q2 -11 0.5 -20.5t-1 -13t-2.5 -8t-3.5 -5.5t-5 -4.5t-7.5 -5.5q-49 -55 -122 -174q-46 -72 -113 -170q-69 -86 -137 -203q-12 -20 -22 -28.5t-16.5 -1t-6.5 35.5zM31 258q0 4 7 15.5 t19 27.5t15 21q63 126 182 280q43 54 117 176q25 40 39 62q27 41 51 58q3 2 4 1v-16l-16 -152l-9 -82l-10 -96q-15 -120 -31 -184q-51 -216 -163 -301q-57 -39 -101 -25q-79 36 -104 215z" />
<glyph unicode="&#xf9;" horiz-adv-x="532" d="M12 285q-3 -59 3 -108.5t23.5 -93.5t54.5 -68t91 -21q17 1 31.5 4t27 12t22 15.5t19 23t15.5 25.5t13.5 33t11 36t10.5 42.5t10 44.5t10 51q60 287 107 725q0 13 16 104q5 35 10 109q1 11 -8 19.5t-20 8.5q-12 -2 -21 -12.5t-8 -20.5q-3 -40 -12 -102q-8 -57 -15 -106 q-48 -443 -106 -721q-31 -141 -50.5 -187t-60.5 -47q-65 -1 -93 65t-23 173l20 481q21 337 72 455q6 11 1 21.5t-16 15.5q-12 4 -23.5 -2t-17.5 -19q-44 -104 -58.5 -252.5t-29.5 -552.5q-4 -98 -6 -151zM213.5 1448q-0.5 -15 13.5 -25q17 -6 66 -30l61 -33q16 -8 30 3 t14.5 25.5t-13.5 24.5l-63 33l-64 31q-16 8 -30 -3t-14.5 -26z" />
<glyph unicode="&#xfa;" horiz-adv-x="530" d="M10.5 147.5q0.5 -70.5 29 -117t89.5 -59.5q122 -25 188 103q32 65 52 190q100 624 100 938q1 11 -8.5 20t-20.5 9q-12 -1 -21 -11.5t-7 -21.5q-3 -324 -101 -930q-22 -125 -47 -174q-39 -79 -117 -65q-56 11 -68.5 75t-4.5 213q4 107 39 461q38 421 39 441q1 12 -8 20 t-21 8q-12 -2 -21 -11.5t-8 -21.5q-5 -75 -41 -438q-30 -305 -39 -463q-4 -95 -3.5 -165.5zM219 1331q4 -16 18 -19.5t29 7.5q68 61 129 108q16 12 15 28.5t-14.5 22t-30.5 -4.5q-77 -59 -136 -113q-14 -13 -10 -29z" />
<glyph unicode="&#xfb;" horiz-adv-x="493" d="M8 211q-4 185 45 612q35 341 35 377q0 13 8 23.5t21 11.5q12 0 20.5 -7.5t7.5 -19.5q2 -73 -34 -387q-47 -412 -43 -602q2 -61 14 -121q9 -43 36.5 -67t57.5 -19q23 3 45 31q50 59 62 156q59 449 86 993q0 12 9 21.5t21 11.5q12 0 20.5 -8.5t8.5 -20.5q-30 -543 -88 -997 q-15 -120 -74 -191q-40 -49 -90 -54t-108 40q-50 40 -60 217zM133 1347.5q-5 13.5 6 30.5l25 31l22 29q3 4 9 10.5t8 9.5q37 40 65.5 46.5t63.5 -21.5q24 -19 65 -78q11 -15 2.5 -30.5t-23.5 -17.5t-28 11q-41 55 -55 66q-26 13 -47 -11q-2 -5 -9 -12.5t-8 -9.5l-20 -27 l-25 -28q-12 -16 -29 -14t-22 15.5z" />
<glyph unicode="&#xfc;" horiz-adv-x="512" d="M6 264q5 -46 16.5 -91t30.5 -88t49.5 -69.5t67.5 -27.5q80 -3 121 127q6 15 11 34.5t12 55t11.5 61t15 88.5t17.5 101q8 55 20 123t13 77l27 172q31 203 49 383q2 12 -5.5 20.5t-19.5 8.5t-21 -8.5t-11 -20.5q-10 -100 -21 -180q-25 -185 -57 -371l-35 -200 q-48 -289 -61 -332q-16 -47 -31 -64q-12 -18 -29 -18q-39 1 -71 73.5t-42 157.5q-18 186 27 465q3 15 12.5 65t16.5 87q35 202 49 324q0 12 -7.5 20t-19.5 8t-21 -8t-9 -20q-8 -70 -52 -322l-10 -58t-9.5 -56.5t-6.5 -37.5q-49 -290 -27 -479zM225 1397q-2 -12 5.5 -20.5 t19.5 -8.5t22 8.5t11 20.5q0 13 -7 20q-8 8 -20 8t-20.5 -8t-10.5 -20zM342 1403q-1 -12 7 -20.5t20 -8.5t20 8.5t10 20.5q3 11 -6 20q-6 9 -18 9t-22 -8.5t-11 -20.5z" />
<glyph unicode="&#xfd;" horiz-adv-x="616" d="M41 1219q19 -41 70 -172q48 -129 87.5 -211t88.5 -142q17 -26 6 -55l-21 -47q-36 -74 -41 -88q-6 -10 -34.5 -76.5t-38.5 -91.5l-31 -80q-32 -90 -33 -92l-24 -78q-18 -54 -25 -88q-3 -12 3.5 -21.5t17.5 -11.5q12 -2 22.5 5.5t13.5 19.5q20 83 62 194q37 104 60 160.5 t93 210.5q17 38 43 94t34.5 75t24.5 60.5t30 85.5t36 115q56 186 86 248q13 23 -7 36q-19 12 -35 -6q-4 -4 -7 -10q-43 -84 -96 -256q-50 -172 -84 -249q-5 -11 -28 15l-13 17q-64 102 -135 299q-44 108 -70 168q-9 15 -24 16t-26.5 -13t-4.5 -31zM261 1356.5 q-2 -9.5 2 -16.5t10.5 -12t16.5 -4t19 9q32 32 99 86q22 21 5.5 42t-42.5 3l-99 -90q-9 -8 -11 -17.5z" />
<glyph unicode="&#xfe;" horiz-adv-x="700" d="M-23 -211q0 -12 7.5 -20.5t19.5 -8.5t21.5 8.5t9.5 20.5q3 25 9.5 145.5t16.5 215.5q1 16 12 -1q2 -3 7 -11q12 -21 20 -32q34 -49 84 -73q77 -41 161 -16.5t144 104.5q112 145 68 467q-23 171 -92.5 240.5t-157.5 54.5q-75 -12 -143 -92q-24 -29 -29 -22q-7 9 2 77 q29 252 29 330q0 12 -9 19t-22 7q-12 -1 -20.5 -12t-8.5 -23q-1 -30 -2 -55.5t-2 -45t-3 -43.5t-2.5 -36t-3.5 -37.5t-4 -34.5t-6 -40t-6 -40.5t-7.5 -50.5t-8.5 -55q-27 -164 -37.5 -263.5t-21.5 -320.5q-14 -256 -25 -356zM84 340.5q-4 68.5 8 165.5v4q0 1 2 4.5t2 5.5v6 q12 59 45.5 126.5t75.5 113.5q99 103 201 22q53 -48 76 -195t10 -278q-10 -93 -58 -158t-112 -85t-124 16t-97 125q-25 59 -29 127.5z" />
<glyph unicode="&#xff;" horiz-adv-x="571" d="M-10 4q-2 -12 3.5 -23t16.5 -12q11 -2 22.5 5t14.5 18q144 403 318 862q7 20 88 188q53 109 77 199q3 12 -3 21.5t-17 11.5q-12 2 -23 -5.5t-14 -19.5q-18 -71 -74 -186q-78 -156 -90 -193q-25 -64 -51 2q-7 17 -63.5 152.5t-85.5 208.5q-6 17 -22 17.5t-28 -12.5t-6 -30 q97 -255 201 -475l2 -4zM217 1397q-2 -12 5.5 -20.5t19.5 -8.5t21 8.5t11 20.5q0 14 -6 20q-8 8 -20 8t-20.5 -8t-10.5 -20zM342 1403q-1 -12 7 -20.5t20 -8.5t20 8.5t10 20.5q3 11 -6 20q-6 9 -18 9t-22 -8.5t-11 -20.5z" />
<glyph unicode="&#x2000;" horiz-adv-x="794" />
<glyph unicode="&#x2001;" horiz-adv-x="1589" />
<glyph unicode="&#x2002;" horiz-adv-x="794" />
<glyph unicode="&#x2003;" horiz-adv-x="1589" />
<glyph unicode="&#x2004;" horiz-adv-x="529" />
<glyph unicode="&#x2005;" horiz-adv-x="397" />
<glyph unicode="&#x2006;" horiz-adv-x="264" />
<glyph unicode="&#x2007;" horiz-adv-x="264" />
<glyph unicode="&#x2008;" horiz-adv-x="198" />
<glyph unicode="&#x2009;" horiz-adv-x="317" />
<glyph unicode="&#x200a;" horiz-adv-x="88" />
<glyph unicode="&#x2010;" horiz-adv-x="667" d="M-12 539q0 -12 8.5 -19t21.5 -6q112 16 344 10q144 -4 160 -4q12 0 21.5 8.5t9.5 20.5q2 12 -5.5 20.5t-19.5 8.5q-7 0 -155 4q-233 9 -357 -11q-28 -3 -28 -32z" />
<glyph unicode="&#x2011;" horiz-adv-x="667" d="M-12 539q0 -12 8.5 -19t21.5 -6q112 16 344 10q144 -4 160 -4q12 0 21.5 8.5t9.5 20.5q2 12 -5.5 20.5t-19.5 8.5q-7 0 -155 4q-233 9 -357 -11q-28 -3 -28 -32z" />
<glyph unicode="&#x2012;" horiz-adv-x="667" d="M-12 539q0 -12 8.5 -19t21.5 -6q112 16 344 10q144 -4 160 -4q12 0 21.5 8.5t9.5 20.5q2 12 -5.5 20.5t-19.5 8.5q-7 0 -155 4q-233 9 -357 -11q-28 -3 -28 -32z" />
<glyph unicode="&#x2013;" horiz-adv-x="684" d="M-78 463q-2 -12 7 -20t22 -7q8 0 182 17q267 22 404 22q12 0 20 8.5t10 20.5t-5 20t-19 8q-171 0 -408 -22q-156 -15 -182 -16q-12 0 -21.5 -9.5t-9.5 -21.5z" />
<glyph unicode="&#x2014;" horiz-adv-x="1419" d="M-53 463q1 -12 10.5 -17.5t22.5 -3.5q130 33 649 49t637 -14q11 -2 22.5 5t14.5 18t-2.5 22.5t-16.5 12.5q-125 31 -650.5 16.5t-664.5 -51.5q-25 -10 -22 -37z" />
<glyph unicode="&#x2018;" horiz-adv-x="268" d="M20 1006q-3 -12 2 -23t17 -12q13 -2 23.5 4t13.5 18q59 178 139 240q16 12 14.5 28.5t-15 21.5t-30.5 -5q-102 -76 -164 -272z" />
<glyph unicode="&#x2019;" horiz-adv-x="229" d="M66.5 1275.5q-5.5 -14.5 3.5 -28.5q74 -83 28 -262q-3 -12 3 -22t18 -11q12 -2 23 5.5t12 19.5q56 209 -39 311q-11 13 -27 7.5t-21.5 -20z" />
<glyph unicode="&#x201a;" horiz-adv-x="278" d="M-70 120q1 -15 17 -24q32 -16 57 -41q20 -20 33.5 -46.5t8.5 -58.5t-38 -52q-17 -11 -16.5 -28.5t13 -24t30.5 2.5q50 29 66 80.5t-5 91.5q-15 43 -48.5 78t-74.5 52q-16 8 -30 -3.5t-13 -26.5z" />
<glyph unicode="&#x201c;" horiz-adv-x="491" d="M70 922q-3 -12 3.5 -21.5t18.5 -9.5q12 -1 21.5 7t11.5 20q15 80 39.5 132.5t71.5 106.5q13 15 7.5 30.5t-20.5 17.5t-30 -11q-55 -62 -82 -123t-41 -149zM238 942q-10 -29 15.5 -38t39.5 18q23 56 39 88q44 86 102 139q22 23 2 42t-43 -1q-71 -74 -112 -158z" />
<glyph unicode="&#x201d;" horiz-adv-x="450" d="M95.5 1118q-6.5 -14 2.5 -28q18 -26 27 -46q10 -28 20 -98q0 -11 11 -17.5t24 -4.5q10 1 17.5 12t5.5 22q-1 17 -3.5 38t-2.5 26q-15 59 -50 104q-11 15 -28 10.5t-23.5 -18.5zM255 1183.5q-7 -14.5 1 -30.5q36 -47 46.5 -100.5t12.5 -151.5q0 -12 9.5 -20.5t21.5 -6.5 q10 0 19.5 10t9.5 21q2 99 -13 163.5t-57 121.5q-9 15 -26 11.5t-24 -18z" />
<glyph unicode="&#x201e;" horiz-adv-x="399" d="M-29 -94q-4 -29 19 -35q26 -7 39 18q56 151 -6 269q-10 14 -25.5 13.5t-25.5 -15.5t-1 -31q48 -97 0 -219zM147 -66q-7 -18 3.5 -30t27 -9.5t25.5 19.5q54 127 12 266q-5 18 -21 20t-28 -10.5t-6 -29.5q34 -123 -13 -226z" />
<glyph unicode="&#x2022;" horiz-adv-x="378" d="M70 647q3 -8 9 -21.5t9 -21.5l-4 14q14 -36 45 -44.5t61 8.5q18 10 46 24l-19 -8q17 8 35 23q35 35 27 79q-9 45 -47.5 58t-77.5 -8l-6 -4q-7 -4 -11 -5q-7 -3 -37 -18q-34 -28 -30 -76z" />
<glyph unicode="&#x2026;" horiz-adv-x="722" d="M-86.5 36q0.5 -6 3.5 -13t5 -11.5t5 -9.5l3 -6q1 -1 3.5 -4t3.5 -4q8 -16 22.5 -15t22.5 13q45 52 30 82q-16 22 -30 22q-7 0 -10.5 -1t-15 -7t-26.5 -12q-8 -4 -12 -9.5t-4.5 -12t0 -12.5zM167.5 55.5q-6.5 -23.5 4.5 -57.5q8 -27 33 -30t59 22l8.5 8.5t15 16t14 21 t5.5 23.5q0 21 -19 32.5t-42 8.5q-22 -2 -51 -12q-21 -9 -27.5 -32.5zM455 6q7 -20 16 -20h6h12q16 2 33 2q12 0 20.5 8t10.5 20v13q-2 3 -3 15t-5 22q-19 27 -45 4q-16 -12 -27 -23l-10 -8q-2 -2 -4 -6q-10 -14 -4 -27z" />
<glyph unicode="&#x202f;" horiz-adv-x="317" />
<glyph unicode="&#x2039;" horiz-adv-x="366" d="M-63 461q-20 -29 10 -53l22 -15q80 -50 168 -82q18 -5 31 7t12.5 28t-16.5 23q-67 23 -158 73q-11 8 0 15q1 2 4 5t4 5q15 12 86 80q108 97 162 151q14 16 8.5 31.5t-20.5 17t-29 -11.5q-26 -26 -158 -147q-59 -52 -88 -82q-19 -19 -28 -31q-6 -6 -10 -14z" />
<glyph unicode="&#x203a;" horiz-adv-x="413" d="M-34 263.5q16 -22.5 42 -3.5q57 43 172 158q42 42 88 96q22 31 27 39q31 56 -43 84q-19 4 -57 20q-75 29 -111 84q-9 16 -26.5 13.5t-25 -16t0.5 -29.5q43 -69 135 -107q24 -8 31 -10q1 0 2 -1t2 -1q18 -6 25.5 -15.5t2.5 -15.5q-2 -4 -10 -12q-23 -33 -80 -90 q-80 -80 -166 -152q-25 -19 -9 -41.5z" />
<glyph unicode="&#x205f;" horiz-adv-x="397" />
<glyph unicode="&#x20ac;" horiz-adv-x="626" d="M-203 502q1 -12 10.5 -17.5t22.5 -3.5q48 13 98 21q24 4 33 -2t6 -37q-9 -107 -3 -159.5t32 -115.5q28 -70 71.5 -122t96.5 -68q66 -17 117.5 21t80.5 106q31 77 31 90q3 11 -1.5 22.5t-14.5 12.5q-13 2 -24.5 -4.5t-14.5 -18.5q0 -1 -1.5 -5.5t-5.5 -15t-7 -22.5 l-17 -43q-17 -43 -43 -63q-78 -63 -155 37q-35 41 -59 98t-27 100q-4 73 4 160q4 30 12.5 36.5t32.5 8.5q63 4 237 4q63 -2 123 -2q12 0 21.5 8.5t9.5 20.5q2 12 -5.5 20.5t-19.5 8.5q-58 0 -119 2q-117 2 -237 -5q-18 0 -25 1.5t-11.5 9t-2.5 24.5q0 6 2 18.5t2 18.5l4 15 q1 3 2 9t1.5 8.5t2 6.5t3 5.5t4.5 4t7.5 3.5t10.5 2t14 1q85 3 320 3q12 0 22 8t11 20t-7 20.5t-20 8.5h-309q-32 -1 -37 6t4 39q27 112 56.5 166.5t80.5 103.5q51 48 99 67.5t83 2.5q82 -34 86 -174q1 -1 4 -41q0 -14 1.5 -32t1.5 -21q0 -12 9.5 -18.5t22.5 -4.5 q12 1 19.5 12t7.5 23q-3 17 -4.5 51t0.5 41q-16 172 -117 219q-56 24 -124 -1t-126 -83q-61 -61 -97 -126t-67 -197q0 -2 -1 -6q-1 -11 -2.5 -15.5t-5.5 -10t-12.5 -8t-23.5 -3.5q-58 -6 -106 -15q-10 -1 -18.5 -11t-8.5 -21q1 -12 11 -19.5t22 -5.5q31 5 82 12q43 3 37 -41 q-3 -11 -8 -45q-3 -40 -43 -43q-66 -10 -119 -24q-26 -10 -23 -37z" />
<glyph unicode="&#x2122;" horiz-adv-x="724" d="M-2 1241q-2 -12 7 -20t22 -7h67h37q-14 -303 -31 -399q-3 -12 4 -21.5t19 -9.5q12 -2 23 6.5t12 20.5q29 156 35 401q4 4 36 7h11q35 0 45 12q10 5 10 20q0 12 -8.5 20t-20.5 7q-29 -2 -123 -2q-21 -1 -47 -1.5t-42 -1t-27 -1.5q-12 0 -20.5 -9.5t-8.5 -21.5zM279 825 q-1 -12 6.5 -19.5t19.5 -6.5q12 0 21.5 9t9.5 21q8 78 24 129l25 76q6 16 13.5 43.5t11 36.5t6.5 4q1 -12 0 -45.5t-2 -61.5t0 -30q5 -14 17.5 -19t27.5 1q20 9 43 57q2 4 7 18t11 30l12 32q2 8 7 10t10 -2.5t6 -13.5q1 -3 6 -50l14 -122q2 -31 7 -64q4 -32 20 -41 q16 -6 32 7t9 32q-5 23 -10 78l-12 123q-6 72 -19 117q-8 34 -10 40q-12 29 -37 29q-17 0 -29 -12q-14 -23 -22 -41q-7 -19 -12 -29t-8 -14t-6 0.5t-4.5 10t-4.5 17t-6 19.5l-6 23q-11 22 -33 22q-21 0 -31 -8q-1 -1 -16 -27q-6 -15 -12 -39q-1 -4 -11 -37l-49 -157 q-23 -71 -26 -146z" />
<glyph unicode="&#xe000;" horiz-adv-x="1249" d="M0 0v1249h1249v-1249h-1249z" />
</font>
</defs>
</svg>
