<?xml version="1.0" encoding="utf-8"?>
<!-- Generator: Adobe Illustrator 16.0.4, SVG Export Plug-In . SVG Version: 6.00 Build 0)  -->
<!DOCTYPE svg PUBLIC "-//W3C//DTD SVG 1.1//EN" "http://www.w3.org/Graphics/SVG/1.1/DTD/svg11.dtd">
<svg version="1.1" id="totem" xmlns:sketch="http://www.bohemiancoding.com/sketch/ns"
	 xmlns="http://www.w3.org/2000/svg" xmlns:xlink="http://www.w3.org/1999/xlink" x="0px" y="0px" width="285.317px"
	 height="420.283px" viewBox="113.594 45.562 285.317 420.283" enable-background="new 113.594 45.562 285.317 420.283"
	 xml:space="preserve">
<path id="_x3C_Path_x3E_" sketch:type="MSShapeGroup" fill="#75399E" stroke="#FFFFFF" d="M263.392,47.828l28.343,118.682
	l87.031,140.1l-25.264-142.687L263.392,47.828z"/>
<polygon fill="#75399E" stroke="#FFFFFF" points="216.531,320.764 378.856,308.802 291.287,167.835 "/>
<polygon fill="#75399E" stroke="#FFFFFF" points="262.062,46.85 189.417,164.608 215.883,319.564 290.659,166.592 262.062,46.849 
	"/>
<polygon fill="#75399E" stroke="#FFFFFF" points="188.56,166.073 114.356,287.594 214.951,320.578 "/>
<polygon fill="#75399E" stroke="#FFFFFF" points="171.024,158.265 117.254,280.773 188.39,164.28 257.52,52.221 "/>
<polygon fill="#75399E" stroke="#FFFFFF" points="114.267,288.701 147.604,443.536 214.845,321.68 "/>
<polygon fill="#75399E" stroke="#FFFFFF" points="215.673,322.418 148.235,444.626 309.096,465.211 "/>
<polygon fill="#75399E" stroke="#FFFFFF" points="378.927,309.881 216.587,321.842 310.097,464.769 "/>
<polygon fill="#75399E" stroke="#FFFFFF" points="311.455,464.373 398.356,404.926 379.59,311.047 "/>
<polygon fill="#75399E" stroke="#FFFFFF" points="141.873,432.016 123.511,336.773 145.849,440.514 "/>
<polygon fill="#75399E" stroke="#FFFFFF" points="384.656,274.682 380.333,309.256 397.192,393.596 "/>
<polygon fill="#75399E" stroke="#FFFFFF" points="356.318,173.634 379.694,305.658 384.151,270.008 "/>
</svg>
