<?xml version="1.0" encoding="utf-8"?>
<!-- Generator: Adobe Illustrator 16.0.1, SVG Export Plug-In . SVG Version: 6.00 Build 0)  -->
<!DOCTYPE svg PUBLIC "-//W3C//DTD SVG 1.1//EN" "http://www.w3.org/Graphics/SVG/1.1/DTD/svg11.dtd">
<svg version="1.1" id="Layer_1" xmlns="http://www.w3.org/2000/svg" xmlns:xlink="http://www.w3.org/1999/xlink" x="0px" y="0px"
	 width="287.488px" height="422.479px" viewBox="0 0 287.488 422.479" enable-background="new 0 0 287.488 422.479"
	 xml:space="preserve">
<g>
	
		<polygon opacity="0.4" fill="none" stroke="#595959" stroke-width="0.5" stroke-linecap="round" stroke-linejoin="round" stroke-miterlimit="10" points="
		149.783,1 58.033,113.489 1,243.433 28.943,388.397 34.848,400.64 197.697,421.479 286.488,360.738 272.229,225.499 
		241.531,119.206 	"/>
	
		<polygon fill="none" stroke="#595959" stroke-width="0.5" stroke-linecap="round" stroke-linejoin="round" stroke-miterlimit="10" points="
		76.328,120.069 149.783,1 178.732,122.23 103.117,276.918 	"/>
	
		<polygon fill="none" stroke="#595959" stroke-width="0.5" stroke-linecap="round" stroke-linejoin="round" stroke-miterlimit="10" points="
		267.311,264.819 241.531,119.206 149.783,1 178.732,122.23 	"/>
	
		<polygon fill="none" stroke="#595959" stroke-width="0.5" stroke-linecap="round" stroke-linejoin="round" stroke-miterlimit="10" points="
		267.311,264.819 272.229,225.499 241.531,119.206 	"/>
	
		<polygon fill="none" stroke="#595959" stroke-width="0.5" stroke-linecap="round" stroke-linejoin="round" stroke-miterlimit="10" points="
		103.117,276.918 178.732,122.23 267.311,264.819 	"/>
	
		<polygon fill="none" stroke="#595959" stroke-width="0.5" stroke-linecap="round" stroke-linejoin="round" stroke-miterlimit="10" points="
		76.328,120.069 1,243.433 58.033,113.489 149.783,1 	"/>
	
		<polygon fill="none" stroke="#595959" stroke-width="0.5" stroke-linecap="round" stroke-linejoin="round" stroke-miterlimit="10" points="
		1,243.433 76.328,120.069 103.117,276.918 	"/>
	
		<polygon fill="none" stroke="#595959" stroke-width="0.5" stroke-linecap="round" stroke-linejoin="round" stroke-miterlimit="10" points="
		34.848,400.64 1,243.433 103.117,276.918 	"/>
	
		<polygon fill="none" stroke="#595959" stroke-width="0.5" stroke-linecap="round" stroke-linejoin="round" stroke-miterlimit="10" points="
		267.311,264.819 272.229,225.499 286.488,360.738 	"/>
	
		<polygon fill="none" stroke="#595959" stroke-width="0.5" stroke-linecap="round" stroke-linejoin="round" stroke-miterlimit="10" points="
		28.82,387.761 1,243.433 34.848,400.64 	"/>
	
		<polygon fill="none" stroke="#595959" stroke-width="0.5" stroke-linecap="round" stroke-linejoin="round" stroke-miterlimit="10" points="
		103.117,276.918 34.848,400.64 197.697,421.479 	"/>
	
		<polygon fill="none" stroke="#595959" stroke-width="0.5" stroke-linecap="round" stroke-linejoin="round" stroke-miterlimit="10" points="
		267.311,264.819 103.117,276.918 197.697,421.479 	"/>
	
		<polygon fill="none" stroke="#595959" stroke-width="0.5" stroke-linecap="round" stroke-linejoin="round" stroke-miterlimit="10" points="
		286.488,360.738 267.311,264.819 197.697,421.479 	"/>
</g>
</svg>
